<?xml version="1.0" encoding="UTF-8"?>
<svg id="Layer_1" data-name="Layer 1" xmlns="http://www.w3.org/2000/svg" viewBox="0 0 115.2 114.64">
  <defs>
    <style>
      .cls-1 {
        fill: #f7802b;
        stroke-width: 0px;
      }
    </style>
  </defs>
  <path class="cls-1" d="M45.58,7.87s9.36,5.8,11.76,17.29c0,0,14.01-18.22,29.14-16.23,15.14,2,21.12,4.49,21.12,4.49,0,0-7.18,5.93-11.62,8.92-4.44,3-20.27,6.68-31.96,3.06,0,0-4.22-.87-4.72.44,0,0,46.6,17.79,15.84,40.75-1.13,1.87-7.96,39.38-41.32,36.57,0,0,1.62,2.31-2.11,4.43,0,0-1.62.44-1.83-4.24,0,0-32.38-10.48-17.88-49.99,0,0-20.91-23.9,28.44-30.2,0,0-4.51-5.87-7.04-6.8-2.53-.94,11.19-10.23,12.18-8.55v.06Z"/>
</svg>