<?xml version="1.0" encoding="UTF-8"?>
<svg id="Layer_1" data-name="Layer 1" xmlns="http://www.w3.org/2000/svg" viewBox="0 0 333.33 119.36">
  <defs>
    <style>
      .cls-1 {
        fill: #633311;
      }

      .cls-1, .cls-2, .cls-3 {
        stroke-width: 0px;
      }

      .cls-2 {
        fill: #fab380;
      }

      .cls-3 {
        fill: #944d1a;
      }
    </style>
  </defs>
  <path class="cls-3" d="M41.83,112.22c29.6-5.3,48.8-33.7,11.6-61.9-13.2-12.7,15.9-20.6,11.1,1.7-.3,3.2.7,3.2,1.5,1.9C117.43-22.08-29.87-17.48,39.63,66.12c0,0,14.7,18.7,4.5,31.7s-11.9,12.5-2.4,14.4h.1Z"/>
  <path class="cls-1" d="M69.03,90.72c-3.3,6.2-8.9,11.9-16.2,11.8h-.7c-1.3.3-2.6.5-4,.2-2.5-.5-3.8-2.3-4.2-4.6-10,12.8-11.7,12.3-2.2,14.2,20-3.6,35.3-17.7,31.6-35.3,0,0-.1-.2-.2-.3-.3,4.9-1.9,9.8-4.1,14h0Z"/>
  <path class="cls-2" d="M52.13,3.02c-4.2-.6-8.4-.3-12.3,1.2-5.5,2.2-9.4,6.8-11.7,12.3,0,.2.2.3.2.5,3.9-8,12.5-11.5,20.8-11.6,4.4,0,9.1.6,13.5,2.3-2.3-3.2-7.1-4.2-10.6-4.6h0l.1-.1Z"/>
  <path class="cls-1" d="M67.43,39.12c0-.1,0-.2-.1-.3,0-.1-.1-.2-.2-.4-.2-.3-.3-.7-.5-1-.4-.7-.9-1.5-1.4-2.2-.1-.2-.3-.3-.4-.5-.3-.3-.5-.6-.8-.9-.6-.6-1.2-1.2-1.8-1.7l-.1-.1h-.1c-.4-.2-.8-.5-1.2-.7-.3-.2-.6-.3-.9-.5-.2,0-.4-.1-.6-.2-.3,0-1.4-.2-1.5-.2h-1c-.2,0-3.35.62-4.2,1.1h0c-.9.8-1.8,1.5-2.8,2.1-1.8,1.8-3.1,4.1-3.5,6.9.8,2.1,1.8,4.1,3,6,2.6,3.2,6.1,5.9,9.6,8.3h0c-1.7-1.5-3.5-3-5.5-4.5-13.2-12.7,15.9-20.6,11.1,1.7-.3,3.2.7,3.2,1.5,1.9.6-.9,1.2-1.8,1.8-2.7.4-1.9.7-3.9.8-5.9,0-.8,0-1.5-.1-2.3v-.5c0-.3-.2-.7-.3-1-.2-.8-.5-1.6-.8-2.4h0Z"/>
  <path class="cls-1" d="M43.73,100.32c-.2.3-.4.6-.6.9.2,0,.3.1.5.2v-1.1h.1Z"/>
  <path class="cls-1" d="M25.23,63.52s-12.9-5.1-16.7,9.1c-1.2,1-.2,6.5,6.6,7.6,6.8,1.2-11.4,7.6-13,10.3s11.9,3.1,11.9,3.1c0,0,.6,8.2-1.8,10.7-.4,5.5,9.7,11.1,9.7,11.1,0,0-3.1-3.7-12.3,1.9-4.2,4.5,17.3-.2,22.6-1.2,6.1-1.3,25.2-20.1-1.8-37.7,0,0-4-3.2-.8-11.9,3.2-8.7-3.6-7.2-4.5-2.9l.1-.1Z"/>
  <path class="cls-1" d="M20.23,116.62c1.7-.4,3.4-1,4.8-2-.5-.2-.9-.4-1.3-.6-2.3-.9-4.4-2.2-6.1-4-.6-.4-1.2-1-1.6-1.6-.3-.4-.7-.8-.9-1.2-.5-.8-.7-1.9-.6-2.9,0-.2,0-.4.1-.6.3-1.1,1.1-2,2.4-1.9-.3-1.3-.4-2.7-.5-4-.1-1.7-.2-3.3-1-4.8-.2-.3-.3-.6-.3-.9-1.7.1-3.4.5-5.1.3-1.2-.1-2.3-.3-3.5-.6-.6-.2-1.3-.4-2-.3-.3,0-1.5.4-1.4.8,3.1,1.3,10.8,1.5,10.8,1.5,0,0,.6,8.2-1.8,10.7-.3,4.2,5.5,8.4,8.3,10.2-1.7-.6-5.1-.8-10.9,2.7-1.5,1.7.4,2.1,3.7,1.9,1.5-1.9,4.6-2,6.8-2.5l.1-.2Z"/>
  <path class="cls-1" d="M37.93,111.92c-1.2,1.2-3,2.8-4.9,3.6-.2.2-.5.4-.8.6h0c2.4-.5,7-3.9,9.8-8.9-1.3,1.7-2.7,3.3-4.2,4.8h0l.1-.1Z"/>
  <path class="cls-1" d="M27.33,61.02h-.1c-.8.5-1.6,1.7-1.7,2.8.1,0,.2,0,.4.1h.1c.8,0,1.2-1,1.4-1.8v-1.2h0l-.1.1Z"/>
  <path class="cls-1" d="M29.33,80.12c.2.8,1.1,1.4,1.7,1.8,1,.8,2.1,1.5,3.2,2.3,2.3,1.9,4.2,4.7,5.7,7.2,1.6,2.7,2.4,5.5,2.8,8.6,0,.5.1,1,.1,1.5.3-2.5.2-5.1-.4-7.6-.7-2.5-1.7-5-3.4-7,0-.1-.2-.2-.2-.3-1.3-1.5-2.6-3-4.1-4.3-.8-.7-1.6-1.4-2.5-2.1-.1,0-.2,0-.4-.1-.7-.4-1.4-.9-2.2-1.1-.3.2-.4.7-.3,1v.1Z"/>
  <path class="cls-1" d="M13.03,71.12c.2,0,.3-.2.3-.4s-.2-.4-.4-.4-.3.2-.3.4.2.4.4.4Z"/>
  <path class="cls-2" d="M41.73,97.32c-.2.3-.4.6-.6.9.2,0,.3.1.5.2v-1.1h.1Z"/>
  <path class="cls-2" d="M23.23,60.52s-12.9-5.1-16.7,9.1c-1.2,1-.2,6.5,6.6,7.6,6.8,1.2-11.4,7.6-13,10.3s11.9,3.1,11.9,3.1c0,0,.6,8.2-1.8,10.7-.4,5.5,9.7,11.1,9.7,11.1,0,0-3.1-3.7-12.3,1.9-4.2,4.5,17.3-.2,22.6-1.2,6.1-1.3,25.2-20.1-1.8-37.7,0,0-4-3.2-.8-11.9,3.2-8.7-3.6-7.2-4.5-2.9l.1-.1Z"/>
  <path class="cls-2" d="M18.23,113.62c1.7-.4,3.4-1,4.8-2-.5-.2-.9-.4-1.3-.6-2.3-.9-4.4-2.2-6.1-4-.6-.4-1.2-1-1.6-1.6-.3-.4-.7-.8-.9-1.2-.5-.8-.7-1.9-.6-2.9,0-.2,0-.4.1-.6.3-1.1,1.1-2,2.4-1.9-.3-1.3-.4-2.7-.5-4-.1-1.7-.2-3.3-1-4.8-.2-.3-.3-.6-.3-.9-1.7.1-3.4.5-5.1.3-1.2-.1-2.3-.3-3.5-.6-.6-.2-1.3-.4-2-.3-.3,0-1.5.4-1.4.8,3.1,1.3,10.8,1.5,10.8,1.5,0,0,.6,8.2-1.8,10.7-.3,4.2,5.5,8.4,8.3,10.2-1.7-.6-5.1-.8-10.9,2.7-1.5,1.7.4,2.1,3.7,1.9,1.5-1.9,4.6-2,6.8-2.5l.1-.2Z"/>
  <path class="cls-2" d="M35.93,108.92c-1.2,1.2-3,2.8-4.9,3.6-.2.2-.5.4-.8.6h0c2.4-.5,7-3.9,9.8-8.9-1.3,1.7-2.7,3.3-4.2,4.8h0l.1-.1Z"/>
  <path class="cls-2" d="M25.33,58.02h-.1c-.8.5-1.6,1.7-1.7,2.8.1,0,.2,0,.4.1h.1c.8,0,1.2-1,1.4-1.8v-1.2h0l-.1.1Z"/>
  <path class="cls-2" d="M27.33,77.12c.2.8,1.1,1.4,1.7,1.8,1,.8,2.1,1.5,3.2,2.3,2.3,1.9,4.2,4.7,5.7,7.2,1.6,2.7,2.4,5.5,2.8,8.6,0,.5.1,1,.1,1.5.3-2.5.2-5.1-.4-7.6-.7-2.5-1.7-5-3.4-7,0-.1-.2-.2-.2-.3-1.3-1.5-2.6-3-4.1-4.3-.8-.7-1.6-1.4-2.5-2.1-.1,0-.2,0-.4-.1-.7-.4-1.4-.9-2.2-1.1-.3.2-.4.7-.3,1v.1Z"/>
  <path class="cls-3" d="M42.73,98.32c-.2.3-.4.6-.6.9.2,0,.3.1.5.2v-1.1h.1Z"/>
  <path class="cls-3" d="M24.23,61.52s-12.9-5.1-16.7,9.1c-1.2,1-.2,6.5,6.6,7.6,6.8,1.2-11.4,7.6-13,10.3s11.9,3.1,11.9,3.1c0,0,.6,8.2-1.8,10.7-.4,5.5,9.7,11.1,9.7,11.1,0,0-3.1-3.7-12.3,1.9-4.2,4.5,17.3-.2,22.6-1.2,6.1-1.3,25.2-20.1-1.8-37.7,0,0-4-3.2-.8-11.9,3.2-8.7-3.6-7.2-4.5-2.9l.1-.1Z"/>
  <path class="cls-3" d="M19.23,114.62c1.7-.4,3.4-1,4.8-2-.5-.2-.9-.4-1.3-.6-2.3-.9-4.4-2.2-6.1-4-.6-.4-1.2-1-1.6-1.6-.3-.4-.7-.8-.9-1.2-.5-.8-.7-1.9-.6-2.9,0-.2,0-.4.1-.6.3-1.1,1.1-2,2.4-1.9-.3-1.3-.4-2.7-.5-4-.1-1.7-.2-3.3-1-4.8-.2-.3-.3-.6-.3-.9-1.7.1-3.4.5-5.1.3-1.2-.1-2.3-.3-3.5-.6-.6-.2-1.3-.4-2-.3-.3,0-1.5.4-1.4.8,3.1,1.3,10.8,1.5,10.8,1.5,0,0,.6,8.2-1.8,10.7-.3,4.2,5.5,8.4,8.3,10.2-1.7-.6-5.1-.8-10.9,2.7-1.5,1.7.4,2.1,3.7,1.9,1.5-1.9,4.6-2,6.8-2.5l.1-.2Z"/>
  <path class="cls-3" d="M36.93,109.92c-1.2,1.2-3,2.8-4.9,3.6-.2.2-.5.4-.8.6h0c2.4-.5,7-3.9,9.8-8.9-1.3,1.7-2.7,3.3-4.2,4.8h0l.1-.1Z"/>
  <path class="cls-3" d="M26.33,59.02h-.1c-.8.5-1.6,1.7-1.7,2.8.1,0,.2,0,.4.1h.1c.8,0,1.2-1,1.4-1.8v-1.2h0l-.1.1Z"/>
  <path class="cls-3" d="M28.33,78.12c.2.8,1.1,1.4,1.7,1.8,1,.8,2.1,1.5,3.2,2.3,2.3,1.9,4.2,4.7,5.7,7.2,1.6,2.7,2.4,5.5,2.8,8.6,0,.5.1,1,.1,1.5.3-2.5.2-5.1-.4-7.6-.7-2.5-1.7-5-3.4-7,0-.1-.2-.2-.2-.3-1.3-1.5-2.6-3-4.1-4.3-.8-.7-1.6-1.4-2.5-2.1-.1,0-.2,0-.4-.1-.7-.4-1.4-.9-2.2-1.1-.3.2-.4.7-.3,1v.1Z"/>
  <path class="cls-1" d="M124.93,98.72c.7,1.4,1,2.8.7,3.9-.3,1.2-.9,2.1-1.8,2.7-.9.7-1.9,1.1-3.1,1.2-1.2.1-2.3,0-3.4-.7-1.1-.6-1.9-1.5-2.6-2.9l-3.3-7.1c-.6-1.2-1.3-2.1-2.2-2.6s-2.3-.7-4.2-.7l9.3-3.4c2.1,0,3.7.4,5,1.2,1.4.7,2.4,2,3.3,3.7l2.1,4.6.2.1ZM106.23,92.62c-4.6,0-8.7-.9-12.1-2.6-3.4-1.7-6.1-4.2-8-7.5s-2.9-7.3-2.9-11.9.6-8.1,1.9-11.7c1.3-3.5,3.1-6.6,5.4-9.2s5.1-4.5,8.4-5.9,6.9-2.1,10.9-2.1,8.7.9,12.1,2.6c3.5,1.7,6.1,4.2,8,7.6,1.9,3.3,2.9,7.2,2.9,11.8s-.6,8.1-1.9,11.7c-1.3,3.5-3.1,6.6-5.4,9.2-2.3,2.6-5.1,4.6-8.4,5.9-3.2,1.4-6.9,2.1-10.9,2.1h0ZM106.43,82.62c2.9,0,5.5-.8,7.6-2.4s3.7-3.8,4.8-6.6c1.1-2.8,1.7-6.1,1.7-9.7s-1-7.2-2.9-9.2-4.6-3-7.9-3-5.5.8-7.6,2.4-3.7,3.8-4.8,6.6c-1.1,2.8-1.6,6-1.6,9.7s1,7.2,2.9,9.2c2,2,4.6,3,7.9,3h-.1ZM154.23,92.52c-1.6,0-2.8-.4-3.8-1.3-.9-.9-1.5-2.2-1.9-4l-7.6-38.2c-.4-2.1-.1-3.8.8-5.1,1-1.3,2.5-2,4.5-2s2.8.5,3.8,1.4c.9.9,1.5,2.2,1.8,4l5.7,32.1h-3.1l17.1-33.1c.7-1.5,1.6-2.6,2.6-3.3,1-.7,2.2-1,3.6-1s2.6.4,3.4,1.3c.8.9,1.4,2.3,1.8,4.1l5.7,32h-2.8l16.6-33.1c.7-1.4,1.6-2.5,2.5-3.2s2.2-1.1,3.7-1.1c2.2,0,3.8.7,4.5,2.2.8,1.4.7,3.2-.4,5.4l-20,38.7c-.7,1.5-1.7,2.6-2.7,3.3-1.1.7-2.4,1-4.1,1s-2.8-.4-3.7-1.3c-.9-.9-1.5-2.2-1.9-4l-5.7-28.8h1.8l-15.5,29.8c-.8,1.5-1.7,2.6-2.8,3.3-1,.7-2.4,1.1-4.1,1.1l.2-.2ZM221.13,91.92c-2.2,0-3.8-.6-4.8-1.7-1-1.2-1.3-2.8-1-5l5.8-37c.3-1.9,1.1-3.3,2.2-4.2,1.1-1,2.6-1.5,4.6-1.5h23.7c1.6,0,2.8.3,3.6,1,.8.7,1.3,1.6,1.3,2.8s-.5,3-1.5,4-2.3,1.5-3.9,1.5h-19l-1.7,10.4h16.6c1.5,0,2.7.3,3.6,1,.8.7,1.3,1.6,1.3,2.8s-.5,3-1.5,4-2.3,1.5-3.9,1.5h-17.4l-1.8,11.2h18.1c1.6,0,2.8.3,3.6,1,.8.7,1.3,1.6,1.3,2.8s-.5,3-1.5,4-2.3,1.5-3.9,1.5h-23.5l-.3-.1ZM263.63,91.92c-2.1,0-3.6-.6-4.6-1.7-1-1.2-1.3-2.8-1-4.8l6-37.9c.3-1.9,1-3.2,2.1-4.1s2.5-1.4,4.4-1.4,3.4.6,4.3,1.8c.9,1.1,1.2,2.7.9,4.8l-5.2,33.5h16.9c1.7,0,3,.3,3.9,1,.9.7,1.4,1.6,1.4,2.9,0,1.9-.5,3.3-1.6,4.4-1,1-2.5,1.5-4.3,1.5h-23.2,0ZM304.23,91.92c-2.1,0-3.6-.6-4.6-1.7-1-1.2-1.3-2.8-1-4.8l6-37.9c.3-1.9,1-3.2,2.1-4.1s2.5-1.4,4.4-1.4,3.4.6,4.3,1.8c.9,1.1,1.2,2.7.9,4.8l-5.2,33.5h16.9c1.7,0,3,.3,3.9,1,.9.7,1.4,1.6,1.4,2.9,0,1.9-.5,3.3-1.6,4.4-1,1-2.5,1.5-4.3,1.5h-23.2,0Z"/>
  <path class="cls-2" d="M122.93,94.72c.7,1.4,1,2.8.7,3.9-.3,1.2-.9,2.1-1.8,2.7-.9.7-1.9,1.1-3.1,1.2-1.2.1-2.3,0-3.4-.7-1.1-.6-1.9-1.5-2.6-2.9l-3.3-7.1c-.6-1.2-1.3-2.1-2.2-2.6s-2.3-.7-4.2-.7l9.3-3.4c2.1,0,3.7.4,5,1.2,1.4.7,2.4,2,3.3,3.7l2.1,4.6.2.1ZM104.23,88.62c-4.6,0-8.7-.9-12.1-2.6-3.4-1.7-6.1-4.2-8-7.5s-2.9-7.3-2.9-11.9.6-8.1,1.9-11.7c1.3-3.5,3.1-6.6,5.4-9.2s5.1-4.5,8.4-5.9,6.9-2.1,10.9-2.1,8.7.9,12.1,2.6c3.5,1.7,6.1,4.2,8,7.6,1.9,3.3,2.9,7.2,2.9,11.8s-.6,8.1-1.9,11.7c-1.3,3.5-3.1,6.6-5.4,9.2-2.3,2.6-5.1,4.6-8.4,5.9-3.2,1.4-6.9,2.1-10.9,2.1h0ZM104.43,78.62c2.9,0,5.5-.8,7.6-2.4s3.7-3.8,4.8-6.6c1.1-2.8,1.7-6.1,1.7-9.7s-1-7.2-2.9-9.2-4.6-3-7.9-3-5.5.8-7.6,2.4-3.7,3.8-4.8,6.6c-1.1,2.8-1.6,6-1.6,9.7s1,7.2,2.9,9.2c2,2,4.6,3,7.9,3h-.1ZM152.23,88.52c-1.6,0-2.8-.4-3.8-1.3-.9-.9-1.5-2.2-1.9-4l-7.6-38.2c-.4-2.1-.1-3.8.8-5.1,1-1.3,2.5-2,4.5-2s2.8.5,3.8,1.4c.9.9,1.5,2.2,1.8,4l5.7,32.1h-3.1l17.1-33.1c.7-1.5,1.6-2.6,2.6-3.3,1-.7,2.2-1,3.6-1s2.6.4,3.4,1.3c.8.9,1.4,2.3,1.8,4.1l5.7,32h-2.8l16.6-33.1c.7-1.4,1.6-2.5,2.5-3.2s2.2-1.1,3.7-1.1c2.2,0,3.8.7,4.5,2.2.8,1.4.7,3.2-.4,5.4l-20,38.7c-.7,1.5-1.7,2.6-2.7,3.3-1.1.7-2.4,1-4.1,1s-2.8-.4-3.7-1.3c-.9-.9-1.5-2.2-1.9-4l-5.7-28.8h1.8l-15.5,29.8c-.8,1.5-1.7,2.6-2.8,3.3-1,.7-2.4,1.1-4.1,1.1l.2-.2ZM219.13,87.92c-2.2,0-3.8-.6-4.8-1.7-1-1.2-1.3-2.8-1-5l5.8-37c.3-1.9,1.1-3.3,2.2-4.2,1.1-1,2.6-1.5,4.6-1.5h23.7c1.6,0,2.8.3,3.6,1,.8.7,1.3,1.6,1.3,2.8s-.5,3-1.5,4-2.3,1.5-3.9,1.5h-19l-1.7,10.4h16.6c1.5,0,2.7.3,3.6,1,.8.7,1.3,1.6,1.3,2.8s-.5,3-1.5,4-2.3,1.5-3.9,1.5h-17.4l-1.8,11.2h18.1c1.6,0,2.8.3,3.6,1,.8.7,1.3,1.6,1.3,2.8s-.5,3-1.5,4-2.3,1.5-3.9,1.5h-23.5l-.3-.1ZM261.63,87.92c-2.1,0-3.6-.6-4.6-1.7-1-1.2-1.3-2.8-1-4.8l6-37.9c.3-1.9,1-3.2,2.1-4.1s2.5-1.4,4.4-1.4,3.4.6,4.3,1.8c.9,1.1,1.2,2.7.9,4.8l-5.2,33.5h16.9c1.7,0,3,.3,3.9,1s1.4,1.6,1.4,2.9c0,1.9-.5,3.3-1.6,4.4-1,1-2.5,1.5-4.3,1.5h-23.2,0ZM302.23,87.92c-2.1,0-3.6-.6-4.6-1.7-1-1.2-1.3-2.8-1-4.8l6-37.9c.3-1.9,1-3.2,2.1-4.1s2.5-1.4,4.4-1.4,3.4.6,4.3,1.8c.9,1.1,1.2,2.7.9,4.8l-5.2,33.5h16.9c1.7,0,3,.3,3.9,1s1.4,1.6,1.4,2.9c0,1.9-.5,3.3-1.6,4.4-1,1-2.5,1.5-4.3,1.5h-23.2,0Z"/>
  <path class="cls-3" d="M119.93,92.72c.7,1.4,1,2.8.7,3.9-.3,1.2-.9,2.1-1.8,2.7-.9.7-1.9,1.1-3.1,1.2-1.2.1-2.3,0-3.4-.7-1.1-.6-1.9-1.5-2.6-2.9l-3.3-7.1c-.6-1.2-1.3-2.1-2.2-2.6s-2.3-.7-4.2-.7l9.3-3.4c2.1,0,3.7.4,5,1.2,1.4.7,2.4,2,3.3,3.7l2.1,4.6.2.1ZM101.23,86.62c-4.6,0-8.7-.9-12.1-2.6-3.4-1.7-6.1-4.2-8-7.5s-2.9-7.3-2.9-11.9.6-8.1,1.9-11.7c1.3-3.5,3.1-6.6,5.4-9.2s5.1-4.5,8.4-5.9,6.9-2.1,10.9-2.1,8.7.9,12.1,2.6c3.5,1.7,6.1,4.2,8,7.6,1.9,3.3,2.9,7.2,2.9,11.8s-.6,8.1-1.9,11.7c-1.3,3.5-3.1,6.6-5.4,9.2-2.3,2.6-5.1,4.6-8.4,5.9-3.2,1.4-6.9,2.1-10.9,2.1h0ZM101.53,76.62c2.9,0,5.5-.8,7.6-2.4s3.7-3.8,4.8-6.6c1.1-2.8,1.7-6.1,1.7-9.7s-1-7.2-2.9-9.2-4.6-3-7.9-3-5.5.8-7.6,2.4-3.7,3.8-4.8,6.6c-1.1,2.8-1.6,6-1.6,9.7s1,7.2,2.9,9.2c2,2,4.6,3,7.9,3h-.1ZM149.23,86.52c-1.6,0-2.8-.4-3.8-1.3-.9-.9-1.5-2.2-1.9-4l-7.6-38.2c-.4-2.1-.1-3.8.8-5.1,1-1.3,2.5-2,4.5-2s2.8.5,3.8,1.4c.9.9,1.5,2.2,1.8,4l5.7,32.1h-3.1l17.1-33.1c.7-1.5,1.6-2.6,2.6-3.3,1-.7,2.2-1,3.6-1s2.6.4,3.4,1.3c.8.9,1.4,2.3,1.8,4.1l5.7,32h-2.8l16.6-33.1c.7-1.4,1.6-2.5,2.5-3.2s2.2-1.1,3.7-1.1c2.2,0,3.8.7,4.5,2.2.8,1.4.7,3.2-.4,5.4l-20,38.7c-.7,1.5-1.7,2.6-2.7,3.3-1.1.7-2.4,1-4.1,1s-2.8-.4-3.7-1.3c-.9-.9-1.5-2.2-1.9-4l-5.7-28.8h1.8l-15.5,29.7c-.8,1.5-1.7,2.6-2.8,3.3-1,.7-2.4,1.1-4.1,1.1l.2-.1ZM216.13,85.92c-2.2,0-3.8-.6-4.8-1.7-1-1.2-1.3-2.8-1-5l5.8-37c.3-1.9,1.1-3.3,2.2-4.2,1.1-1,2.6-1.5,4.6-1.5h23.7c1.6,0,2.8.3,3.6,1,.8.7,1.3,1.6,1.3,2.8s-.5,3-1.5,4-2.3,1.5-3.9,1.5h-19l-1.7,10.4h16.6c1.5,0,2.7.3,3.6,1,.8.7,1.3,1.6,1.3,2.8s-.5,3-1.5,4-2.3,1.5-3.9,1.5h-17.4l-1.8,11.2h18.1c1.6,0,2.8.3,3.6,1,.8.7,1.3,1.6,1.3,2.8s-.5,3-1.5,4-2.3,1.5-3.9,1.5h-23.5l-.3-.1ZM258.63,85.92c-2.1,0-3.6-.6-4.6-1.7-1-1.2-1.3-2.8-1-4.8l6-37.9c.3-1.9,1-3.2,2.1-4.1s2.5-1.4,4.4-1.4,3.4.6,4.3,1.8c.9,1.1,1.2,2.7.9,4.8l-5.2,33.5h16.9c1.7,0,3,.3,3.9,1s1.4,1.6,1.4,2.9c0,1.9-.5,3.3-1.6,4.4-1,1-2.5,1.5-4.3,1.5h-23.2,0ZM299.23,85.92c-2.1,0-3.6-.6-4.6-1.7-1-1.2-1.3-2.8-1-4.8l6-37.9c.3-1.9,1-3.2,2.1-4.1s2.5-1.4,4.4-1.4,3.4.6,4.3,1.8c.9,1.1,1.2,2.7.9,4.8l-5.2,33.5h16.9c1.7,0,3,.3,3.9,1s1.4,1.6,1.4,2.9c0,1.9-.5,3.3-1.6,4.4-1,1-2.5,1.5-4.3,1.5h-23.2,0Z"/>
  <path class="cls-3" d="M7.64,72.22s-2-1.7.2-2.2c.9.3-.2,2.2-.2,2.2Z"/>
</svg>