<?xml version="1.0" encoding="UTF-8"?>
<svg id="Layer_1" data-name="Layer 1" xmlns="http://www.w3.org/2000/svg" viewBox="0 0 70.5 70.5">
  <defs>
    <style>
      .cls-1 {
        fill: #1a1d1a;
      }

      .cls-1, .cls-2 {
        stroke-width: 0px;
      }

      .cls-2 {
        fill: #74b4c6;
      }
    </style>
  </defs>
  <path class="cls-2" d="M39.66,0h-8.81C13.81,0,0,13.81,0,30.84v8.81c0,17.03,13.81,30.84,30.84,30.84h8.81c17.03,0,30.84-13.81,30.84-30.84v-8.81C70.5,13.81,56.69,0,39.66,0Z"/>
  <path class="cls-1" d="M34.22,13.95s3.91,2.73,4.91,8.14c0,0,5.85-8.58,12.16-7.64,6.32.94,8.81,2.11,8.81,2.11,0,0-3,2.79-4.85,4.2s-8.46,3.14-13.34,1.44c0,0-1.76-.41-1.97.21,0,0,19.45,8.37,6.61,19.18-.47.88-3.32,18.54-17.24,17.21,0,0,.68,1.09-.88,2.09,0,0-.68.21-.76-2,0,0-13.51-4.93-7.46-23.53,0,0-8.72-11.25,11.87-14.22,0,0-1.88-2.76-2.94-3.2-1.06-.44,4.67-4.82,5.08-4.02v.03Z"/>
</svg>