<?xml version="1.0" encoding="UTF-8"?>
<svg id="Layer_1" data-name="Layer 1" xmlns="http://www.w3.org/2000/svg" viewBox="0 0 333.23 117.95">
  <defs>
    <style>
      .cls-1 {
        fill: #858585;
      }

      .cls-1, .cls-2, .cls-3, .cls-4, .cls-5, .cls-6, .cls-7, .cls-8, .cls-9, .cls-10, .cls-11 {
        stroke-width: 0px;
      }

      .cls-12 {
        stroke-width: 2.2px;
      }

      .cls-12, .cls-13, .cls-14 {
        fill: none;
        stroke: #633311;
        stroke-miterlimit: 10;
      }

      .cls-2 {
        fill: #633311;
      }

      .cls-3 {
        fill: #191919;
      }

      .cls-4 {
        fill: #404040;
      }

      .cls-5 {
        fill: #000;
      }

      .cls-6 {
        fill: #878787;
      }

      .cls-13 {
        stroke-linecap: round;
        stroke-width: 1.7px;
      }

      .cls-14 {
        stroke-width: 1.8px;
      }

      .cls-7 {
        fill: #5e5e5e;
      }

      .cls-8 {
        fill: #fab380;
      }

      .cls-9 {
        fill: #944d1a;
      }

      .cls-10 {
        fill: #ccc;
      }

      .cls-11 {
        fill: #fff;
      }
    </style>
  </defs>
  <path class="cls-6" d="M41.73,112.26c29.6-5.3,48.8-33.7,11.6-61.9-13.2-12.7,15.9-20.6,11.1,1.7-.3,3.2.7,3.2,1.5,1.9C117.23-22.14-30.07-17.44,39.43,66.16c0,0,14.7,18.7,4.5,31.7s-11.9,12.5-2.4,14.4h.2Z"/>
  <path class="cls-3" d="M43.93,98.06c-10,12.8-11.7,12.3-2.2,14.2,20-3.6,35.4-12,31.6-35.3,0,0-.1-.2-.2-.3-.9,20.6-18.4,28.4-24.9,25.9,0,0-3.9-2.2-4.3-4.5Z"/>
  <path class="cls-10" d="M52.03,2.96c-4.2-.6-8.4-.3-12.3,1.2-5.5,2.2-9.4,6.8-11.7,12.3,0,.2.2.3.2.5,3.9-8,12.5-11.5,20.8-11.6,4.4,0,9.1.6,13.5,2.3-2.3-3.2-7.1-4.2-10.6-4.6h0l.1-.1Z"/>
  <path class="cls-3" d="M67.33,39.06c0-.1,0-.2-.1-.3,0-.1-.1-.2-.2-.4-.2-.3-.3-.7-.5-1-.4-.7-.9-1.5-1.4-2.2-.1-.2-.3-.3-.4-.5-.22-.22-.39-.44-.58-.66-.14-.16-.31-.31-.48-.43-6.24-4.6-9.58-3.7-13.66-.74-1.55,1.55-3.19,2.35-3.56,6.51-.09.95-.13,1.36.13,1.99.7,1.71,1.54,3.34,2.52,4.91.09.15.19.29.3.42,2.58,3.11,6.01,5.75,9.43,8.1h0c-1.65-1.46-3.4-2.91-5.33-4.37-.11-.08-.23-.18-.33-.28-12.82-12.61,16.04-20.36,11.25,1.85-.3,3.2.7,3.2,1.5,1.9.48-.73.97-1.45,1.45-2.18.23-.35.39-.73.48-1.14.34-1.71.59-3.5.67-5.28,0-.8,0-1.5-.1-2.3v-.5c0-.3-.2-.7-.3-1-.2-.8-.5-1.6-.8-2.4h0Z"/>
  <path class="cls-2" d="M43.63,100.26c-.2.3-.4.6-.6.9.2,0,.3.1.5.2v-1.1h.1Z"/>
  <path class="cls-14" d="M11.53,73.96c1.7,0,3.1-1.6,3-3.4,0-1.9-1.4-3.4-3.1-3.4s-3.1,1.6-3,3.4c0,1.9,1.4,3.4,3.1,3.4Z"/>
  <path class="cls-14" d="M11.33,73.66c1.7,0,3.1-1.6,3-3.4,0-1.9-1.4-3.4-3.1-3.4s-3.1,1.6-3,3.4c0,1.9,1.4,3.4,3.1,3.4Z"/>
  <path class="cls-5" d="M25.23,62.16s-12.9-5.1-16.7,9.1c-1.2,1-.2,6.5,6.6,7.6,6.8,1.2-11.4,7.6-13,10.3-1.6,2.7,11.9,3.1,11.9,3.1,0,0,.6,8.2-1.8,10.7-.4,5.5,9.7,11.1,9.7,11.1,0,0-3.1-3.7-12.3,1.9-4.2,4.5,16.5.2,21.8-1.4,7.6-1.9,24.7-21.9.6-37.3s-5.41-3.57-5.21-6.27,1.57-4.12,2.37-6.32c3.2-8.7-3.16-6.71-4.06-2.41l.1-.1Z"/>
  <path class="cls-2" d="M27.23,61.06h-.1c-.8.5-1.6,1.7-1.7,2.8.1,0,.2,0,.4.1h.1c.8,0,1.2-1,1.4-1.8v-1.2h0l-.1.1Z"/>
  <path class="cls-2" d="M29.23,80.06c.2.8,1.1,1.4,1.7,1.8,1,.8,2.1,1.5,3.2,2.3,2.3,1.9,4.2,4.7,5.7,7.2,1.6,2.7,2.4,5.5,2.8,8.6,0,.5.1,1,.1,1.5.3-2.5.2-5.1-.4-7.6-.7-2.5-1.7-5-3.4-7,0-.1-.2-.2-.2-.3-1.3-1.5-2.6-3-4.1-4.3-.8-.7-1.6-1.4-2.5-2.1-.1,0-.2,0-.4-.1-.7-.4-1.4-.9-2.2-1.1-.3.2-.4.7-.3,1v.1Z"/>
  <path class="cls-2" d="M13.63,72.56c.6,0,1.2-.6,1.2-1.3s-.5-1.2-1.2-1.2c-.6,0-1.2.6-1.2,1.3s.5,1.2,1.2,1.2Z"/>
  <path class="cls-2" d="M13.03,71.06c.2,0,.3-.2.3-.4s-.2-.4-.4-.4-.3.2-.3.4.2.4.4.4Z"/>
  <path class="cls-2" d="M8.23,74.86s-2-1.7.2-2.2c.9.3-.2,2.2-.2,2.2Z"/>
  <path class="cls-12" d="M14.13,74.56c2.1,0,3.7-1.9,3.7-4.1s-1.7-4.1-3.8-4.1-3.7,1.9-3.7,4.1,1.7,4.1,3.8,4.1Z"/>
  <path class="cls-12" d="M13.93,74.26c2.1,0,3.7-1.9,3.7-4.1s-1.7-4.1-3.8-4.1-3.7,1.9-3.7,4.1,1.7,4.1,3.8,4.1Z"/>
  <path class="cls-13" d="M8.43,71.36s.7-.5,1.6,0"/>
  <path class="cls-8" d="M41.63,97.26c-.2.3-.4.6-.6.9.2,0,.3.1.5.2v-1.1h.1Z"/>
  <path class="cls-10" d="M20.03,112.36s-3.1-3.7-12.3,1.9c-4.2,4.5,17.3-.2,22.6-1.2,6.1-1.3,25.2-20.1-1.8-37.7,0,0-4-3.2-.8-11.9,3.2-8.7-3.6-7.2-4.5-2.9,0,0-12.9-5.1-16.7,9.1-1.2,1-.2,6.5,6.6,7.6,6.8,1.2-11.4,7.6-13,10.3-1.6,2.7,11.9,3.1,11.9,3.1"/>
  <path class="cls-5" d="M18.13,113.56c1.7-.4,3.4-1,4.8-2-.5-.2-.9-.4-1.3-.6-2.3-.9-4.4-2.2-6.1-4-.6-.4-1.2-1-1.6-1.6-.3-.4-.7-.8-.9-1.2-.5-.8-.7-1.9-.6-2.9,0-.2,0-.4.1-.6.3-1.1,1.1-2,2.4-1.9-.3-1.3-.4-2.7-.5-4-.1-1.7-.2-3.3-1-4.8-.2-.3-.3-.6-.3-.9-1.7.1-3.4.5-5.1.3-1.2-.1-2.3-.3-3.5-.6-.6-.2-1.3-.4-2-.3-.3,0-1.5.4-1.4.8,3.1,1.3,10.8,1.5,10.8,1.5,0,0,.4,6.3-1,9.5s-.5,3.4.4,4.8c1.8,2.8,5.2,5.3,7.2,6.5-1.7-.6-6.5-.7-10.9,2.7-1.5,1.7.4,2.1,3.7,1.9,1.5-1.9,4.6-2,6.8-2.5v-.1Z"/>
  <path class="cls-8" d="M35.83,108.86c-1.2,1.2-3,2.8-4.9,3.6-.2.2-.5.4-.8.6h0c2.4-.5,7-3.9,9.8-8.9-1.3,1.7-2.7,3.3-4.2,4.8h0l.1-.1Z"/>
  <path class="cls-5" d="M25.23,58.06h-.1c-.8.5-1.6,1.7-1.7,2.8.1,0,.2,0,.4.1h.1c.8,0,1.2-1,1.4-1.8v-1.2h0l-.1.1Z"/>
  <path class="cls-8" d="M9.33,74.96c-.2.2-.5.3-.7.5.4.3.9.6,1.5.9-.3-.4-.5-.9-.8-1.4h0Z"/>
  <path class="cls-8" d="M27.23,77.06c.2.8,1.1,1.4,1.7,1.8,1,.8,2.1,1.5,3.2,2.3,2.3,1.9,4.2,4.7,5.7,7.2,1.6,2.7,2.4,5.5,2.8,8.6,0,.5.1,1,.1,1.5.3-2.5.2-5.1-.4-7.6-.7-2.5-1.7-5-3.4-7,0-.1-.2-.2-.2-.3-1.3-1.5-2.6-3-4.1-4.3-.8-.7-1.6-1.4-2.5-2.1-.1,0-.2,0-.4-.1-.7-.4-1.4-.9-2.2-1.1-.3.2-.4.7-.3,1v.1Z"/>
  <path class="cls-8" d="M11.63,69.56c.6,0,1.2-.6,1.2-1.3s-.5-1.2-1.2-1.2c-.6,0-1.2.6-1.2,1.3s.5,1.2,1.2,1.2Z"/>
  <path class="cls-8" d="M11.03,68.06c.2,0,.3-.2.3-.4s-.2-.4-.4-.4-.3.2-.3.4.2.4.4.4Z"/>
  <path class="cls-8" d="M9.83,76.06s1.6,1.5,2.1-2.3c0-3.5-2.8,1-3.5.8s.2,1,1.4,1.5Z"/>
  <path class="cls-9" d="M42.63,98.26c-.2.3-.4.6-.6.9.2,0,.3.1.5.2v-1.1h.1Z"/>
  <path class="cls-1" d="M24.13,61.46s-12.9-5.1-16.7,9.1c-1.2,1-.2,6.5,6.6,7.6,6.8,1.2-11.4,7.6-13,10.3-1.6,2.7,11.9,3.1,11.9,3.1,0,0,.5,6.84-1.24,9.93-.53.94-.56,2.09-.16,3.09,1.85,4.65,9.3,8.78,9.3,8.78,0,0-3.1-3.7-12.3,1.9-4.2,4.5,17.3-.2,22.6-1.2,6.1-1.3,25.2-20.1-1.8-37.7,0,0-4-3.2-.8-11.9,3.2-8.7-3.6-7.2-4.5-2.9l.1-.1Z"/>
  <path class="cls-4" d="M19.13,114.56c1.7-.4,3.4-1,4.8-2-.5-.2-.9-.4-1.3-.6-2.3-.9-4.4-2.2-6.1-4-1.2-.95-4.7-3.39-3.02-7.13.49-1.1,1.09-4.04.99-5.04-.1-1.7-.2-3.3-1-4.8-.2-.3.63-.73.63-1.03-1.7.1-3.4.5-5.1.3-1.2-.1-2.3-.3-3.5-.6-.6-.2-1.3-.4-2-.3-.3,0-1.5.4-1.4.8,2.4,1,7.5,1.7,9.7,1.5,1.1-.1,1.1.5,1.2,1.2,0,2.2-1.45,7.88-1.7,8.7-1.11,3.6,2.6,6.6,5,8.6s.5,2-.6,2.2c-1.8.3-5.8,1.3-7.1,2.9-1.5,1.6.3,3.2,3.6,1.8s4.8-2,6.9-2.5h0Z"/>
  <path class="cls-7" d="M36.83,109.86c-1.2,1.2-3,2.8-4.9,3.6-.2.2-.5.4-.8.6h0c2.4-.5,7-3.9,9.8-8.9-1.3,1.7-2.7,3.3-4.2,4.8h0l.1-.1Z"/>
  <path class="cls-5" d="M26.23,59.06h-.1c-.8.5-1.6,1.7-1.7,2.8.1,0,.2,0,.4.1h.1c.8,0,1.2-1,1.4-1.8v-1.2h0l-.1.1Z"/>
  <path class="cls-10" d="M28.23,78.06c.2.8,1.1,1.4,1.7,1.8,1,.8,2.1,1.5,3.2,2.3,2.3,1.9,4.2,4.7,5.7,7.2,1.6,2.7,2.4,5.5,2.8,8.6,0,.5.1,1,.1,1.5.3-2.5.2-5.1-.4-7.6-.7-2.5-1.7-5-3.4-7,0-.1-.2-.2-.2-.3-1.3-1.5-2.6-3-4.1-4.3-.8-.7-1.6-1.4-2.5-2.1-.1,0-.2,0-.4-.1-.7-.4-1.4-.9-2.2-1.1-.3.2-.4.7-.3,1v.1Z"/>
  <path class="cls-5" d="M12.63,70.56c.6,0,1.2-.6,1.2-1.3s-.5-1.2-1.2-1.2c-.6,0-1.2.6-1.2,1.3s.5,1.2,1.2,1.2Z"/>
  <path class="cls-11" d="M12.03,69.06c.2,0,.3-.2.3-.4s-.2-.4-.4-.4-.3.2-.3.4.2.4.4.4Z"/>
  <path class="cls-5" d="M7.23,72.86s-2-1.7.2-2.2c.9.3-.2,2.2-.2,2.2Z"/>
  <path class="cls-3" d="M124.93,98.76c.7,1.4,1,2.8.7,3.9-.3,1.2-.9,2.1-1.8,2.7-.9.7-1.9,1.1-3.1,1.2-1.2.1-2.3,0-3.4-.7-1.1-.6-1.9-1.5-2.6-2.9l-3.3-7.1c-.6-1.2-1.3-2.1-2.2-2.6s-2.3-.7-4.2-.7l9.3-3.4c2.1,0,3.7.4,5,1.2,1.4.7,2.4,2,3.3,3.7l2.1,4.6.2.1ZM106.23,92.66c-4.6,0-8.7-.9-12.1-2.6s-6.1-4.2-8-7.5-2.9-7.3-2.9-11.9.6-8.1,1.9-11.7c1.3-3.5,3.1-6.6,5.4-9.2s5.1-4.5,8.4-5.9c3.3-1.4,6.9-2.1,10.9-2.1s8.7.9,12.1,2.6c3.5,1.7,6.1,4.2,8,7.6,1.9,3.3,2.9,7.2,2.9,11.8s-.6,8.1-1.9,11.7c-1.3,3.5-3.1,6.6-5.4,9.2-2.3,2.6-5.1,4.6-8.4,5.9-3.2,1.4-6.9,2.1-10.9,2.1h0ZM106.43,82.66c2.9,0,5.5-.8,7.6-2.4s3.7-3.8,4.8-6.6c1.1-2.8,1.7-6.1,1.7-9.7s-1-7.2-2.9-9.2-4.6-3-7.9-3-5.5.8-7.6,2.4-3.7,3.8-4.8,6.6c-1.1,2.8-1.6,6-1.6,9.7s1,7.2,2.9,9.2c2,2,4.6,3,7.9,3h-.1ZM154.13,92.56c-1.6,0-2.8-.4-3.8-1.3-.9-.9-1.5-2.2-1.9-4l-7.6-38.2c-.4-2.1-.1-3.8.8-5.1,1-1.3,2.5-2,4.5-2s2.8.5,3.8,1.4c.9.9,1.5,2.2,1.8,4l5.7,32.1h-3.1l17.1-33.1c.7-1.5,1.6-2.6,2.6-3.3,1-.7,2.2-1,3.6-1s2.6.4,3.4,1.3c.8.9,1.4,2.3,1.8,4.1l5.7,32h-2.8l16.6-33.1c.7-1.4,1.6-2.5,2.5-3.2s2.2-1.1,3.7-1.1c2.2,0,3.8.7,4.5,2.2.8,1.4.7,3.2-.4,5.4l-20,38.7c-.7,1.5-1.7,2.6-2.7,3.3-1.1.7-2.4,1-4.1,1s-2.8-.4-3.7-1.3-1.5-2.2-1.9-4l-5.7-28.8h1.8l-15.5,29.8c-.8,1.5-1.7,2.6-2.8,3.3-1,.7-2.4,1.1-4.1,1.1l.2-.2ZM221.03,91.86c-2.2,0-3.8-.6-4.8-1.7-1-1.2-1.3-2.8-1-5l5.8-37c.3-1.9,1.1-3.3,2.2-4.2,1.1-1,2.6-1.5,4.6-1.5h23.7c1.6,0,2.8.3,3.6,1,.8.7,1.3,1.6,1.3,2.8s-.5,3-1.5,4-2.3,1.5-3.9,1.5h-19l-1.7,10.4h16.6c1.5,0,2.7.3,3.6,1,.8.7,1.3,1.6,1.3,2.8s-.5,3-1.5,4-2.3,1.5-3.9,1.5h-17.4l-1.8,11.2h18.1c1.6,0,2.8.3,3.6,1,.8.7,1.3,1.6,1.3,2.8s-.5,3-1.5,4-2.3,1.5-3.9,1.5h-23.5l-.3-.1ZM263.63,91.86c-2.1,0-3.6-.6-4.6-1.7-1-1.2-1.3-2.8-1-4.8l6-37.9c.3-1.9,1-3.2,2.1-4.1s2.5-1.4,4.4-1.4,3.4.6,4.3,1.8c.9,1.1,1.2,2.7.9,4.8l-5.2,33.5h16.9c1.7,0,3,.3,3.9,1s1.4,1.6,1.4,2.9c0,1.9-.5,3.3-1.6,4.4-1,1-2.5,1.5-4.3,1.5h-23.2,0ZM304.13,91.86c-2.1,0-3.6-.6-4.6-1.7-1-1.2-1.3-2.8-1-4.8l6-37.9c.3-1.9,1-3.2,2.1-4.1s2.5-1.4,4.4-1.4,3.4.6,4.3,1.8c.9,1.1,1.2,2.7.9,4.8l-5.2,33.5h16.9c1.7,0,3,.3,3.9,1s1.4,1.6,1.4,2.9c0,1.9-.5,3.3-1.6,4.4-1,1-2.5,1.5-4.3,1.5h-23.2,0Z"/>
  <path class="cls-10" d="M122.93,94.76c.7,1.4,1,2.8.7,3.9-.3,1.2-.9,2.1-1.8,2.7-.9.7-1.9,1.1-3.1,1.2-1.2.1-2.3,0-3.4-.7-1.1-.6-1.9-1.5-2.6-2.9l-3.3-7.1c-.6-1.2-1.3-2.1-2.2-2.6s-2.3-.7-4.2-.7l9.3-3.4c2.1,0,3.7.4,5,1.2,1.4.7,2.4,2,3.3,3.7l2.1,4.6.2.1ZM104.23,88.66c-4.6,0-8.7-.9-12.1-2.6s-6.1-4.2-8-7.5-2.9-7.3-2.9-11.9.6-8.1,1.9-11.7c1.3-3.5,3.1-6.6,5.4-9.2s5.1-4.5,8.4-5.9c3.3-1.4,6.9-2.1,10.9-2.1s8.7.9,12.1,2.6c3.5,1.7,6.1,4.2,8,7.6,1.9,3.3,2.9,7.2,2.9,11.8s-.6,8.1-1.9,11.7c-1.3,3.5-3.1,6.6-5.4,9.2-2.3,2.6-5.1,4.6-8.4,5.9-3.2,1.4-6.9,2.1-10.9,2.1h0ZM104.43,78.66c2.9,0,5.5-.8,7.6-2.4s3.7-3.8,4.8-6.6c1.1-2.8,1.7-6.1,1.7-9.7s-1-7.2-2.9-9.2-4.6-3-7.9-3-5.5.8-7.6,2.4-3.7,3.8-4.8,6.6c-1.1,2.8-1.6,6-1.6,9.7s1,7.2,2.9,9.2c2,2,4.6,3,7.9,3h-.1ZM152.13,88.56c-1.6,0-2.8-.4-3.8-1.3-.9-.9-1.5-2.2-1.9-4l-7.6-38.2c-.4-2.1-.1-3.8.8-5.1,1-1.3,2.5-2,4.5-2s2.8.5,3.8,1.4c.9.9,1.5,2.2,1.8,4l5.7,32.1h-3.1l17.1-33.1c.7-1.5,1.6-2.6,2.6-3.3,1-.7,2.2-1,3.6-1s2.6.4,3.4,1.3c.8.9,1.4,2.3,1.8,4.1l5.7,32h-2.8l16.6-33.1c.7-1.4,1.6-2.5,2.5-3.2s2.2-1.1,3.7-1.1c2.2,0,3.8.7,4.5,2.2.8,1.4.7,3.2-.4,5.4l-20,38.7c-.7,1.5-1.7,2.6-2.7,3.3-1.1.7-2.4,1-4.1,1s-2.8-.4-3.7-1.3-1.5-2.2-1.9-4l-5.7-28.8h1.8l-15.5,29.8c-.8,1.5-1.7,2.6-2.8,3.3-1,.7-2.4,1.1-4.1,1.1l.2-.2ZM219.03,87.86c-2.2,0-3.8-.6-4.8-1.7-1-1.2-1.3-2.8-1-5l5.8-37c.3-1.9,1.1-3.3,2.2-4.2,1.1-1,2.6-1.5,4.6-1.5h23.7c1.6,0,2.8.3,3.6,1,.8.7,1.3,1.6,1.3,2.8s-.5,3-1.5,4-2.3,1.5-3.9,1.5h-19l-1.7,10.4h16.6c1.5,0,2.7.3,3.6,1,.8.7,1.3,1.6,1.3,2.8s-.5,3-1.5,4-2.3,1.5-3.9,1.5h-17.4l-1.8,11.2h18.1c1.6,0,2.8.3,3.6,1,.8.7,1.3,1.6,1.3,2.8s-.5,3-1.5,4-2.3,1.5-3.9,1.5h-23.5l-.3-.1ZM261.63,87.86c-2.1,0-3.6-.6-4.6-1.7-1-1.2-1.3-2.8-1-4.8l6-37.9c.3-1.9,1-3.2,2.1-4.1s2.5-1.4,4.4-1.4,3.4.6,4.3,1.8c.9,1.1,1.2,2.7.9,4.8l-5.2,33.5h16.9c1.7,0,3,.3,3.9,1s1.4,1.6,1.4,2.9c0,1.9-.5,3.3-1.6,4.4-1,1-2.5,1.5-4.3,1.5h-23.2,0ZM302.13,87.86c-2.1,0-3.6-.6-4.6-1.7-1-1.2-1.3-2.8-1-4.8l6-37.9c.3-1.9,1-3.2,2.1-4.1s2.5-1.4,4.4-1.4,3.4.6,4.3,1.8c.9,1.1,1.2,2.7.9,4.8l-5.2,33.5h16.9c1.7,0,3,.3,3.9,1s1.4,1.6,1.4,2.9c0,1.9-.5,3.3-1.6,4.4-1,1-2.5,1.5-4.3,1.5h-23.2,0Z"/>
  <path class="cls-6" d="M119.93,92.76c.7,1.4,1,2.8.7,3.9-.3,1.2-.9,2.1-1.8,2.7-.9.7-1.9,1.1-3.1,1.2-1.2.1-2.3,0-3.4-.7-1.1-.6-1.9-1.5-2.6-2.9l-3.3-7.1c-.6-1.2-1.3-2.1-2.2-2.6s-2.3-.7-4.2-.7l9.3-3.4c2.1,0,3.7.4,5,1.2,1.4.7,2.4,2,3.3,3.7l2.1,4.6.2.1ZM101.23,86.66c-4.6,0-8.7-.9-12.1-2.6s-6.1-4.2-8-7.5-2.9-7.3-2.9-11.9.6-8.1,1.9-11.7c1.3-3.5,3.1-6.6,5.4-9.2s5.1-4.5,8.4-5.9c3.3-1.4,6.9-2.1,10.9-2.1s8.7.9,12.1,2.6c3.5,1.7,6.1,4.2,8,7.6,1.9,3.3,2.9,7.2,2.9,11.8s-.6,8.1-1.9,11.7c-1.3,3.5-3.1,6.6-5.4,9.2-2.3,2.6-5.1,4.6-8.4,5.9-3.2,1.4-6.9,2.1-10.9,2.1h0ZM101.43,76.66c2.9,0,5.5-.8,7.6-2.4s3.7-3.8,4.8-6.6c1.1-2.8,1.7-6.1,1.7-9.7s-1-7.2-2.9-9.2-4.6-3-7.9-3-5.5.8-7.6,2.4c-2.1,1.6-3.7,3.8-4.8,6.6-1.1,2.8-1.6,6-1.6,9.7s1,7.2,2.9,9.2c2,2,4.6,3,7.9,3h-.1ZM149.13,86.56c-1.6,0-2.8-.4-3.8-1.3-.9-.9-1.5-2.2-1.9-4l-7.6-38.2c-.4-2.1-.1-3.8.8-5.1,1-1.3,2.5-2,4.5-2s2.8.5,3.8,1.4c.9.9,1.5,2.2,1.8,4l5.7,32.1h-3.1l17.1-33.1c.7-1.5,1.6-2.6,2.6-3.3,1-.7,2.2-1,3.6-1s2.6.4,3.4,1.3c.8.9,1.4,2.3,1.8,4.1l5.7,32h-2.8l16.6-33.1c.7-1.4,1.6-2.5,2.5-3.2s2.2-1.1,3.7-1.1c2.2,0,3.8.7,4.5,2.2.8,1.4.7,3.2-.4,5.4l-20,38.7c-.7,1.5-1.7,2.6-2.7,3.3-1.1.7-2.4,1-4.1,1s-2.8-.4-3.7-1.3-1.5-2.2-1.9-4l-5.7-28.8h1.8l-15.5,29.7c-.8,1.5-1.7,2.6-2.8,3.3-1,.7-2.4,1.1-4.1,1.1l.2-.1ZM216.03,85.86c-2.2,0-3.8-.6-4.8-1.7-1-1.2-1.3-2.8-1-5l5.8-37c.3-1.9,1.1-3.3,2.2-4.2,1.1-1,2.6-1.5,4.6-1.5h23.7c1.6,0,2.8.3,3.6,1,.8.7,1.3,1.6,1.3,2.8s-.5,3-1.5,4-2.3,1.5-3.9,1.5h-19l-1.7,10.4h16.6c1.5,0,2.7.3,3.6,1,.8.7,1.3,1.6,1.3,2.8s-.5,3-1.5,4-2.3,1.5-3.9,1.5h-17.4l-1.8,11.2h18.1c1.6,0,2.8.3,3.6,1,.8.7,1.3,1.6,1.3,2.8s-.5,3-1.5,4-2.3,1.5-3.9,1.5h-23.5l-.3-.1ZM258.63,85.86c-2.1,0-3.6-.6-4.6-1.7-1-1.2-1.3-2.8-1-4.8l6-37.9c.3-1.9,1-3.2,2.1-4.1s2.5-1.4,4.4-1.4,3.4.6,4.3,1.8c.9,1.1,1.2,2.7.9,4.8l-5.2,33.5h16.9c1.7,0,3,.3,3.9,1s1.4,1.6,1.4,2.9c0,1.9-.5,3.3-1.6,4.4-1,1-2.5,1.5-4.3,1.5h-23.2,0ZM299.13,85.86c-2.1,0-3.6-.6-4.6-1.7-1-1.2-1.3-2.8-1-4.8l6-37.9c.3-1.9,1-3.2,2.1-4.1s2.5-1.4,4.4-1.4,3.4.6,4.3,1.8c.9,1.1,1.2,2.7.9,4.8l-5.2,33.5h16.9c1.7,0,3,.3,3.9,1s1.4,1.6,1.4,2.9c0,1.9-.5,3.3-1.6,4.4-1,1-2.5,1.5-4.3,1.5h-23.2,0Z"/>
</svg>