<svg width="333" height="35" viewBox="0 0 333 35" fill="none" xmlns="http://www.w3.org/2000/svg">
<path d="M251.75 10.75V5.75L256.75 8.25L251.75 10.75ZM270.5 10.75V5.75L275.5 8.25L270.5 10.75ZM261.75 9.5V4.5L266.75 7L261.75 9.5ZM261.75 29.5C260.167 29.4583 258.693 29.3283 257.329 29.11C255.965 28.8917 254.777 28.6154 253.766 28.2812C252.755 27.9479 251.958 27.5625 251.375 27.125C250.792 26.6875 250.5 26.2292 250.5 25.75V14.5C250.5 13.9792 250.828 13.495 251.485 13.0475C252.142 12.6 253.032 12.2042 254.156 11.86C255.281 11.5158 256.604 11.245 258.125 11.0475C259.646 10.85 261.271 10.7508 263 10.75C264.729 10.75 266.354 10.8492 267.875 11.0475C269.396 11.2458 270.719 11.5167 271.844 11.86C272.969 12.2033 273.86 12.5992 274.516 13.0475C275.173 13.4958 275.501 13.98 275.5 14.5V25.75C275.5 26.2292 275.208 26.6875 274.625 27.125C274.042 27.5625 273.245 27.9479 272.235 28.2812C271.224 28.6146 270.037 28.8908 268.673 29.11C267.308 29.3292 265.834 29.4592 264.25 29.5V24.5H261.75V29.5ZM263 15.75C265.021 15.75 266.766 15.63 268.235 15.39C269.704 15.15 270.876 14.8742 271.75 14.5625C271.75 14.4583 270.958 14.2138 269.375 13.8288C267.792 13.4438 265.667 13.2508 263 13.25C260.333 13.25 258.208 13.4429 256.625 13.8288C255.042 14.2146 254.25 14.4592 254.25 14.5625C255.125 14.875 256.297 15.1513 257.766 15.3913C259.235 15.6313 260.98 15.7508 263 15.75ZM259.25 26.8125V22H266.75V26.8125C268.417 26.6458 269.781 26.4013 270.844 26.0788C271.906 25.7563 272.625 25.4696 273 25.2188V16.75C271.854 17.2083 270.417 17.5729 268.687 17.8438C266.958 18.1146 265.062 18.25 263 18.25C260.938 18.25 259.042 18.1146 257.312 17.8438C255.583 17.5729 254.146 17.2083 253 16.75V25.2188C253.375 25.4688 254.094 25.7554 255.156 26.0788C256.219 26.4021 257.583 26.6467 259.25 26.8125Z" fill="#3E655D"/>
<path d="M208.575 30.75H210.65C211.7 30.75 212.563 29.9375 212.688 28.9125L214.75 8.3125H208.5V3.25H206.038V8.3125H199.825L200.2 11.2375C202.337 11.825 204.338 12.8875 205.538 14.0625C207.338 15.8375 208.575 17.675 208.575 20.675V30.75ZM187.25 29.5V28.25H206.038V29.5C206.038 30.175 205.475 30.75 204.75 30.75H188.5C187.812 30.75 187.25 30.175 187.25 29.5ZM206.038 20.75C206.038 10.75 187.25 10.75 187.25 20.75H206.038ZM187.25 23.25H206V25.75H187.25V23.25Z" fill="#3E655D"/>
<g clip-path="url(#clip0_1329_3428)">
<path d="M12 4C10.9392 4 9.92174 4.42143 9.17159 5.17157C8.42144 5.92172 8.00002 6.93913 8.00002 8V15C8.00002 15.2652 8.10537 15.5196 8.29291 15.7071C8.48045 15.8946 8.7348 16 9.00002 16H13C13.2652 16 13.5196 15.8946 13.7071 15.7071C13.8947 15.5196 14 15.2652 14 15V11C14 10.7348 14.1054 10.4804 14.2929 10.2929C14.4804 10.1054 14.7348 10 15 10H28V4H12ZM14 32H8.00002C7.77841 31.9976 7.56387 31.9217 7.3901 31.7841C7.21634 31.6465 7.09319 31.4552 7.04002 31.24L4.00002 19.24C3.96831 19.1125 3.96204 18.98 3.98157 18.85C4.0011 18.7201 4.04604 18.5953 4.11384 18.4827C4.18164 18.3702 4.27095 18.2721 4.37668 18.194C4.48241 18.116 4.60247 18.0596 4.73002 18.028C4.81854 18.0077 4.90921 17.9983 5.00002 18H17C17.2649 17.9925 17.522 18.0904 17.7147 18.2723C17.9075 18.4541 18.0202 18.7051 18.028 18.97C18.0318 19.0609 18.0224 19.1518 18 19.24L15 31.24C14.9453 31.4619 14.8162 31.6583 14.6342 31.7966C14.4523 31.9349 14.2285 32.0067 14 32ZM7.30002 24H14.72L15.72 20H6.28002L7.30002 24Z" fill="#3E655D"/>
</g>
<path d="M81.5375 21.3125C81.0875 20.625 80.725 19.9875 80.3875 19.4C78.925 16.8875 77.7375 15.1875 74.25 14.6625V8.875C74.25 6.4625 72.2875 4.5 69.875 4.5C67.4625 4.5 65.5 6.4625 65.5 8.875V29.5H68V27H71.75V29.5H74.25V17.2C76.45 17.625 77.1125 18.7375 78.2125 20.65C78.575 21.2875 78.975 21.9625 79.4625 22.7C82.2625 26.9 85.0875 29.5 90.5 29.5V27C86.1625 27 84 25 81.5375 21.3125ZM69.875 7C70.9125 7 71.75 7.8375 71.75 8.875V14.5H68V8.875C68 7.8375 68.8375 7 69.875 7ZM68 24.5V22H71.75V24.5H68ZM71.75 19.5H68V17H71.75V19.5Z" fill="#3E655D"/>
<path d="M129 8.75H149V13.125H146.5L146.775 16.0417H152.75V18.9583H147.05L147.75 26.25H144.625L143.925 18.9583H134.075L133.375 26.25H130.25L130.95 18.9583H125.25V16.0417H131.225L131.5 13.125H129M143.375 13.125H134.625L134.362 16.0417H143.638L143.375 13.125Z" fill="#3E655D"/>
<path d="M332.938 29.2513L332.947 29.2462L330.353 24.2569H331.374V24.2518C331.587 24.2518 331.759 24.0604 331.759 23.8239C331.759 23.7507 331.738 23.6851 331.71 23.625L331.716 23.6206L329.318 19.0063H329.901V19.0027C329.974 19.0027 330.044 18.9706 330.096 18.9133C330.147 18.8561 330.177 18.7784 330.177 18.6974C330.176 18.6476 330.163 18.5988 330.141 18.5555L330.146 18.5523L326.656 11.8381L326.653 11.8405C326.615 11.7517 326.555 11.6767 326.48 11.6239C326.405 11.5712 326.319 11.5429 326.23 11.5423C326.044 11.5423 325.886 11.6653 325.809 11.8397L325.807 11.8385L322.317 18.5523L322.318 18.5527C322.295 18.5966 322.282 18.6464 322.281 18.6974C322.281 18.8659 322.404 19.0027 322.556 19.0027V19.0063H323.147L320.749 23.6206L320.75 23.621C320.717 23.6826 320.699 23.7524 320.698 23.8239C320.698 24.0604 320.87 24.2518 321.083 24.2518V24.2569H322.113L321.366 25.6955L318.376 19.9427H319.816V19.9355C320.117 19.9355 320.36 19.6647 320.36 19.3313C320.36 19.2285 320.335 19.1328 320.294 19.0478L320.299 19.0442L316.915 12.5325H317.738V12.5278C317.789 12.5278 317.84 12.5167 317.887 12.495C317.934 12.4733 317.977 12.4415 318.013 12.4014C318.049 12.3613 318.078 12.3137 318.097 12.2612C318.117 12.2088 318.127 12.1527 318.127 12.096C318.127 12.0224 318.106 11.9564 318.076 11.8959L318.083 11.8915L313.158 2.41798L313.157 2.41917C313.102 2.29385 313.017 2.18807 312.911 2.11394C312.805 2.03981 312.683 2.00032 312.557 2C312.288 2 312.056 2.17874 311.951 2.43498L307.036 11.8915L307.037 11.8923C307.004 11.9542 306.985 12.0244 306.984 12.0964C306.984 12.153 306.994 12.2092 307.013 12.2615C307.033 12.3139 307.061 12.3615 307.097 12.4017C307.133 12.4418 307.176 12.4736 307.223 12.4953C307.27 12.517 307.321 12.5282 307.372 12.5282V12.5329H308.207L304.862 18.9675C304.79 19.0718 304.75 19.1996 304.75 19.3313C304.75 19.6651 304.994 19.9355 305.294 19.9355V19.9427H306.748L303.138 26.8886C303.052 27.0127 303 27.1662 303 27.3346C303 27.7427 303.298 28.0741 303.666 28.0741V28.0824H310.707V31.4159C310.707 31.7382 310.943 32 311.233 32H313.861C314.151 32 314.387 31.7386 314.387 31.4159V28.0824H320.125L319.521 29.2462L319.522 29.247C319.485 29.3217 319.458 29.4035 319.458 29.4953C319.458 29.7848 319.669 30.0192 319.929 30.0192V30.0252H324.919V31.5836C324.919 31.8122 325.086 31.9972 325.291 31.9972H327.154C327.36 31.9972 327.526 31.8122 327.526 31.5836V30.0252H332.528V30.0192C332.789 30.0192 333 29.7848 333 29.4953C332.998 29.4095 332.977 29.3256 332.938 29.2513Z" fill="#3E655D"/>
<defs>
<clipPath id="clip0_1329_3428">
<rect width="30" height="30" fill="white" transform="translate(0 2)"/>
</clipPath>
</defs>
</svg>
