<svg width="333" height="30" viewBox="0 0 333 30" fill="none" xmlns="http://www.w3.org/2000/svg">
<path fill-rule="evenodd" clip-rule="evenodd" d="M139 2.5C145.904 2.5 151.5 8.09625 151.5 15C151.5 21.9037 145.904 27.5 139 27.5C132.096 27.5 126.5 21.9037 126.5 15C126.5 8.09625 132.096 2.5 139 2.5ZM139 5C136.348 5 133.804 6.05357 131.929 7.92893C130.054 9.8043 129 12.3478 129 15C129 17.6522 130.054 20.1957 131.929 22.0711C133.804 23.9464 136.348 25 139 25C141.652 25 144.196 23.9464 146.071 22.0711C147.946 20.1957 149 17.6522 149 15C149 12.3478 147.946 9.8043 146.071 7.92893C144.196 6.05357 141.652 5 139 5ZM140.875 8.75C142.016 8.74835 143.112 9.19223 143.93 9.98705C144.748 10.7819 145.223 11.8648 145.255 13.005C145.286 14.1452 144.871 15.2525 144.097 16.091C143.324 16.9295 142.254 17.4328 141.115 17.4937L140.875 17.5H137.75V20C137.75 20.3186 137.628 20.625 137.409 20.8567C137.19 21.0884 136.891 21.2278 136.573 21.2465C136.255 21.2651 135.942 21.1617 135.698 20.9572C135.453 20.7527 135.296 20.4626 135.259 20.1463L135.25 20V11.25C135.25 10.6193 135.488 10.0118 135.917 9.54931C136.346 9.08684 136.934 8.80355 137.563 8.75625L137.75 8.75H140.875ZM140.875 11.25H137.75V15H140.875C141.357 14.9998 141.819 14.8143 142.168 14.482C142.516 14.1497 142.724 13.6961 142.747 13.2151C142.77 12.7341 142.607 12.2627 142.292 11.8985C141.977 11.5343 141.534 11.3052 141.055 11.2587L140.875 11.25Z" fill="#3E655D"/>
<g clip-path="url(#clip0_1329_3429)">
<path d="M192 9.225C193.655 9.225 195 7.82924 195 6.1125C195 4.39576 193.655 3 192 3C190.345 3 189 4.39576 189 6.1125C189 7.82924 190.345 9.225 192 9.225ZM210 9.225C211.655 9.225 213 7.82924 213 6.1125C213 4.39576 211.655 3 210 3C208.345 3 207 4.39576 207 6.1125C207 7.82924 208.345 9.225 210 9.225ZM215.967 20.2403L213.83 11.2044C213.675 10.5478 213.103 10.0858 212.433 10.0274C211.73 10.4992 210.895 10.7812 209.995 10.7812C209.095 10.7812 208.261 10.4992 207.558 10.0274C206.888 10.0858 206.316 10.5478 206.161 11.2044L204.023 20.2403C203.859 20.9747 204.422 21.675 205.181 21.675H207.75V26.7328C207.75 27.3796 208.252 27.9 208.875 27.9H211.125C211.748 27.9 212.25 27.3796 212.25 26.7328V21.675H214.819C215.578 21.675 216.141 20.9747 215.967 20.2403ZM201.75 3H200.25C199.838 3 199.5 3.35016 199.5 3.77812V27.1219C199.5 27.5498 199.838 27.9 200.25 27.9H201.75C202.163 27.9 202.5 27.5498 202.5 27.1219V3.77812C202.5 3.35016 202.163 3 201.75 3ZM194.442 10.0226C193.739 10.4992 192.9 10.7812 192 10.7812C191.1 10.7812 190.261 10.4992 189.558 10.0226C188.405 10.1247 187.5 11.1168 187.5 12.3375V18.9516C187.5 19.5984 188.002 20.1187 188.625 20.1187H189V26.7328C189 27.3796 189.502 27.9 190.125 27.9H193.875C194.498 27.9 195 27.3796 195 26.7328V20.1187H195.375C195.998 20.1187 196.5 19.5984 196.5 18.9516V12.3375C196.5 11.1168 195.595 10.1247 194.442 10.0226Z" fill="#3E655D"/>
</g>
<path d="M272.375 22.5C272.872 22.5 273.349 22.6975 273.701 23.0492C274.052 23.4008 274.25 23.8777 274.25 24.375C274.25 24.8723 274.052 25.3492 273.701 25.7008C273.349 26.0525 272.872 26.25 272.375 26.25C271.878 26.25 271.401 26.0525 271.049 25.7008C270.698 25.3492 270.5 24.8723 270.5 24.375C270.5 23.8777 270.698 23.4008 271.049 23.0492C271.401 22.6975 271.878 22.5 272.375 22.5ZM269.25 7.4L261.75 11.25V22.5375C265.3 22.7375 268 23.75 268 25C268 26.375 264.637 27.5 260.5 27.5C256.363 27.5 253 26.375 253 25C253 24.075 254.513 23.275 256.75 22.8375V25H259.25V2.5L269.25 7.4Z" fill="#3E655D"/>
<path d="M84.5 5H64.5V2.5H84.5V5ZM83.875 16.25H82V22.5L86.5125 25.2L87.45 23.675L83.875 21.5625V16.25ZM92 21.25C92 26.0875 88.0875 30 83.25 30C78.8375 30 75.2125 26.7375 74.6 22.5H64.5V15H63.25V12.5L64.5 6.25H84.5L85.75 12.5V12.8625C89.3625 13.95 92 17.2875 92 21.25ZM67 20H74.5V15H67V20ZM89.5 21.25C89.5 17.8 86.7 15 83.25 15C79.8 15 77 17.8 77 21.25C77 24.7 79.8 27.5 83.25 27.5C86.7 27.5 89.5 24.7 89.5 21.25Z" fill="#3E655D"/>
<path d="M15 8.125C15.8288 8.125 16.6237 8.45424 17.2097 9.04029C17.7958 9.62634 18.125 10.4212 18.125 11.25C18.125 11.6604 18.0442 12.0667 17.8871 12.4459C17.7301 12.825 17.4999 13.1695 17.2097 13.4597C16.9195 13.7499 16.575 13.9801 16.1959 14.1371C15.8167 14.2942 15.4104 14.375 15 14.375C14.1712 14.375 13.3763 14.0458 12.7903 13.4597C12.2042 12.8737 11.875 12.0788 11.875 11.25C11.875 10.4212 12.2042 9.62634 12.7903 9.04029C13.3763 8.45424 14.1712 8.125 15 8.125ZM15 2.5C17.3206 2.5 19.5462 3.42187 21.1872 5.06282C22.8281 6.70376 23.75 8.92936 23.75 11.25C23.75 17.8125 15 27.5 15 27.5C15 27.5 6.25 17.8125 6.25 11.25C6.25 8.92936 7.17187 6.70376 8.81282 5.06282C10.4538 3.42187 12.6794 2.5 15 2.5ZM15 5C13.3424 5 11.7527 5.65848 10.5806 6.83058C9.40848 8.00269 8.75 9.5924 8.75 11.25C8.75 12.5 8.75 15 15 23.3875C21.25 15 21.25 12.5 21.25 11.25C21.25 9.5924 20.5915 8.00269 19.4194 6.83058C18.2473 5.65848 16.6576 5 15 5Z" fill="#3E655D"/>
<path d="M326.372 9.41863C326.372 10.1588 326.078 10.8686 325.555 11.3919C325.031 11.9153 324.322 12.2093 323.581 12.2093C322.841 12.2093 322.132 11.9153 321.608 11.3919C321.085 10.8686 320.791 10.1588 320.791 9.41863C320.791 8.67849 321.085 7.96866 321.608 7.44531C322.132 6.92195 322.841 6.62793 323.581 6.62793C324.322 6.62793 325.031 6.92195 325.555 7.44531C326.078 7.96866 326.372 8.67849 326.372 9.41863Z" fill="#3E655D"/>
<path fill-rule="evenodd" clip-rule="evenodd" d="M317.92 0H318.08C321.301 0 323.826 8.31693e-08 325.796 0.265116C327.811 0.535814 329.401 1.10233 330.65 2.34977C331.899 3.5986 332.464 5.1893 332.735 7.20558C333 9.17442 333 11.6986 333 14.9205V15.0433C333 17.707 333 19.8865 332.855 21.6614C332.71 23.4474 332.413 24.9363 331.746 26.1753C331.453 26.7209 331.09 27.2107 330.65 27.6502C329.401 28.8991 327.811 29.4642 325.794 29.7349C323.826 30 321.301 30 318.08 30H317.92C314.699 30 312.174 30 310.204 29.7349C308.189 29.4642 306.599 28.8977 305.35 27.6502C304.243 26.5437 303.671 25.1665 303.368 23.4558C303.068 21.7772 303.014 19.6884 303.003 17.0958C303 16.4358 303 15.7381 303 15.0014V14.9205C303 11.6986 303 9.17442 303.265 7.20419C303.536 5.1893 304.102 3.5986 305.35 2.34977C306.599 1.10093 308.189 0.535814 310.206 0.265116C312.174 8.31693e-08 314.699 0 317.92 0ZM310.483 2.3386C308.7 2.5786 307.624 3.03628 306.83 3.83023C306.035 4.62558 305.579 5.7 305.339 7.48465C305.096 9.2986 305.093 11.6819 305.093 15V16.1777L306.49 14.9553C307.102 14.419 307.896 14.1357 308.71 14.1626C309.524 14.1896 310.297 14.5248 310.873 15.1005L316.859 21.0865C317.323 21.5509 317.937 21.8366 318.591 21.8933C319.245 21.9499 319.899 21.774 320.436 21.3963L320.852 21.1033C321.627 20.5584 322.565 20.2928 323.511 20.3498C324.457 20.4069 325.355 20.7832 326.06 21.4172L330.008 24.9712C330.407 24.1367 330.643 23.04 330.769 21.4926C330.906 19.8112 330.907 17.7153 330.907 15C330.907 11.6819 330.904 9.2986 330.661 7.48465C330.421 5.7 329.964 4.62419 329.17 3.82884C328.374 3.03488 327.3 2.5786 325.515 2.3386C323.701 2.09581 321.318 2.09302 318 2.09302C314.682 2.09302 312.297 2.09581 310.483 2.3386Z" fill="#3E655D"/>
<defs>
<clipPath id="clip0_1329_3429">
<rect width="30" height="24.9" fill="white" transform="translate(186 3)"/>
</clipPath>
</defs>
</svg>
