<svg width="339" height="30" viewBox="0 0 339 30" fill="none" xmlns="http://www.w3.org/2000/svg">
<path d="M77.5264 6.39168L84.6077 13.4732L68.0813 30H61V22.9168L77.5264 6.39168ZM79.8868 4.02952L83.4274 0.48877C83.7405 0.175811 84.165 0 84.6077 0C85.0503 0 85.4748 0.175811 85.7879 0.48877L90.5104 5.20977C90.6656 5.36481 90.7887 5.54892 90.8728 5.75158C90.9568 5.95424 91 6.17147 91 6.39085C91 6.61023 90.9568 6.82746 90.8728 7.03012C90.7887 7.23278 90.6656 7.41689 90.5104 7.57193L86.9681 11.1127L79.8868 4.02952Z" fill="#3E655D"/>
<path fill-rule="evenodd" clip-rule="evenodd" d="M200 5C198.251 4.99968 196.532 5.45811 195.016 6.32954C193.499 7.20096 192.238 8.4549 191.358 9.96619C190.477 11.4775 190.008 13.1933 189.998 14.9423C189.988 16.6913 190.437 18.4124 191.3 19.9338C191.883 19.1757 192.633 18.562 193.491 18.14C194.35 17.718 195.294 17.499 196.25 17.5H203.75C204.706 17.499 205.65 17.718 206.509 18.14C207.367 18.562 208.117 19.1757 208.7 19.9338C209.563 18.4124 210.012 16.6913 210.002 14.9423C209.992 13.1933 209.523 11.4775 208.642 9.96619C207.762 8.4549 206.501 7.20096 204.984 6.32954C203.468 5.45811 201.749 4.99968 200 5ZM209.929 22.595C211.6 20.4162 212.504 17.746 212.5 15C212.5 8.09625 206.904 2.5 200 2.5C193.096 2.5 187.5 8.09625 187.5 15C187.496 17.746 188.4 20.4163 190.071 22.595L190.065 22.6175L190.509 23.1338C191.681 24.5044 193.137 25.6045 194.775 26.3583C196.414 27.1121 198.196 27.5016 200 27.5C202.534 27.5047 205.009 26.7349 207.094 25.2938C207.982 24.6798 208.788 23.9538 209.491 23.1338L209.935 22.6175L209.929 22.595ZM200 7.5C199.005 7.5 198.052 7.89509 197.348 8.59835C196.645 9.30161 196.25 10.2554 196.25 11.25C196.25 12.2446 196.645 13.1984 197.348 13.9017C198.052 14.6049 199.005 15 200 15C200.995 15 201.948 14.6049 202.652 13.9017C203.355 13.1984 203.75 12.2446 203.75 11.25C203.75 10.2554 203.355 9.30161 202.652 8.59835C201.948 7.89509 200.995 7.5 200 7.5Z" fill="#3E655D"/>
<g clip-path="url(#clip0_1329_3426)">
<path fill-rule="evenodd" clip-rule="evenodd" d="M130.5 10C130.5 8.01088 131.29 6.10322 132.697 4.6967C134.103 3.29018 136.011 2.5 138 2.5C139.989 2.5 141.897 3.29018 143.303 4.6967C144.71 6.10322 145.5 8.01088 145.5 10H146.75C147.413 10 148.049 10.2634 148.518 10.7322C148.987 11.2011 149.25 11.837 149.25 12.5V25C149.25 25.663 148.987 26.2989 148.518 26.7678C148.049 27.2366 147.413 27.5 146.75 27.5H129.25C128.587 27.5 127.951 27.2366 127.482 26.7678C127.013 26.2989 126.75 25.663 126.75 25V12.5C126.75 11.837 127.013 11.2011 127.482 10.7322C127.951 10.2634 128.587 10 129.25 10H130.5ZM138 5C139.326 5 140.598 5.52678 141.536 6.46447C142.473 7.40215 143 8.67392 143 10H133C133 8.67392 133.527 7.40215 134.464 6.46447C135.402 5.52678 136.674 5 138 5ZM140.5 17.5C140.5 17.9388 140.384 18.3699 140.165 18.75C139.946 19.13 139.63 19.4456 139.25 19.665V21.25C139.25 21.5815 139.118 21.8995 138.884 22.1339C138.649 22.3683 138.332 22.5 138 22.5C137.668 22.5 137.351 22.3683 137.116 22.1339C136.882 21.8995 136.75 21.5815 136.75 21.25V19.665C136.273 19.3898 135.901 18.9651 135.69 18.4566C135.48 17.9482 135.443 17.3845 135.585 16.8529C135.728 16.3214 136.042 15.8517 136.478 15.5166C136.915 15.1816 137.45 15 138 15C138.663 15 139.299 15.2634 139.768 15.7322C140.237 16.2011 140.5 16.837 140.5 17.5Z" fill="#3E655D"/>
</g>
<path d="M257.896 30L257.299 25.2C256.975 25.075 256.671 24.925 256.385 24.75C256.1 24.575 255.819 24.3875 255.545 24.1875L251.104 26.0625L247 18.9375L250.843 16.0125C250.818 15.8375 250.806 15.669 250.806 15.507V14.4945C250.806 14.3315 250.818 14.1625 250.843 13.9875L247 11.0625L251.104 3.9375L255.545 5.8125C255.818 5.6125 256.104 5.425 256.403 5.25C256.701 5.075 257 4.925 257.299 4.8L257.896 0H266.104L266.701 4.8C267.025 4.925 267.33 5.075 267.616 5.25C267.903 5.425 268.183 5.6125 268.455 5.8125L272.896 3.9375L277 11.0625L273.157 13.9875C273.182 14.1625 273.194 14.3315 273.194 14.4945V15.5055C273.194 15.6685 273.169 15.8375 273.119 16.0125L276.963 18.9375L272.858 26.0625L268.455 24.1875C268.182 24.3875 267.896 24.575 267.597 24.75C267.299 24.925 267 25.075 266.701 25.2L266.104 30H257.896ZM262.075 20.25C263.517 20.25 264.749 19.7375 265.769 18.7125C266.789 17.6875 267.299 16.45 267.299 15C267.299 13.55 266.789 12.3125 265.769 11.2875C264.749 10.2625 263.517 9.75 262.075 9.75C260.607 9.75 259.369 10.2625 258.361 11.2875C257.353 12.3125 256.85 13.55 256.851 15C256.851 16.45 257.355 17.6875 258.363 18.7125C259.371 19.7375 260.608 20.25 262.075 20.25Z" fill="#3E655D"/>
<path d="M320.394 0.0798082C320.394 0.0798082 323.203 1.82091 323.921 5.26566C323.921 5.26566 328.123 -0.201014 332.664 0.398074C337.205 0.997162 339 1.74602 339 1.74602C339 1.74602 336.846 3.52456 335.515 4.4232C334.185 5.32183 329.433 6.4264 325.927 5.34055C325.927 5.34055 324.66 5.07845 324.512 5.4716C324.512 5.4716 338.493 10.8072 329.264 17.6967C328.926 18.2584 326.877 29.51 316.867 28.6675C316.867 28.6675 317.352 29.3602 316.233 29.9968C316.233 29.9968 315.747 30.1278 315.684 28.7237C315.684 28.7237 305.969 25.5785 310.32 13.7278C310.32 13.7278 304.047 6.55745 318.852 4.66657C318.852 4.66657 317.5 2.90675 316.74 2.62593C315.98 2.34511 320.098 -0.444394 320.394 0.0610863V0.0798082Z" fill="#3E655D"/>
<path fill-rule="evenodd" clip-rule="evenodd" d="M0 2.37615C0 1.74596 0.250344 1.14158 0.695959 0.69596C1.14157 0.250344 1.74596 0 2.37615 0H26.1377C26.7679 0 27.3723 0.250344 27.8179 0.69596C28.2635 1.14158 28.5138 1.74596 28.5138 2.37615V5.68059C28.5137 6.52078 28.1798 7.3265 27.5856 7.92051L19.0092 16.4968V28.2572C19.0093 28.5543 18.9334 28.8464 18.7887 29.1059C18.6441 29.3654 18.4356 29.5835 18.1829 29.7397C17.9302 29.8959 17.6418 29.9849 17.345 29.9982C17.0483 30.0116 16.753 29.9489 16.4873 29.816L10.5992 26.8727C10.2703 26.7083 9.99371 26.4555 9.80037 26.1427C9.60704 25.8299 9.50463 25.4694 9.50462 25.1017V16.4968L0.928284 7.92051C0.334089 7.3265 0.000179439 6.52078 0 5.68059V2.37615ZM3.16821 3.16821V5.68059L11.9758 14.4882C12.1967 14.7088 12.372 14.9708 12.4916 15.2592C12.6112 15.5476 12.6728 15.8567 12.6728 16.1689V24.3667L15.841 25.9508V16.1689C15.841 15.5385 16.0913 14.9333 16.538 14.4898L25.3456 5.67901V3.16821H3.16821Z" fill="#3E655D"/>
<defs>
<clipPath id="clip0_1329_3426">
<rect width="30" height="30" fill="white" transform="translate(123)"/>
</clipPath>
</defs>
</svg>
