<svg width="337" height="32" viewBox="0 0 337 32" fill="none" xmlns="http://www.w3.org/2000/svg">
<path d="M65.5 27.25V24.75C66.2917 24.75 66.8854 24.5417 67.2812 24.125C67.6771 23.7083 68.4583 23.5 69.625 23.5C70.7917 23.5 71.5937 23.7083 72.0312 24.125C72.4687 24.5417 73.0625 24.75 73.8125 24.75C74.5625 24.75 75.1562 24.5417 75.5937 24.125C76.0312 23.7083 76.8333 23.5 78 23.5C79.1667 23.5 79.9688 23.7083 80.4063 24.125C80.8438 24.5417 81.4375 24.75 82.1875 24.75C82.9375 24.75 83.5312 24.5417 83.9687 24.125C84.4062 23.7083 85.2083 23.5 86.375 23.5C87.5417 23.5 88.3229 23.7083 88.7188 24.125C89.1146 24.5417 89.7083 24.75 90.5 24.75V27.25C89.2708 27.25 88.4637 27.0417 88.0787 26.625C87.6937 26.2083 87.1258 26 86.375 26C85.625 26 85.0312 26.2083 84.5937 26.625C84.1562 27.0417 83.3542 27.25 82.1875 27.25C81.0208 27.25 80.2188 27.0417 79.7813 26.625C79.3438 26.2083 78.75 26 78 26C77.25 26 76.6562 26.2083 76.2187 26.625C75.7812 27.0417 74.9792 27.25 73.8125 27.25C72.6458 27.25 71.8437 27.0417 71.4062 26.625C70.9687 26.2083 70.375 26 69.625 26C68.875 26 68.3071 26.2083 67.9213 26.625C67.5354 27.0417 66.7283 27.25 65.5 27.25ZM65.5 21.625V19.125C66.2917 19.125 66.8854 18.9167 67.2812 18.5C67.6771 18.0833 68.4583 17.875 69.625 17.875C70.7917 17.875 71.5992 18.0833 72.0475 18.5C72.4958 18.9167 73.0842 19.125 73.8125 19.125C74.5625 19.125 75.1562 18.9167 75.5937 18.5C76.0312 18.0833 76.8333 17.875 78 17.875C79.1667 17.875 79.9688 18.0833 80.4063 18.5C80.8438 18.9167 81.4375 19.125 82.1875 19.125C82.9375 19.125 83.5312 18.9167 83.9687 18.5C84.4062 18.0833 85.2083 17.875 86.375 17.875C87.5417 17.875 88.3229 18.0833 88.7188 18.5C89.1146 18.9167 89.7083 19.125 90.5 19.125V21.625C89.2708 21.625 88.4637 21.4167 88.0787 21C87.6937 20.5833 87.1258 20.375 86.375 20.375C85.625 20.375 85.0467 20.5833 84.64 21C84.2333 21.4167 83.4158 21.625 82.1875 21.625C81 21.625 80.1929 21.4167 79.7663 21C79.3396 20.5833 78.7508 20.375 78 20.375C77.2083 20.375 76.62 20.5833 76.235 21C75.85 21.4167 75.0425 21.625 73.8125 21.625C72.5833 21.625 71.7654 21.4167 71.3587 21C70.9521 20.5833 70.3742 20.375 69.625 20.375C68.875 20.375 68.3075 20.5833 67.9225 21C67.5375 21.4167 66.73 21.625 65.5 21.625ZM71.625 15.25L75.7813 11.0938L74.5313 9.84375C73.8438 9.15625 73.1146 8.65625 72.3437 8.34375C71.5729 8.03125 70.625 7.875 69.5 7.875V4.75C71.0625 4.75 72.3542 4.92209 73.375 5.26625C74.3958 5.61042 75.3958 6.27167 76.375 7.25L84.375 15.25C84.0208 15.4792 83.6771 15.6617 83.3437 15.7975C83.0104 15.9333 82.625 16.0008 82.1875 16C81.4375 16 80.8438 15.7917 80.4063 15.375C79.9688 14.9583 79.1667 14.75 78 14.75C76.8333 14.75 76.0312 14.9583 75.5937 15.375C75.1562 15.7917 74.5625 16 73.8125 16C73.375 16 72.9896 15.9325 72.6562 15.7975C72.3229 15.6625 71.9792 15.48 71.625 15.25ZM83.875 4.75C84.75 4.75 85.4896 5.0575 86.0938 5.6725C86.6979 6.2875 87 7.02167 87 7.875C87 8.75 86.6979 9.48959 86.0938 10.0938C85.4896 10.6979 84.75 11 83.875 11C83 11 82.2604 10.6979 81.6563 10.0938C81.0521 9.48959 80.75 8.75 80.75 7.875C80.75 7.02084 81.0521 6.28625 81.6563 5.67125C82.2604 5.05625 83 4.74917 83.875 4.75Z" fill="#3E655D"/>
<path d="M22.5 19.7499C23.826 19.7499 25.0978 20.2767 26.0355 21.2144C26.9732 22.1521 27.5 23.4239 27.5 24.7499C27.5 26.076 26.9732 27.3478 26.0355 28.2855C25.0978 29.2231 23.826 29.7499 22.5 29.7499C21.1739 29.7499 19.9021 29.2231 18.9644 28.2855C18.0267 27.3478 17.5 26.076 17.5 24.7499C17.5 23.4239 18.0267 22.1521 18.9644 21.2144C19.9021 20.2767 21.1739 19.7499 22.5 19.7499ZM22.5 22.2499C21.8369 22.2499 21.201 22.5133 20.7322 22.9822C20.2633 23.451 20 24.0869 20 24.7499C20 25.413 20.2633 26.0489 20.7322 26.5177C21.201 26.9865 21.8369 27.2499 22.5 27.2499C23.163 27.2499 23.7989 26.9865 24.2677 26.5177C24.7366 26.0489 25 25.413 25 24.7499C25 24.0869 24.7366 23.451 24.2677 22.9822C23.7989 22.5133 23.163 22.2499 22.5 22.2499ZM7.56245 19.1749C7.56245 19.1749 9.32495 17.3999 9.33745 13.8749C8.88745 11.1374 9.96245 7.92493 12.425 5.47493C16.0875 1.81243 21.425 1.21243 24.375 4.12493C27.2875 7.07493 26.6875 12.4124 23.025 16.0749C20.575 18.5374 17.3625 19.6124 14.625 19.1624C11.1 19.1749 9.32495 20.9374 9.32495 20.9374L4.02495 26.2374L2.26245 24.4749L7.56245 19.1749ZM22.5875 5.91243C20.625 3.96243 16.875 4.54993 14.1875 7.24993C11.5125 9.92493 10.9125 13.6874 12.8625 15.6374C14.825 17.5874 18.575 16.9874 21.25 14.3124C23.95 11.6249 24.5375 7.87493 22.5875 5.91243Z" fill="#3E655D"/>
<path d="M334.188 5.57153C330.226 5.58707 327.281 6.08582 325.15 6.94778C323.56 7.59064 322.938 8.07707 322.938 9.72493V27.0001C325.373 24.9912 327.535 24.4287 336.062 24.4287V5.57153H334.188ZM309.812 5.57153C313.774 5.58707 316.719 6.08582 318.85 6.94778C320.44 7.59064 321.062 8.07707 321.062 9.72493V27.0001C318.627 24.9912 316.465 24.4287 307.938 24.4287V5.57153H309.812Z" fill="#3E655D"/>
<path d="M138.93 24.4C139.42 24.4 139.834 24.2306 140.173 23.8918C140.512 23.553 140.681 23.1391 140.68 22.65C140.68 22.16 140.511 21.7456 140.173 21.4068C139.835 21.068 139.421 20.8991 138.93 20.9C138.44 20.9 138.026 21.0694 137.688 21.4082C137.35 21.747 137.181 22.1609 137.18 22.65C137.18 23.14 137.349 23.5544 137.688 23.8932C138.027 24.232 138.441 24.4009 138.93 24.4ZM137.67 19.01H140.26C140.26 18.24 140.348 17.6333 140.523 17.19C140.699 16.7467 141.194 16.14 142.01 15.37C142.617 14.7633 143.095 14.1856 143.445 13.6368C143.795 13.088 143.97 12.4291 143.97 11.66C143.97 10.3533 143.492 9.35 142.535 8.65C141.578 7.95 140.447 7.6 139.14 7.6C137.81 7.6 136.731 7.95 135.903 8.65C135.075 9.35 134.498 10.19 134.17 11.17L136.48 12.08C136.597 11.66 136.859 11.205 137.268 10.715C137.677 10.225 138.301 9.98 139.14 9.98C139.887 9.98 140.447 10.1844 140.82 10.5932C141.193 11.002 141.38 11.4509 141.38 11.94C141.38 12.4067 141.24 12.8444 140.96 13.2532C140.68 13.662 140.33 14.0409 139.91 14.39C138.883 15.3 138.253 15.9883 138.02 16.455C137.787 16.9217 137.67 17.7733 137.67 19.01ZM139 30C137.063 30 135.243 29.6327 133.54 28.8982C131.837 28.1637 130.355 27.1659 129.095 25.905C127.835 24.645 126.838 23.1633 126.103 21.46C125.369 19.7567 125.001 17.9367 125 16C125 14.0633 125.368 12.2433 126.103 10.54C126.839 8.83667 127.836 7.355 129.095 6.095C130.355 4.835 131.837 3.83773 133.54 3.1032C135.243 2.36867 137.063 2.00093 139 2C140.937 2 142.757 2.36773 144.46 3.1032C146.163 3.83867 147.645 4.83593 148.905 6.095C150.165 7.355 151.163 8.83667 151.898 10.54C152.634 12.2433 153.001 14.0633 153 16C153 17.9367 152.632 19.7567 151.897 21.46C151.161 23.1633 150.164 24.645 148.905 25.905C147.645 27.165 146.163 28.1627 144.46 28.8982C142.757 29.6337 140.937 30.0009 139 30ZM139 27.2C142.127 27.2 144.775 26.115 146.945 23.945C149.115 21.775 150.2 19.1267 150.2 16C150.2 12.8733 149.115 10.225 146.945 8.055C144.775 5.885 142.127 4.8 139 4.8C135.873 4.8 133.225 5.885 131.055 8.055C128.885 10.225 127.8 12.8733 127.8 16C127.8 19.1267 128.885 21.775 131.055 23.945C133.225 26.115 135.873 27.2 139 27.2Z" fill="#3E655D"/>
<path d="M205.412 23.5V27.6667C205.412 29.5076 203.832 31 201.882 31H189.529C187.58 31 186 29.5076 186 27.6667V4.33333C186 2.49238 187.58 1 189.529 1H201.882C203.832 1 205.412 2.49238 205.412 4.33333V9.4375M198.353 16H216M216 16L211.588 11.8333M216 16L211.588 20.1667" stroke="#3E655D" stroke-width="2" stroke-linecap="round" stroke-linejoin="round"/>
<path d="M249 7H276" stroke="#3E655D" stroke-width="5" stroke-linecap="round"/>
<path d="M249 16.6584H276" stroke="#3E655D" stroke-width="5" stroke-linecap="round"/>
<path d="M249 26.3169H276" stroke="#3E655D" stroke-width="5" stroke-linecap="round"/>
</svg>
