<svg width="339" height="36" viewBox="0 0 339 36" fill="none" xmlns="http://www.w3.org/2000/svg">
<path d="M68 15.0001C67.9992 13.1301 68.5808 11.3063 69.6642 9.78214C70.7475 8.25795 72.2787 7.10904 74.045 6.49507C73.9766 6.06654 74.002 5.62827 74.1194 5.21049C74.2368 4.79272 74.4435 4.4054 74.7251 4.07524C75.0067 3.74509 75.3567 3.47996 75.7507 3.29816C76.1447 3.11636 76.5735 3.02222 77.0075 3.02222C77.4415 3.02222 77.8703 3.11636 78.2643 3.29816C78.6583 3.47996 79.0082 3.74509 79.2899 4.07524C79.5715 4.4054 79.7782 4.79272 79.8956 5.21049C80.013 5.62827 80.0384 6.06654 79.97 6.49507C81.7335 7.11156 83.2614 8.26154 84.3419 9.78551C85.4224 11.3095 86.0019 13.1319 86 15.0001V24.0001L90.5 27.0001V28.5001H63.5V27.0001L68 24.0001V15.0001ZM80 30.0001C80 30.7957 79.6839 31.5588 79.1213 32.1214C78.5587 32.684 77.7956 33.0001 77 33.0001C76.2044 33.0001 75.4413 32.684 74.8787 32.1214C74.3161 31.5588 74 30.7957 74 30.0001H80Z" fill="#3E655D"/>
<path fill-rule="evenodd" clip-rule="evenodd" d="M208.5 15.1875C209.246 15.1875 209.961 14.8912 210.489 14.3637C211.016 13.8363 211.312 13.1209 211.312 12.375C211.312 11.6291 211.016 10.9137 210.489 10.3863C209.961 9.85882 209.246 9.5625 208.5 9.5625C207.754 9.5625 207.039 9.85882 206.511 10.3863C205.984 10.9137 205.688 11.6291 205.688 12.375C205.688 13.1209 205.984 13.8363 206.511 14.3637C207.039 14.8912 207.754 15.1875 208.5 15.1875ZM208.5 18C209.552 17.9999 210.583 17.7048 211.476 17.1481C212.368 16.5915 213.087 15.7957 213.55 14.851C214.013 13.9064 214.202 12.8508 214.095 11.8042C213.989 10.7576 213.591 9.7619 212.946 8.93021C212.302 8.09853 211.437 7.46419 210.451 7.09926C209.464 6.73433 208.395 6.65343 207.364 6.86574C206.334 7.07806 205.384 7.57509 204.622 8.30037C203.86 9.02565 203.316 9.95011 203.053 10.9688H189.281C188.908 10.9688 188.551 11.1169 188.287 11.3806C188.023 11.6444 187.875 12.002 187.875 12.375C187.875 12.748 188.023 13.1056 188.287 13.3694C188.551 13.6331 188.908 13.7813 189.281 13.7813H203.053C203.365 14.9886 204.07 16.0581 205.055 16.8217C206.041 17.5853 207.253 17.9998 208.5 18ZM196.312 23.625C196.312 24.3709 196.016 25.0863 195.489 25.6137C194.961 26.1412 194.246 26.4375 193.5 26.4375C192.754 26.4375 192.039 26.1412 191.511 25.6137C190.984 25.0863 190.688 24.3709 190.688 23.625C190.688 22.8791 190.984 22.1637 191.511 21.6363C192.039 21.1088 192.754 20.8125 193.5 20.8125C194.246 20.8125 194.961 21.1088 195.489 21.6363C196.016 22.1637 196.312 22.8791 196.312 23.625ZM198.947 25.0313C198.602 26.3544 197.787 27.5067 196.655 28.2729C195.522 29.039 194.149 29.3666 192.793 29.1943C191.436 29.022 190.189 28.3617 189.284 27.3367C188.379 26.3118 187.878 24.9924 187.875 23.625C187.875 22.2556 188.374 20.933 189.279 19.9053C190.184 18.8777 191.433 18.2155 192.791 18.0429C194.15 17.8704 195.525 18.1993 196.658 18.9681C197.791 19.7369 198.605 20.8927 198.947 22.2188H212.719C213.092 22.2188 213.449 22.3669 213.713 22.6306C213.977 22.8944 214.125 23.252 214.125 23.625C214.125 23.998 213.977 24.3556 213.713 24.6194C213.449 24.8831 213.092 25.0313 212.719 25.0313H198.947Z" fill="#3E655D"/>
<g clip-path="url(#clip0_1329_3427)">
<path fill-rule="evenodd" clip-rule="evenodd" d="M13.1251 5.5C11.4308 5.50014 9.76115 5.90546 8.25539 6.68212C6.74963 7.45878 5.45144 8.58427 4.46912 9.96469C3.4868 11.3451 2.84884 12.9404 2.60846 14.6176C2.36808 16.2947 2.53226 18.005 3.0873 19.6057C3.64233 21.2065 4.57213 22.6513 5.79912 23.8197C7.02611 24.988 8.5147 25.846 10.1407 26.322C11.7667 26.798 13.483 26.8783 15.1463 26.5561C16.8097 26.234 18.3719 25.5187 19.7026 24.47L24.2676 29.035C24.5033 29.2627 24.8191 29.3887 25.1468 29.3858C25.4746 29.383 25.7881 29.2515 26.0198 29.0198C26.2516 28.788 26.3831 28.4745 26.3859 28.1467C26.3888 27.819 26.2628 27.5033 26.0351 27.2675L21.4701 22.7025C22.7051 21.1358 23.474 19.253 23.6889 17.2697C23.9039 15.2863 23.5561 13.2825 22.6854 11.4876C21.8146 9.69271 20.4562 8.17919 18.7654 7.12029C17.0747 6.06138 15.12 5.49987 13.1251 5.5ZM5.00007 16.125C5.00007 13.9701 5.8561 11.9035 7.37983 10.3798C8.90356 8.85602 10.9702 8 13.1251 8C15.28 8 17.3466 8.85602 18.8703 10.3798C20.394 11.9035 21.2501 13.9701 21.2501 16.125C21.2501 18.2799 20.394 20.3465 18.8703 21.8702C17.3466 23.394 15.28 24.25 13.1251 24.25C10.9702 24.25 8.90356 23.394 7.37983 21.8702C5.8561 20.3465 5.00007 18.2799 5.00007 16.125Z" fill="#3E655D"/>
</g>
<path d="M270.5 3L254 18L270.5 33" stroke="#3E655D" stroke-width="5.5" stroke-miterlimit="10" stroke-linecap="round" stroke-linejoin="round"/>
<g clip-path="url(#clip1_1329_3427)">
<path d="M324.938 5.8125C324.938 5.06658 325.234 4.35121 325.761 3.82376C326.289 3.29632 327.004 3 327.75 3H335.25C336.245 3 337.198 3.39509 337.902 4.09835C338.605 4.80161 339 5.75544 339 6.75V29.25C339 30.2446 338.605 31.1984 337.902 31.9016C337.198 32.6049 336.245 33 335.25 33H312.75C311.755 33 310.802 32.6049 310.098 31.9016C309.395 31.1984 309 30.2446 309 29.25V6.75C309 5.75544 309.395 4.80161 310.098 4.09835C310.802 3.39509 311.755 3 312.75 3H324C323.411 3.78375 323.062 4.75687 323.062 5.8125V20.4244L318.101 15.4612C318.014 15.3741 317.911 15.3049 317.797 15.2578C317.683 15.2106 317.561 15.1863 317.438 15.1863C317.314 15.1863 317.192 15.2106 317.078 15.2578C316.964 15.3049 316.861 15.3741 316.774 15.4612C316.687 15.5484 316.617 15.6519 316.57 15.7658C316.523 15.8797 316.499 16.0017 316.499 16.125C316.499 16.2483 316.523 16.3703 316.57 16.4842C316.617 16.5981 316.687 16.7016 316.774 16.7888L323.336 23.3513C323.423 23.4386 323.527 23.5078 323.641 23.5551C323.755 23.6023 323.877 23.6267 324 23.6267C324.123 23.6267 324.245 23.6023 324.359 23.5551C324.473 23.5078 324.577 23.4386 324.664 23.3513L331.226 16.7888C331.402 16.6127 331.501 16.374 331.501 16.125C331.501 15.876 331.402 15.6373 331.226 15.4612C331.05 15.2852 330.811 15.1863 330.562 15.1863C330.314 15.1863 330.075 15.2852 329.899 15.4612L324.938 20.4244V5.8125Z" fill="#3E655D"/>
</g>
<path d="M142.688 19.1875C142.688 20.4307 142.194 21.623 141.315 22.5021C140.435 23.3811 139.243 23.875 138 23.875C136.757 23.875 135.565 23.3811 134.685 22.5021C133.806 21.623 133.312 20.4307 133.312 19.1875C133.312 17.9443 133.806 16.752 134.685 15.8729C135.565 14.9939 136.757 14.5 138 14.5C139.243 14.5 140.435 14.9939 141.315 15.8729C142.194 16.752 142.688 17.9443 142.688 19.1875Z" fill="#3E655D"/>
<path d="M126.75 10.75C125.755 10.75 124.802 11.1451 124.098 11.8483C123.395 12.5516 123 13.5054 123 14.5V25.75C123 26.7446 123.395 27.6984 124.098 28.4016C124.802 29.1049 125.755 29.5 126.75 29.5H149.25C150.245 29.5 151.198 29.1049 151.902 28.4016C152.605 27.6984 153 26.7446 153 25.75V14.5C153 13.5054 152.605 12.5516 151.902 11.8483C151.198 11.1451 150.245 10.75 149.25 10.75H147.053C146.058 10.7498 145.104 10.3546 144.401 9.65125L142.849 8.09875C142.146 7.39544 141.192 7.00021 140.197 7H135.803C134.808 7.00021 133.854 7.39544 133.151 8.09875L131.599 9.65125C130.896 10.3546 129.942 10.7498 128.947 10.75H126.75ZM127.688 14.5C127.439 14.5 127.2 14.4012 127.025 14.2254C126.849 14.0496 126.75 13.8111 126.75 13.5625C126.75 13.3139 126.849 13.0754 127.025 12.8996C127.2 12.7238 127.439 12.625 127.688 12.625C127.936 12.625 128.175 12.7238 128.35 12.8996C128.526 13.0754 128.625 13.3139 128.625 13.5625C128.625 13.8111 128.526 14.0496 128.35 14.2254C128.175 14.4012 127.936 14.5 127.688 14.5ZM144.562 19.1875C144.562 20.928 143.871 22.5972 142.64 23.8279C141.41 25.0586 139.74 25.75 138 25.75C136.26 25.75 134.59 25.0586 133.36 23.8279C132.129 22.5972 131.438 20.928 131.438 19.1875C131.438 17.447 132.129 15.7778 133.36 14.5471C134.59 13.3164 136.26 12.625 138 12.625C139.74 12.625 141.41 13.3164 142.64 14.5471C143.871 15.7778 144.562 17.447 144.562 19.1875Z" fill="#3E655D"/>
<defs>
<clipPath id="clip0_1329_3427">
<rect width="30" height="30" fill="white" transform="translate(0 3)"/>
</clipPath>
<clipPath id="clip1_1329_3427">
<rect width="30" height="30" fill="white" transform="translate(309 3)"/>
</clipPath>
</defs>
</svg>
