<?xml version="1.0" encoding="UTF-8"?>
<svg id="Layer_1" data-name="Layer 1" xmlns="http://www.w3.org/2000/svg" viewBox="0 0 329.86 116.1">
  <defs>
    <style>
      .cls-1 {
        fill: #633311;
      }

      .cls-1, .cls-2, .cls-3, .cls-4, .cls-5 {
        stroke-width: 0px;
      }

      .cls-2 {
        fill: #000;
      }

      .cls-3 {
        fill: #fab380;
      }

      .cls-4 {
        fill: #944d1a;
      }

      .cls-5 {
        fill: #fff;
      }
    </style>
  </defs>
  <path class="cls-2" d="M50.26,50.57c-.07-.05-.14-.11-.21-.17-.71-.61-1.24-1.41-1.58-2.28-4.76-12.18,12.37-9.22,12.7,3.95-.3,3.2.7,3.2,1.5,1.9C113.66-21.63-31.44-17.53,34.86,64.57c.8.9,1.6,1.8,2.5,2.6,4.2,3.9,17.4,18.2,3.4,30.7-11.3,10-10.23,14.71-3.24,16.57,32.6,8.63,62.24-21.28,12.74-63.87Z"/>
  <path class="cls-5" d="M40.56,104.77c-2.6-.6.7-5.1.3-7.5-9.77,12.8-11.44,14.18-3.31,16,.91.2,1.86.29,2.78.23,37.37-2.15,39.19-23.58,28.23-44.43,12.6,27.9-12.1,39.3-28,35.7Z"/>
  <path class="cls-2" d="M47.36,3.87c-4.6-.4-9.2,0-13.3,2-5.9,2.7-9.9,7.9-12.1,14,0,.2.2.3.2.5,3.9-9,13-13.2,22.1-13.7,4.8-.3,10,.2,14.8,1.8-2.6-3.4-8-4.2-11.8-4.5h0l.1-.1Z"/>
  <path class="cls-5" d="M63.46,39.27c0-.1,0-.2-.1-.3,0-.1-.1-.3-.2-.4-.2-.4-.3-.7-.5-1-.4-.8-.9-1.6-1.4-2.3-.1-.2-.3-.4-.4-.6-.3-.3-.5-.6-.8-.9-.6-.6-1.2-1.2-1.8-1.8l-.1-.1h-.1c-.4-.3-.8-.5-1.2-.8-.3-.2-.6-.3-.9-.5-.2,0-.4-.1-.6-.2-.3-.1-.6-.2-.9-.3h-.6c-.3,0-5.2-.2-8.2,3.5-1.8,1.9-4.3,7.9.4,14.9,2.6,3.5,5.1,5.1,8.7,7.7h0c-1.7-1.6-3.5-3.2-5.5-4.8-13.2-13.6,15.9-22,11.1,1.8-.3,3.4.7,3.4,1.5,2,.6-1,1.2-2,1.8-2.9.4-2.1.7-4.1.8-6.3,0-.8,0-1.6-.1-2.5v-.7c0-.4-.2-.7-.3-1.1-.2-.9-.5-1.7-.8-2.5h0l.2.1Z"/>
  <path class="cls-1" d="M23.86,61.17h-.1c-.8.5-1.6,1.7-1.7,2.8.1,0,.2,0,.4.1h.1c.8,0,1.2-1,1.4-1.8v-1.2h0l-.1.1Z"/>
  <path class="cls-1" d="M25.86,80.17c.2.8,1.1,1.4,1.7,1.8,1,.8,2.1,1.5,3.2,2.3,2.3,1.9,4.2,4.7,5.7,7.2,1.6,2.7,2.4,5.5,2.8,8.6,0,.5.1,1,.1,1.5.3-2.5.2-5.1-.4-7.6-.7-2.5-1.7-5-3.4-7,0-.1-.2-.2-.2-.3-1.3-1.5-2.6-3-4.1-4.3-.8-.7-1.6-1.4-2.5-2.1-.1,0-.2,0-.4-.1-.7-.4-1.4-.9-2.2-1.1-.3.2-.4.7-.3,1v.1Z"/>
  <path class="cls-3" d="M38.26,97.37c-.2.3-.4.6-.6.9.2,0,.3.1.5.2v-1.1h.1Z"/>
  <path class="cls-3" d="M32.46,108.97c-1.2,1.2-3,2.8-4.9,3.6-.2.2-.5.4-.8.6h0c2.4-.5,7-3.9,9.8-8.9-1.3,1.7-2.7,3.3-4.2,4.8h0l.1-.1Z"/>
  <path class="cls-4" d="M39.26,98.37c-.2.3-.4.6-.6.9.2,0,.3.1.5.2v-1.1h.1Z"/>
  <path class="cls-2" d="M20.76,61.57s-12.9-5.1-16.7,9.1c-1.2,1-.2,6.5,6.6,7.6,6.8,1.2-8.9,7.8-10.5,10.6-1.6,2.7,9.5,2.8,9.5,2.8,0,0,.4,6.3-1,9.5s-.7,3.3.2,4.7c1.9,3,6.1,4.3,6.1,4.3,0,0-6.4.8-9.8,3.6-4.2,4.5,17.5,1.3,22.8.2,6.1-1.3,25.2-20.1-1.8-37.7,0,0-4-3.2-.8-11.9,3.2-8.7-3.6-7.2-4.5-2.9l-.1.1Z"/>
  <path class="cls-5" d="M23.76,59.67h-.1c-.8.5-1.6,1.7-1.7,2.8,0,0,0,.3.2.3,1.2.1,2.5-1.8,1.7-3.1h-.1Z"/>
  <path class="cls-2" d="M121.46,98.77c.7,1.4,1,2.8.7,3.9-.3,1.2-.9,2.1-1.8,2.7-.9.7-1.9,1.1-3.1,1.2-1.2.1-2.3,0-3.4-.7-1.1-.6-1.9-1.5-2.6-2.9l-3.3-7.1c-.6-1.2-1.3-2.1-2.2-2.6s-2.3-.7-4.2-.7l9.3-3.4c2.1,0,3.7.4,5,1.2,1.4.7,2.4,2,3.3,3.7l2.1,4.6.2.1ZM102.86,92.67c-4.6,0-8.7-.9-12.1-2.6s-6.1-4.2-8-7.5-2.9-7.3-2.9-11.9.6-8.1,1.9-11.7c1.3-3.5,3.1-6.6,5.4-9.2,2.3-2.6,5.1-4.5,8.4-5.9s6.9-2.1,10.9-2.1,8.7.9,12.1,2.6c3.5,1.7,6.1,4.2,8,7.6,1.9,3.3,2.9,7.2,2.9,11.8s-.6,8.1-1.9,11.7c-1.3,3.5-3.1,6.6-5.4,9.2-2.3,2.6-5.1,4.6-8.4,5.9-3.2,1.4-6.9,2.1-10.9,2.1h0ZM103.06,82.67c2.9,0,5.5-.8,7.6-2.4s3.7-3.8,4.8-6.6c1.1-2.8,1.7-6.1,1.7-9.7s-1-7.2-2.9-9.2-4.6-3-7.9-3-5.5.8-7.6,2.4c-2.1,1.6-3.7,3.8-4.8,6.6-1.1,2.8-1.6,6-1.6,9.7s1,7.2,2.9,9.2c2,2,4.6,3,7.9,3h-.1ZM150.76,92.57c-1.6,0-2.8-.4-3.8-1.3-.9-.9-1.5-2.2-1.9-4l-7.6-38.2c-.4-2.1-.1-3.8.8-5.1,1-1.3,2.5-2,4.5-2s2.8.5,3.8,1.4c.9.9,1.5,2.2,1.8,4l5.7,32.1h-3.1l17.1-33.1c.7-1.5,1.6-2.6,2.6-3.3s2.2-1,3.6-1,2.6.4,3.4,1.3c.8.9,1.4,2.3,1.8,4.1l5.7,32h-2.8l16.6-33.1c.7-1.4,1.6-2.5,2.5-3.2s2.2-1.1,3.7-1.1c2.2,0,3.8.7,4.5,2.2.8,1.4.7,3.2-.4,5.4l-20,38.7c-.7,1.5-1.7,2.6-2.7,3.3-1.1.7-2.4,1-4.1,1s-2.8-.4-3.7-1.3-1.5-2.2-1.9-4l-5.7-28.8h1.8l-15.5,29.8c-.8,1.5-1.7,2.6-2.8,3.3-1,.7-2.4,1.1-4.1,1.1l.2-.2ZM217.66,91.97c-2.2,0-3.8-.6-4.8-1.7-1-1.2-1.3-2.8-1-5l5.8-37c.3-1.9,1.1-3.3,2.2-4.2,1.1-1,2.6-1.5,4.6-1.5h23.7c1.6,0,2.8.3,3.6,1,.8.7,1.3,1.6,1.3,2.8s-.5,3-1.5,4-2.3,1.5-3.9,1.5h-19l-1.7,10.4h16.6c1.5,0,2.7.3,3.6,1,.8.7,1.3,1.6,1.3,2.8s-.5,3-1.5,4-2.3,1.5-3.9,1.5h-17.4l-1.8,11.2h18.1c1.6,0,2.8.3,3.6,1,.8.7,1.3,1.6,1.3,2.8s-.5,3-1.5,4-2.3,1.5-3.9,1.5h-23.5l-.3-.1ZM260.26,91.97c-2.1,0-3.6-.6-4.6-1.7-1-1.2-1.3-2.8-1-4.8l6-37.9c.3-1.9,1-3.2,2.1-4.1,1.1-.9,2.5-1.4,4.4-1.4s3.4.6,4.3,1.8c.9,1.1,1.2,2.7.9,4.8l-5.2,33.5h16.9c1.7,0,3,.3,3.9,1s1.4,1.6,1.4,2.9c0,1.9-.5,3.3-1.6,4.4-1,1-2.5,1.5-4.3,1.5h-23.2,0ZM300.76,91.97c-2.1,0-3.6-.6-4.6-1.7-1-1.2-1.3-2.8-1-4.8l6-37.9c.3-1.9,1-3.2,2.1-4.1,1.1-.9,2.5-1.4,4.4-1.4s3.4.6,4.3,1.8c.9,1.1,1.2,2.7.9,4.8l-5.2,33.5h16.9c1.7,0,3,.3,3.9,1s1.4,1.6,1.4,2.9c0,1.9-.5,3.3-1.6,4.4-1,1-2.5,1.5-4.3,1.5h-23.2,0Z"/>
  <path class="cls-5" d="M119.46,94.77c.7,1.4,1,2.8.7,3.9-.3,1.2-.9,2.1-1.8,2.7-.9.7-1.9,1.1-3.1,1.2-1.2.1-2.3,0-3.4-.7-1.1-.6-1.9-1.5-2.6-2.9l-3.3-7.1c-.6-1.2-1.3-2.1-2.2-2.6s-2.3-.7-4.2-.7l9.3-3.4c2.1,0,3.7.4,5,1.2,1.4.7,2.4,2,3.3,3.7l2.1,4.6.2.1ZM100.86,88.67c-4.6,0-8.7-.9-12.1-2.6s-6.1-4.2-8-7.5-2.9-7.3-2.9-11.9.6-8.1,1.9-11.7c1.3-3.5,3.1-6.6,5.4-9.2,2.3-2.6,5.1-4.5,8.4-5.9s6.9-2.1,10.9-2.1,8.7.9,12.1,2.6c3.5,1.7,6.1,4.2,8,7.6,1.9,3.3,2.9,7.2,2.9,11.8s-.6,8.1-1.9,11.7c-1.3,3.5-3.1,6.6-5.4,9.2-2.3,2.6-5.1,4.6-8.4,5.9-3.2,1.4-6.9,2.1-10.9,2.1h0ZM101.06,78.67c2.9,0,5.5-.8,7.6-2.4s3.7-3.8,4.8-6.6c1.1-2.8,1.7-6.1,1.7-9.7s-1-7.2-2.9-9.2-4.6-3-7.9-3-5.5.8-7.6,2.4c-2.1,1.6-3.7,3.8-4.8,6.6-1.1,2.8-1.6,6-1.6,9.7s1,7.2,2.9,9.2c2,2,4.6,3,7.9,3h-.1ZM148.76,88.57c-1.6,0-2.8-.4-3.8-1.3-.9-.9-1.5-2.2-1.9-4l-7.6-38.2c-.4-2.1-.1-3.8.8-5.1,1-1.3,2.5-2,4.5-2s2.8.5,3.8,1.4c.9.9,1.5,2.2,1.8,4l5.7,32.1h-3.1l17.1-33.1c.7-1.5,1.6-2.6,2.6-3.3s2.2-1,3.6-1,2.6.4,3.4,1.3c.8.9,1.4,2.3,1.8,4.1l5.7,32h-2.8l16.6-33.1c.7-1.4,1.6-2.5,2.5-3.2s2.2-1.1,3.7-1.1c2.2,0,3.8.7,4.5,2.2.8,1.4.7,3.2-.4,5.4l-20,38.7c-.7,1.5-1.7,2.6-2.7,3.3-1.1.7-2.4,1-4.1,1s-2.8-.4-3.7-1.3-1.5-2.2-1.9-4l-5.7-28.8h1.8l-15.5,29.8c-.8,1.5-1.7,2.6-2.8,3.3-1,.7-2.4,1.1-4.1,1.1l.2-.2ZM215.66,87.97c-2.2,0-3.8-.6-4.8-1.7-1-1.2-1.3-2.8-1-5l5.8-37c.3-1.9,1.1-3.3,2.2-4.2,1.1-1,2.6-1.5,4.6-1.5h23.7c1.6,0,2.8.3,3.6,1,.8.7,1.3,1.6,1.3,2.8s-.5,3-1.5,4-2.3,1.5-3.9,1.5h-19l-1.7,10.4h16.6c1.5,0,2.7.3,3.6,1,.8.7,1.3,1.6,1.3,2.8s-.5,3-1.5,4-2.3,1.5-3.9,1.5h-17.4l-1.8,11.2h18.1c1.6,0,2.8.3,3.6,1,.8.7,1.3,1.6,1.3,2.8s-.5,3-1.5,4-2.3,1.5-3.9,1.5h-23.5l-.3-.1ZM258.26,87.97c-2.1,0-3.6-.6-4.6-1.7-1-1.2-1.3-2.8-1-4.8l6-37.9c.3-1.9,1-3.2,2.1-4.1,1.1-.9,2.5-1.4,4.4-1.4s3.4.6,4.3,1.8c.9,1.1,1.2,2.7.9,4.8l-5.2,33.5h16.9c1.7,0,3,.3,3.9,1s1.4,1.6,1.4,2.9c0,1.9-.5,3.3-1.6,4.4-1,1-2.5,1.5-4.3,1.5h-23.2,0ZM298.76,87.97c-2.1,0-3.6-.6-4.6-1.7-1-1.2-1.3-2.8-1-4.8l6-37.9c.3-1.9,1-3.2,2.1-4.1,1.1-.9,2.5-1.4,4.4-1.4s3.4.6,4.3,1.8c.9,1.1,1.2,2.7.9,4.8l-5.2,33.5h16.9c1.7,0,3,.3,3.9,1s1.4,1.6,1.4,2.9c0,1.9-.5,3.3-1.6,4.4-1,1-2.5,1.5-4.3,1.5h-23.2,0Z"/>
  <path class="cls-2" d="M116.46,92.77c.7,1.4,1,2.8.7,3.9-.3,1.2-.9,2.1-1.8,2.7-.9.7-1.9,1.1-3.1,1.2-1.2.1-2.3,0-3.4-.7-1.1-.6-1.9-1.5-2.6-2.9l-3.3-7.1c-.6-1.2-1.3-2.1-2.2-2.6s-2.3-.7-4.2-.7l9.3-3.4c2.1,0,3.7.4,5,1.2,1.4.7,2.4,2,3.3,3.7l2.1,4.6.2.1ZM97.86,86.67c-4.6,0-8.7-.9-12.1-2.6s-6.1-4.2-8-7.5-2.9-7.3-2.9-11.9.6-8.1,1.9-11.7c1.3-3.5,3.1-6.6,5.4-9.2,2.3-2.6,5.1-4.5,8.4-5.9s6.9-2.1,10.9-2.1,8.7.9,12.1,2.6c3.5,1.7,6.1,4.2,8,7.6,1.9,3.3,2.9,7.2,2.9,11.8s-.6,8.1-1.9,11.7c-1.3,3.5-3.1,6.6-5.4,9.2-2.3,2.6-5.1,4.6-8.4,5.9-3.2,1.4-6.9,2.1-10.9,2.1h0ZM98.06,76.67c2.9,0,5.5-.8,7.6-2.4s3.7-3.8,4.8-6.6c1.1-2.8,1.7-6.1,1.7-9.7s-1-7.2-2.9-9.2-4.6-3-7.9-3-5.5.8-7.6,2.4c-2.1,1.6-3.7,3.8-4.8,6.6-1.1,2.8-1.6,6-1.6,9.7s1,7.2,2.9,9.2c2,2,4.6,3,7.9,3h-.1ZM145.76,86.57c-1.6,0-2.8-.4-3.8-1.3-.9-.9-1.5-2.2-1.9-4l-7.6-38.2c-.4-2.1-.1-3.8.8-5.1,1-1.3,2.5-2,4.5-2s2.8.5,3.8,1.4c.9.9,1.5,2.2,1.8,4l5.7,32.1h-3.1l17.1-33.1c.7-1.5,1.6-2.6,2.6-3.3s2.2-1,3.6-1,2.6.4,3.4,1.3c.8.9,1.4,2.3,1.8,4.1l5.7,32h-2.8l16.6-33.1c.7-1.4,1.6-2.5,2.5-3.2s2.2-1.1,3.7-1.1c2.2,0,3.8.7,4.5,2.2.8,1.4.7,3.2-.4,5.4l-20,38.7c-.7,1.5-1.7,2.6-2.7,3.3-1.1.7-2.4,1-4.1,1s-2.8-.4-3.7-1.3-1.5-2.2-1.9-4l-5.7-28.8h1.8l-15.5,29.7c-.8,1.5-1.7,2.6-2.8,3.3-1,.7-2.4,1.1-4.1,1.1l.2-.1ZM212.66,85.97c-2.2,0-3.8-.6-4.8-1.7-1-1.2-1.3-2.8-1-5l5.8-37c.3-1.9,1.1-3.3,2.2-4.2,1.1-1,2.6-1.5,4.6-1.5h23.7c1.6,0,2.8.3,3.6,1,.8.7,1.3,1.6,1.3,2.8s-.5,3-1.5,4-2.3,1.5-3.9,1.5h-19l-1.7,10.4h16.6c1.5,0,2.7.3,3.6,1,.8.7,1.3,1.6,1.3,2.8s-.5,3-1.5,4-2.3,1.5-3.9,1.5h-17.4l-1.8,11.2h18.1c1.6,0,2.8.3,3.6,1,.8.7,1.3,1.6,1.3,2.8s-.5,3-1.5,4-2.3,1.5-3.9,1.5h-23.5l-.3-.1ZM255.26,85.97c-2.1,0-3.6-.6-4.6-1.7-1-1.2-1.3-2.8-1-4.8l6-37.9c.3-1.9,1-3.2,2.1-4.1,1.1-.9,2.5-1.4,4.4-1.4s3.4.6,4.3,1.8c.9,1.1,1.2,2.7.9,4.8l-5.2,33.5h16.9c1.7,0,3,.3,3.9,1s1.4,1.6,1.4,2.9c0,1.9-.5,3.3-1.6,4.4-1,1-2.5,1.5-4.3,1.5h-23.2,0ZM295.76,85.97c-2.1,0-3.6-.6-4.6-1.7-1-1.2-1.3-2.8-1-4.8l6-37.9c.3-1.9,1-3.2,2.1-4.1,1.1-.9,2.5-1.4,4.4-1.4s3.4.6,4.3,1.8c.9,1.1,1.2,2.7.9,4.8l-5.2,33.5h16.9c1.7,0,3,.3,3.9,1s1.4,1.6,1.4,2.9c0,1.9-.5,3.3-1.6,4.4-1,1-2.5,1.5-4.3,1.5h-23.2,0Z"/>
  <path class="cls-5" d="M23.86,77.17c.2.8,1.1,1.4,1.7,1.8,1,.8,2.1,1.5,3.2,2.3,2.3,1.9,4.2,4.7,5.7,7.2,1.6,2.7,2.4,5.5,2.8,8.6,0,.5.1,1,.1,1.5.3-2.5.2-5.1-.4-7.6-.7-2.5-1.7-5-3.4-7,0-.1-.2-.2-.2-.3-1.3-1.5-2.6-3-4.1-4.3-.8-.7-1.6-1.4-2.5-2.1-.1,0-.2,0-.4-.1-.7-.4-1.4-.9-2.2-1.1-.3.2-.4.7-.3,1v.1Z"/>
</svg>