<?xml version="1.0" encoding="UTF-8"?>
<svg id="Layer_1" data-name="Layer 1" xmlns="http://www.w3.org/2000/svg" viewBox="0 0 275.43 121.4">
  <defs>
    <style>
      .cls-1 {
        fill: #633311;
      }

      .cls-1, .cls-2, .cls-3 {
        stroke-width: 0px;
      }

      .cls-4 {
        fill: none;
        stroke: #ea0303;
        stroke-miterlimit: 10;
        stroke-width: 4px;
      }

      .cls-2 {
        fill: #fab380;
      }

      .cls-3 {
        fill: #944d1a;
      }
    </style>
  </defs>
  <g>
    <path class="cls-3" d="M52.52,112.22c20.48-5.3,33.76-33.7,8.03-61.9-9.13-12.7,11-20.6,7.68,1.7-.21,3.2.48,3.2,1.04,1.9C104.83-22.08,2.91-17.48,51,66.12c0,0,10.17,18.7,3.11,31.7-7.06,13-8.23,12.5-1.66,14.4h.07Z"/>
    <path class="cls-1" d="M71.34,90.72c-2.28,6.2-6.16,11.9-11.21,11.8h-.48c-.9.3-1.8.5-2.77.2-1.73-.5-2.63-2.3-2.91-4.6-6.92,12.8-8.1,12.3-1.52,14.2,13.84-3.6,24.42-17.7,21.86-35.3,0,0-.07-.2-.14-.3-.21,4.9-1.31,9.8-2.84,14h0Z"/>
    <path class="cls-2" d="M59.65,3.02c-2.91-.6-5.81-.3-8.51,1.2-3.81,2.2-6.5,6.8-8.1,12.3,0,.2.14.3.14.5,2.7-8,8.65-11.5,14.39-11.6,3.04,0,6.3.6,9.34,2.3-1.59-3.2-4.91-4.2-7.33-4.6h0l.07-.1Z"/>
    <path class="cls-1" d="M70.23,39.12c0-.1,0-.2-.07-.3,0-.1-.07-.2-.14-.4-.14-.3-.21-.7-.35-1-.28-.7-.62-1.5-.97-2.2-.07-.2-.21-.3-.28-.5-.21-.3-.35-.6-.55-.9-.42-.6-.83-1.2-1.25-1.7l-.07-.1h-.07c-.28-.2-.55-.5-.83-.7-.21-.2-.42-.3-.62-.5-.14,0-.28-.1-.42-.2-.21,0-.97-.2-1.04-.2h-.69c-.14,0-2.32.62-2.91,1.1h0c-.62.8-1.25,1.5-1.94,2.1-1.25,1.8-2.14,4.1-2.42,6.9.55,2.1,1.25,4.1,2.08,6,1.8,3.2,4.22,5.9,6.64,8.3h0c-1.18-1.5-2.42-3-3.81-4.5-9.13-12.7,11-20.6,7.68,1.7-.21,3.2.48,3.2,1.04,1.9.42-.9.83-1.8,1.25-2.7.28-1.9.48-3.9.55-5.9,0-.8,0-1.5-.07-2.3v-.5c0-.3-.14-.7-.21-1-.14-.8-.35-1.6-.55-2.4h0Z"/>
    <path class="cls-1" d="M53.83,100.32c-.14.3-.28.6-.42.9.14,0,.21.1.35.2v-1.1h.07Z"/>
    <path class="cls-1" d="M41.03,63.52s-8.93-5.1-11.55,9.1c-.83,1-.14,6.5,4.57,7.6,4.7,1.2-7.89,7.6-8.99,10.3s8.23,3.1,8.23,3.1c0,0,.42,8.2-1.25,10.7-.28,5.5,6.71,11.1,6.71,11.1,0,0-2.14-3.7-8.51,1.9-2.91,4.5,11.97-.2,15.64-1.2,4.22-1.3,17.44-20.1-1.25-37.7,0,0-2.77-3.2-.55-11.9,2.21-8.7-2.49-7.2-3.11-2.9l.07-.1Z"/>
    <path class="cls-1" d="M37.57,116.62c1.18-.4,2.35-1,3.32-2-.35-.2-.62-.4-.9-.6-1.59-.9-3.04-2.2-4.22-4-.42-.4-.83-1-1.11-1.6-.21-.4-.48-.8-.62-1.2-.35-.8-.48-1.9-.42-2.9,0-.2,0-.4.07-.6.21-1.1.76-2,1.66-1.9-.21-1.3-.28-2.7-.35-4-.07-1.7-.14-3.3-.69-4.8-.14-.3-.21-.6-.21-.9-1.18.1-2.35.5-3.53.3-.83-.1-1.59-.3-2.42-.6-.42-.2-.9-.4-1.38-.3-.21,0-1.04.4-.97.8,2.14,1.3,7.47,1.5,7.47,1.5,0,0,.42,8.2-1.25,10.7-.21,4.2,3.81,8.4,5.74,10.2-1.18-.6-3.53-.8-7.54,2.7-1.04,1.7.28,2.1,2.56,1.9,1.04-1.9,3.18-2,4.7-2.5l.07-.2Z"/>
    <path class="cls-1" d="M49.82,111.92c-.83,1.2-2.08,2.8-3.39,3.6-.14.2-.35.4-.55.6h0c1.66-.5,4.84-3.9,6.78-8.9-.9,1.7-1.87,3.3-2.91,4.8h0l.07-.1Z"/>
    <path class="cls-1" d="M42.49,61.02h-.07c-.55.5-1.11,1.7-1.18,2.8.07,0,.14,0,.28.1h.07c.55,0,.83-1,.97-1.8v-1.2h0l-.07.1Z"/>
    <path class="cls-1" d="M43.87,80.12c.14.8.76,1.4,1.18,1.8.69.8,1.45,1.5,2.21,2.3,1.59,1.9,2.91,4.7,3.94,7.2,1.11,2.7,1.66,5.5,1.94,8.6,0,.5.07,1,.07,1.5.21-2.5.14-5.1-.28-7.6-.48-2.5-1.18-5-2.35-7,0-.1-.14-.2-.14-.3-.9-1.5-1.8-3-2.84-4.3-.55-.7-1.11-1.4-1.73-2.1-.07,0-.14,0-.28-.1-.48-.4-.97-.9-1.52-1.1-.21.2-.28.7-.21,1v.1Z"/>
    <path class="cls-1" d="M32.59,71.12c.14,0,.21-.2.21-.4s-.14-.4-.28-.4-.21.2-.21.4.14.4.28.4Z"/>
    <path class="cls-2" d="M52.45,97.32c-.14.3-.28.6-.42.9.14,0,.21.1.35.2v-1.1h.07Z"/>
    <path class="cls-2" d="M39.65,60.52s-8.93-5.1-11.55,9.1c-.83,1-.14,6.5,4.57,7.6,4.7,1.2-7.89,7.6-8.99,10.3s8.23,3.1,8.23,3.1c0,0,.42,8.2-1.25,10.7-.28,5.5,6.71,11.1,6.71,11.1,0,0-2.14-3.7-8.51,1.9-2.91,4.5,11.97-.2,15.64-1.2,4.22-1.3,17.44-20.1-1.25-37.7,0,0-2.77-3.2-.55-11.9,2.21-8.7-2.49-7.2-3.11-2.9l.07-.1Z"/>
    <path class="cls-2" d="M36.19,113.62c1.18-.4,2.35-1,3.32-2-.35-.2-.62-.4-.9-.6-1.59-.9-3.04-2.2-4.22-4-.42-.4-.83-1-1.11-1.6-.21-.4-.48-.8-.62-1.2-.35-.8-.48-1.9-.42-2.9,0-.2,0-.4.07-.6.21-1.1.76-2,1.66-1.9-.21-1.3-.28-2.7-.35-4-.07-1.7-.14-3.3-.69-4.8-.14-.3-.21-.6-.21-.9-1.18.1-2.35.5-3.53.3-.83-.1-1.59-.3-2.42-.6-.42-.2-.9-.4-1.38-.3-.21,0-1.04.4-.97.8,2.14,1.3,7.47,1.5,7.47,1.5,0,0,.42,8.2-1.25,10.7-.21,4.2,3.81,8.4,5.74,10.2-1.18-.6-3.53-.8-7.54,2.7-1.04,1.7.28,2.1,2.56,1.9,1.04-1.9,3.18-2,4.7-2.5l.07-.2Z"/>
    <path class="cls-2" d="M48.44,108.92c-.83,1.2-2.08,2.8-3.39,3.6-.14.2-.35.4-.55.6h0c1.66-.5,4.84-3.9,6.78-8.9-.9,1.7-1.87,3.3-2.91,4.8h0l.07-.1Z"/>
    <path class="cls-2" d="M41.1,58.02h-.07c-.55.5-1.11,1.7-1.18,2.8.07,0,.14,0,.28.1h.07c.55,0,.83-1,.97-1.8v-1.2h0l-.07.1Z"/>
    <path class="cls-2" d="M42.49,77.12c.14.8.76,1.4,1.18,1.8.69.8,1.45,1.5,2.21,2.3,1.59,1.9,2.91,4.7,3.94,7.2,1.11,2.7,1.66,5.5,1.94,8.6,0,.5.07,1,.07,1.5.21-2.5.14-5.1-.28-7.6-.48-2.5-1.18-5-2.35-7,0-.1-.14-.2-.14-.3-.9-1.5-1.8-3-2.84-4.3-.55-.7-1.11-1.4-1.73-2.1-.07,0-.14,0-.28-.1-.48-.4-.97-.9-1.52-1.1-.21.2-.28.7-.21,1v.1Z"/>
    <path class="cls-3" d="M53.14,98.32c-.14.3-.28.6-.42.9.14,0,.21.1.35.2v-1.1h.07Z"/>
    <path class="cls-3" d="M40.34,61.52s-8.93-5.1-11.55,9.1c-.83,1-.14,6.5,4.57,7.6,4.7,1.2-7.89,7.6-8.99,10.3s8.23,3.1,8.23,3.1c0,0,.42,8.2-1.25,10.7-.28,5.5,6.71,11.1,6.71,11.1,0,0-2.14-3.7-8.51,1.9-2.91,4.5,11.97-.2,15.64-1.2,4.22-1.3,17.44-20.1-1.25-37.7,0,0-2.77-3.2-.55-11.9,2.21-8.7-2.49-7.2-3.11-2.9l.07-.1Z"/>
    <path class="cls-3" d="M36.88,114.62c1.18-.4,2.35-1,3.32-2-.35-.2-.62-.4-.9-.6-1.59-.9-3.04-2.2-4.22-4-.42-.4-.83-1-1.11-1.6-.21-.4-.48-.8-.62-1.2-.35-.8-.48-1.9-.42-2.9,0-.2,0-.4.07-.6.21-1.1.76-2,1.66-1.9-.21-1.3-.28-2.7-.35-4-.07-1.7-.14-3.3-.69-4.8-.14-.3-.21-.6-.21-.9-1.18.1-2.35.5-3.53.3-.83-.1-1.59-.3-2.42-.6-.42-.2-.9-.4-1.38-.3-.21,0-1.04.4-.97.8,2.14,1.3,7.47,1.5,7.47,1.5,0,0,.42,8.2-1.25,10.7-.21,4.2,3.81,8.4,5.74,10.2-1.18-.6-3.53-.8-7.54,2.7-1.04,1.7.28,2.1,2.56,1.9,1.04-1.9,3.18-2,4.7-2.5l.07-.2Z"/>
    <path class="cls-3" d="M49.13,109.92c-.83,1.2-2.08,2.8-3.39,3.6-.14.2-.35.4-.55.6h0c1.66-.5,4.84-3.9,6.78-8.9-.9,1.7-1.87,3.3-2.91,4.8h0l.07-.1Z"/>
    <path class="cls-3" d="M41.8,59.02h-.07c-.55.5-1.11,1.7-1.18,2.8.07,0,.14,0,.28.1h.07c.55,0,.83-1,.97-1.8v-1.2h0l-.07.1Z"/>
    <path class="cls-3" d="M43.18,78.12c.14.8.76,1.4,1.18,1.8.69.8,1.45,1.5,2.21,2.3,1.59,1.9,2.91,4.7,3.94,7.2,1.11,2.7,1.66,5.5,1.94,8.6,0,.5.07,1,.07,1.5.21-2.5.14-5.1-.28-7.6-.48-2.5-1.18-5-2.35-7,0-.1-.14-.2-.14-.3-.9-1.5-1.8-3-2.84-4.3-.55-.7-1.11-1.4-1.73-2.1-.07,0-.14,0-.28-.1-.48-.4-.97-.9-1.52-1.1-.21.2-.28.7-.21,1v.1Z"/>
    <path class="cls-1" d="M110.01,98.72c.48,1.4.69,2.8.48,3.9-.21,1.2-.62,2.1-1.25,2.7-.62.7-1.31,1.1-2.14,1.2-.83.1-1.59,0-2.35-.7-.76-.6-1.31-1.5-1.8-2.9l-2.28-7.1c-.42-1.2-.9-2.1-1.52-2.6s-1.59-.7-2.91-.7l6.43-3.4c1.45,0,2.56.4,3.46,1.2.97.7,1.66,2,2.28,3.7l1.45,4.6.14.1ZM97.08,92.62c-3.18,0-6.02-.9-8.37-2.6-2.35-1.7-4.22-4.2-5.54-7.5s-2.01-7.3-2.01-11.9.42-8.1,1.31-11.7c.9-3.5,2.14-6.6,3.74-9.2s3.53-4.5,5.81-5.9,4.77-2.1,7.54-2.1,6.02.9,8.37,2.6c2.42,1.7,4.22,4.2,5.54,7.6,1.31,3.3,2.01,7.2,2.01,11.8s-.42,8.1-1.31,11.7c-.9,3.5-2.14,6.6-3.74,9.2-1.59,2.6-3.53,4.6-5.81,5.9-2.21,1.4-4.77,2.1-7.54,2.1h0ZM97.22,82.62c2.01,0,3.81-.8,5.26-2.4s2.56-3.8,3.32-6.6c.76-2.8,1.18-6.1,1.18-9.7s-.69-7.2-2.01-9.2-3.18-3-5.47-3-3.81.8-5.26,2.4-2.56,3.8-3.32,6.6c-.76,2.8-1.11,6-1.11,9.7s.69,7.2,2.01,9.2c1.38,2,3.18,3,5.47,3h-.07ZM130.29,92.52c-1.11,0-1.94-.4-2.63-1.3-.62-.9-1.04-2.2-1.31-4l-5.26-38.2c-.28-2.1-.07-3.8.55-5.1.69-1.3,1.73-2,3.11-2s1.94.5,2.63,1.4c.62.9,1.04,2.2,1.25,4l3.94,32.1h-2.14l11.83-33.1c.48-1.5,1.11-2.6,1.8-3.3.69-.7,1.52-1,2.49-1s1.8.4,2.35,1.3c.55.9.97,2.3,1.25,4.1l3.94,32h-1.94l11.49-33.1c.48-1.4,1.11-2.5,1.73-3.2s1.52-1.1,2.56-1.1c1.52,0,2.63.7,3.11,2.2.55,1.4.48,3.2-.28,5.4l-13.84,38.7c-.48,1.5-1.18,2.6-1.87,3.3-.76.7-1.66,1-2.84,1s-1.94-.4-2.56-1.3c-.62-.9-1.04-2.2-1.31-4l-3.94-28.8h1.25l-10.72,29.8c-.55,1.5-1.18,2.6-1.94,3.3-.69.7-1.66,1.1-2.84,1.1l.14-.2ZM176.57,91.92c-1.52,0-2.63-.6-3.32-1.7-.69-1.2-.9-2.8-.69-5l4.01-37c.21-1.9.76-3.3,1.52-4.2.76-1,1.8-1.5,3.18-1.5h16.4c1.11,0,1.94.3,2.49,1,.55.7.9,1.6.9,2.8s-.35,3-1.04,4-1.59,1.5-2.7,1.5h-13.15l-1.18,10.4h11.49c1.04,0,1.87.3,2.49,1,.55.7.9,1.6.9,2.8s-.35,3-1.04,4-1.59,1.5-2.7,1.5h-12.04l-1.25,11.2h12.52c1.11,0,1.94.3,2.49,1,.55.7.9,1.6.9,2.8s-.35,3-1.04,4-1.59,1.5-2.7,1.5h-16.26l-.21-.1ZM205.98,91.92c-1.45,0-2.49-.6-3.18-1.7-.69-1.2-.9-2.8-.69-4.8l4.15-37.9c.21-1.9.69-3.2,1.45-4.1s1.73-1.4,3.04-1.4,2.35.6,2.98,1.8c.62,1.1.83,2.7.62,4.8l-3.6,33.5h11.69c1.18,0,2.08.3,2.7,1,.62.7.97,1.6.97,2.9,0,1.9-.35,3.3-1.11,4.4-.69,1-1.73,1.5-2.98,1.5h-16.05,0ZM234.07,91.92c-1.45,0-2.49-.6-3.18-1.7-.69-1.2-.9-2.8-.69-4.8l4.15-37.9c.21-1.9.69-3.2,1.45-4.1s1.73-1.4,3.04-1.4,2.35.6,2.98,1.8c.62,1.1.83,2.7.62,4.8l-3.6,33.5h11.69c1.18,0,2.08.3,2.7,1,.62.7.97,1.6.97,2.9,0,1.9-.35,3.3-1.11,4.4-.69,1-1.73,1.5-2.98,1.5h-16.05,0Z"/>
    <path class="cls-2" d="M108.63,94.72c.48,1.4.69,2.8.48,3.9-.21,1.2-.62,2.1-1.25,2.7-.62.7-1.31,1.1-2.14,1.2-.83.1-1.59,0-2.35-.7-.76-.6-1.31-1.5-1.8-2.9l-2.28-7.1c-.42-1.2-.9-2.1-1.52-2.6s-1.59-.7-2.91-.7l6.43-3.4c1.45,0,2.56.4,3.46,1.2.97.7,1.66,2,2.28,3.7l1.45,4.6.14.1ZM95.69,88.62c-3.18,0-6.02-.9-8.37-2.6-2.35-1.7-4.22-4.2-5.54-7.5s-2.01-7.3-2.01-11.9.42-8.1,1.31-11.7c.9-3.5,2.14-6.6,3.74-9.2s3.53-4.5,5.81-5.9,4.77-2.1,7.54-2.1,6.02.9,8.37,2.6c2.42,1.7,4.22,4.2,5.54,7.6,1.31,3.3,2.01,7.2,2.01,11.8s-.42,8.1-1.31,11.7c-.9,3.5-2.14,6.6-3.74,9.2-1.59,2.6-3.53,4.6-5.81,5.9-2.21,1.4-4.77,2.1-7.54,2.1h0ZM95.83,78.62c2.01,0,3.81-.8,5.26-2.4s2.56-3.8,3.32-6.6c.76-2.8,1.18-6.1,1.18-9.7s-.69-7.2-2.01-9.2-3.18-3-5.47-3-3.81.8-5.26,2.4-2.56,3.8-3.32,6.6c-.76,2.8-1.11,6-1.11,9.7s.69,7.2,2.01,9.2c1.38,2,3.18,3,5.47,3h-.07ZM128.9,88.52c-1.11,0-1.94-.4-2.63-1.3-.62-.9-1.04-2.2-1.31-4l-5.26-38.2c-.28-2.1-.07-3.8.55-5.1.69-1.3,1.73-2,3.11-2s1.94.5,2.63,1.4c.62.9,1.04,2.2,1.25,4l3.94,32.1h-2.14l11.83-33.1c.48-1.5,1.11-2.6,1.8-3.3.69-.7,1.52-1,2.49-1s1.8.4,2.35,1.3c.55.9.97,2.3,1.25,4.1l3.94,32h-1.94l11.49-33.1c.48-1.4,1.11-2.5,1.73-3.2s1.52-1.1,2.56-1.1c1.52,0,2.63.7,3.11,2.2.55,1.4.48,3.2-.28,5.4l-13.84,38.7c-.48,1.5-1.18,2.6-1.87,3.3-.76.7-1.66,1-2.84,1s-1.94-.4-2.56-1.3c-.62-.9-1.04-2.2-1.31-4l-3.94-28.8h1.25l-10.72,29.8c-.55,1.5-1.18,2.6-1.94,3.3-.69.7-1.66,1.1-2.84,1.1l.14-.2ZM175.19,87.92c-1.52,0-2.63-.6-3.32-1.7-.69-1.2-.9-2.8-.69-5l4.01-37c.21-1.9.76-3.3,1.52-4.2.76-1,1.8-1.5,3.18-1.5h16.4c1.11,0,1.94.3,2.49,1,.55.7.9,1.6.9,2.8s-.35,3-1.04,4-1.59,1.5-2.7,1.5h-13.15l-1.18,10.4h11.49c1.04,0,1.87.3,2.49,1,.55.7.9,1.6.9,2.8s-.35,3-1.04,4-1.59,1.5-2.7,1.5h-12.04l-1.25,11.2h12.52c1.11,0,1.94.3,2.49,1,.55.7.9,1.6.9,2.8s-.35,3-1.04,4-1.59,1.5-2.7,1.5h-16.26l-.21-.1ZM204.6,87.92c-1.45,0-2.49-.6-3.18-1.7-.69-1.2-.9-2.8-.69-4.8l4.15-37.9c.21-1.9.69-3.2,1.45-4.1s1.73-1.4,3.04-1.4,2.35.6,2.98,1.8c.62,1.1.83,2.7.62,4.8l-3.6,33.5h11.69c1.18,0,2.08.3,2.7,1s.97,1.6.97,2.9c0,1.9-.35,3.3-1.11,4.4-.69,1-1.73,1.5-2.98,1.5h-16.05,0ZM232.69,87.92c-1.45,0-2.49-.6-3.18-1.7-.69-1.2-.9-2.8-.69-4.8l4.15-37.9c.21-1.9.69-3.2,1.45-4.1s1.73-1.4,3.04-1.4,2.35.6,2.98,1.8c.62,1.1.83,2.7.62,4.8l-3.6,33.5h11.69c1.18,0,2.08.3,2.7,1s.97,1.6.97,2.9c0,1.9-.35,3.3-1.11,4.4-.69,1-1.73,1.5-2.98,1.5h-16.05,0Z"/>
    <path class="cls-3" d="M106.56,92.72c.48,1.4.69,2.8.48,3.9-.21,1.2-.62,2.1-1.25,2.7-.62.7-1.31,1.1-2.14,1.2-.83.1-1.59,0-2.35-.7-.76-.6-1.31-1.5-1.8-2.9l-2.28-7.1c-.42-1.2-.9-2.1-1.52-2.6s-1.59-.7-2.91-.7l6.43-3.4c1.45,0,2.56.4,3.46,1.2.97.7,1.66,2,2.28,3.7l1.45,4.6.14.1ZM93.62,86.62c-3.18,0-6.02-.9-8.37-2.6-2.35-1.7-4.22-4.2-5.54-7.5s-2.01-7.3-2.01-11.9.42-8.1,1.31-11.7c.9-3.5,2.14-6.6,3.74-9.2s3.53-4.5,5.81-5.9,4.77-2.1,7.54-2.1,6.02.9,8.37,2.6c2.42,1.7,4.22,4.2,5.54,7.6,1.31,3.3,2.01,7.2,2.01,11.8s-.42,8.1-1.31,11.7c-.9,3.5-2.14,6.6-3.74,9.2-1.59,2.6-3.53,4.6-5.81,5.9-2.21,1.4-4.77,2.1-7.54,2.1h0ZM93.82,76.62c2.01,0,3.81-.8,5.26-2.4s2.56-3.8,3.32-6.6c.76-2.8,1.18-6.1,1.18-9.7s-.69-7.2-2.01-9.2-3.18-3-5.47-3-3.81.8-5.26,2.4-2.56,3.8-3.32,6.6c-.76,2.8-1.11,6-1.11,9.7s.69,7.2,2.01,9.2c1.38,2,3.18,3,5.47,3h-.07ZM126.83,86.52c-1.11,0-1.94-.4-2.63-1.3-.62-.9-1.04-2.2-1.31-4l-5.26-38.2c-.28-2.1-.07-3.8.55-5.1.69-1.3,1.73-2,3.11-2s1.94.5,2.63,1.4c.62.9,1.04,2.2,1.25,4l3.94,32.1h-2.14l11.83-33.1c.48-1.5,1.11-2.6,1.8-3.3.69-.7,1.52-1,2.49-1s1.8.4,2.35,1.3c.55.9.97,2.3,1.25,4.1l3.94,32h-1.94l11.49-33.1c.48-1.4,1.11-2.5,1.73-3.2s1.52-1.1,2.56-1.1c1.52,0,2.63.7,3.11,2.2.55,1.4.48,3.2-.28,5.4l-13.84,38.7c-.48,1.5-1.18,2.6-1.87,3.3-.76.7-1.66,1-2.84,1s-1.94-.4-2.56-1.3c-.62-.9-1.04-2.2-1.31-4l-3.94-28.8h1.25l-10.72,29.7c-.55,1.5-1.18,2.6-1.94,3.3-.69.7-1.66,1.1-2.84,1.1l.14-.1ZM173.11,85.92c-1.52,0-2.63-.6-3.32-1.7-.69-1.2-.9-2.8-.69-5l4.01-37c.21-1.9.76-3.3,1.52-4.2.76-1,1.8-1.5,3.18-1.5h16.4c1.11,0,1.94.3,2.49,1,.55.7.9,1.6.9,2.8s-.35,3-1.04,4-1.59,1.5-2.7,1.5h-13.15l-1.18,10.4h11.49c1.04,0,1.87.3,2.49,1,.55.7.9,1.6.9,2.8s-.35,3-1.04,4-1.59,1.5-2.7,1.5h-12.04l-1.25,11.2h12.52c1.11,0,1.94.3,2.49,1,.55.7.9,1.6.9,2.8s-.35,3-1.04,4-1.59,1.5-2.7,1.5h-16.26l-.21-.1ZM202.52,85.92c-1.45,0-2.49-.6-3.18-1.7-.69-1.2-.9-2.8-.69-4.8l4.15-37.9c.21-1.9.69-3.2,1.45-4.1s1.73-1.4,3.04-1.4,2.35.6,2.98,1.8c.62,1.1.83,2.7.62,4.8l-3.6,33.5h11.69c1.18,0,2.08.3,2.7,1s.97,1.6.97,2.9c0,1.9-.35,3.3-1.11,4.4-.69,1-1.73,1.5-2.98,1.5h-16.05,0ZM230.61,85.92c-1.45,0-2.49-.6-3.18-1.7-.69-1.2-.9-2.8-.69-4.8l4.15-37.9c.21-1.9.69-3.2,1.45-4.1s1.73-1.4,3.04-1.4,2.35.6,2.98,1.8c.62,1.1.83,2.7.62,4.8l-3.6,33.5h11.69c1.18,0,2.08.3,2.7,1s.97,1.6.97,2.9c0,1.9-.35,3.3-1.11,4.4-.69,1-1.73,1.5-2.98,1.5h-16.05,0Z"/>
    <path class="cls-3" d="M28.86,72.22s-1.38-1.7.14-2.2c.62.3-.14,2.2-.14,2.2Z"/>
  </g>
  <line class="cls-4" x1=".63" y1="119.51" x2="274.8" y2="28.76"/>
</svg>