<svg width="951" height="738" viewBox="0 0 951 738" fill="none" xmlns="http://www.w3.org/2000/svg">
<g clip-path="url(#clip0_1355_3695)">
<path d="M36.0255 368.744C36.0255 368.744 21.0683 682.759 232.606 654.989C444.143 627.219 343.716 328.157 343.716 328.157C343.716 328.157 185.597 225.621 36.0255 368.744Z" fill="#944D1A"/>
<path d="M343.716 328.157C343.716 328.157 185.597 225.621 36.0254 368.744C36.0254 368.744 35.7049 375.686 35.8331 387.414C40.3844 385.278 45.363 383.953 50.3843 383.59C51.5809 383.505 61.2176 382.565 61.0681 382.693C65.8116 382.052 70.5552 381.155 75.256 380.236C85.2987 378.25 95.2559 375.814 105.149 373.208C124.337 368.167 143.333 362.378 162.649 357.764C199.401 348.963 238.268 345.246 276.302 343.473C284.806 335.227 296.964 331.639 309.806 334.565C327.669 338.624 339.934 360.199 334.272 377.63C334.229 377.801 334.186 377.951 334.122 378.121C334.742 378.42 335.383 378.72 335.981 379.083C347.285 385.683 352.926 402.623 345.148 414.009C339.208 422.682 335.383 431.098 336.9 441.224C338.738 453.4 345.725 464.251 352.434 474.27C360.148 485.784 354.635 502.553 343.268 509.196C335.447 513.767 326.665 513.49 319.315 509.794C317.691 515.241 315.811 520.582 313.717 525.858C314.101 527.652 314.336 529.575 314.358 531.647C314.764 569.607 308.182 607.246 288.802 638.263C424.357 568.432 343.738 328.221 343.738 328.221L343.716 328.157Z" fill="#944D1A"/>
<path d="M34.3374 391.152C34.3374 391.152 -31.3033 352.06 18.9102 291.842C69.1236 231.602 265.191 192.511 350.105 253.391C435.019 314.272 345.511 355.2 345.511 355.2C345.511 355.2 34.0597 401.854 34.3374 391.152Z" fill="#944D1A"/>
<path d="M373.908 274.795C354.101 291.5 329.913 303.142 305.362 312.349C288.845 328.221 268.781 339.222 246.794 346.314C245.191 347.425 243.46 348.301 241.58 348.92C221.516 359.195 200.341 367.312 178.439 372.696C148.653 380.023 116.922 385.534 86.1534 383.12C59.8714 381.069 22.2648 377.053 9.87168 350.031C9.61527 349.476 9.40159 348.92 9.16655 348.343C6.04691 346.613 3.07684 344.605 0.299072 342.191C3.71786 372.931 34.316 391.152 34.316 391.152C34.0596 401.833 345.49 355.2 345.49 355.2C345.49 355.2 414.421 323.671 373.866 274.795H373.908Z" fill="#944D1A"/>
<path d="M166.367 240.574C166.367 240.574 164.23 189.306 149.273 174.353C134.316 159.4 159.957 138.039 170.64 174.353C181.324 210.668 179.187 238.438 177.05 244.846C174.914 251.255 166.367 240.574 166.367 240.574Z" fill="#944D1A"/>
<path d="M169.743 199.496C169.08 193.515 168.653 187.726 165.598 182.428C161.431 175.229 156.986 169.91 153.974 161.9C153.055 159.443 152.841 156.88 153.183 154.402C145.491 155.064 140.662 165.745 149.273 174.353C164.23 189.306 166.367 240.574 166.367 240.574C166.367 240.574 173.397 249.354 176.303 246.15C174.209 230.577 171.452 215.111 169.743 199.496Z" fill="#944D1A"/>
<path d="M36.0255 368.744C36.0255 368.744 21.0683 682.759 232.606 654.989C444.143 627.219 343.716 328.157 343.716 328.157C343.716 328.157 185.597 225.621 36.0255 368.744Z" fill="#F9A66B"/>
<path d="M343.716 328.157C343.716 328.157 185.597 225.621 36.0254 368.744C36.0254 368.744 35.7049 375.686 35.8331 387.414C40.3844 385.278 45.363 383.953 50.3843 383.59C51.5809 383.505 61.2176 382.565 61.0681 382.693C65.8116 382.052 70.5552 381.155 75.256 380.236C85.2987 378.25 95.2559 375.814 105.149 373.208C124.337 368.167 143.333 362.378 162.649 357.764C199.401 348.963 238.268 345.246 276.302 343.473C284.806 335.227 296.964 331.639 309.806 334.565C327.669 338.624 339.934 360.199 334.272 377.63C334.229 377.801 334.186 377.951 334.122 378.121C334.742 378.42 335.383 378.72 335.981 379.083C347.285 385.683 352.926 402.623 345.148 414.009C339.208 422.682 335.383 431.098 336.9 441.224C338.738 453.4 345.725 464.251 352.434 474.27C360.148 485.784 354.635 502.553 343.268 509.196C335.447 513.767 326.665 513.49 319.315 509.794C317.691 515.241 315.811 520.582 313.717 525.858C314.101 527.652 314.336 529.575 314.358 531.647C314.764 569.607 308.182 607.246 288.802 638.263C424.357 568.432 343.738 328.221 343.738 328.221L343.716 328.157Z" fill="#B77B53"/>
<path d="M34.3374 391.152C34.3374 391.152 -31.3033 352.06 18.9102 291.842C69.1236 231.602 265.191 192.511 350.105 253.391C435.019 314.272 345.511 355.2 345.511 355.2C345.511 355.2 34.0597 401.854 34.3374 391.152Z" fill="#AD5A1E"/>
<path d="M373.908 274.795C354.101 291.5 329.913 303.142 305.362 312.349C288.845 328.221 268.781 339.222 246.794 346.314C245.191 347.425 243.46 348.301 241.58 348.92C221.516 359.195 200.341 367.312 178.439 372.696C148.653 380.023 116.922 385.534 86.1534 383.12C59.8714 381.069 22.2648 377.053 9.87168 350.031C9.61527 349.476 9.40159 348.92 9.16655 348.343C6.04691 346.613 3.07684 344.605 0.299072 342.191C3.71786 372.931 34.316 391.152 34.316 391.152C34.0596 401.833 345.49 355.2 345.49 355.2C345.49 355.2 414.421 323.671 373.866 274.795H373.908Z" fill="#7C4016"/>
<path d="M166.367 240.574C166.367 240.574 164.23 189.306 149.273 174.353C134.316 159.4 159.957 138.039 170.64 174.353C181.324 210.668 179.187 238.438 177.05 244.846C174.914 251.255 166.367 240.574 166.367 240.574Z" fill="#AD5A1E"/>
<path d="M169.743 199.496C169.08 193.515 168.653 187.726 165.598 182.428C161.431 175.229 156.986 169.91 153.974 161.9C153.055 159.443 152.841 156.88 153.183 154.402C145.491 155.064 140.662 165.745 149.273 174.353C164.23 189.306 166.367 240.574 166.367 240.574C166.367 240.574 173.397 249.354 176.303 246.15C174.209 230.577 171.452 215.111 169.743 199.496Z" fill="#7C4016"/>
<path d="M529.613 697.712C736.877 721.21 922.774 580.223 732.603 332.429C670.638 227.757 880.039 234.166 803.116 364.471C794.569 383.697 800.979 385.833 809.526 379.424C1305.25 1.32441 315.939 -250.742 608.672 405.058C608.672 405.058 668.501 550.317 574.484 612.266C480.468 674.214 469.784 667.806 529.613 697.712Z" fill="#944D1A"/>
<path d="M754.569 614.872C719.847 647.448 671.386 672.377 623.01 658.022C621.407 657.552 619.933 656.933 618.587 656.249C609.249 655.886 600.083 654.156 591.878 649.862C576.365 641.723 571.343 627.902 572.989 613.248C480.361 674.15 470.083 667.977 529.592 697.733C669.869 713.626 800.338 654.198 811.086 537.286C810.83 536.56 810.53 535.855 810.253 535.129C798.287 565.484 777.881 593.019 754.569 614.893V614.872Z" fill="#633311"/>
<path d="M820.06 33.794C793.437 22.1733 764.975 15.8076 735.873 18.1787C694.741 21.5111 659.57 43.0009 633.138 72.8857C633.373 74.0179 633.523 75.1073 633.566 76.1754C676.129 33.4736 739.804 28.1332 795.851 43.2359C825.488 51.2251 855.167 64.6615 880.979 83.0538C872.56 58.5094 842.09 43.4281 820.082 33.8154L820.06 33.794Z" fill="#FAB380"/>
<path d="M848.394 288.83C848.308 287.997 848.244 287.399 848.201 287.014C848.052 286.117 847.924 285.241 847.774 284.344C847.347 281.973 846.855 279.623 846.321 277.273C845.06 271.784 843.479 266.358 841.577 261.06C841.107 259.736 840.595 258.411 840.082 257.108C839.013 254.737 837.881 252.387 836.663 250.102C834.077 245.21 831.107 240.638 828.03 236.024C827.774 235.661 827.582 235.362 827.432 235.106C827.24 234.913 826.983 234.657 826.663 234.294C824.59 232.051 822.624 229.744 820.424 227.608C818.8 226.027 817.09 224.553 815.402 223.058C814.27 222.246 813.137 221.477 811.962 220.729C810.082 219.533 808.137 218.422 806.172 217.376C805.424 216.991 804.633 216.628 803.885 216.265C803.543 216.137 803.095 215.987 802.518 215.752C800.317 215.175 798.202 214.385 796.001 213.872C794.804 213.595 793.586 213.36 792.368 213.125C792.219 213.125 792.069 213.103 791.898 213.082C789.484 213.039 787.091 212.847 784.676 212.89C783.501 212.911 773.522 214.107 779.441 213.146C774.548 213.936 769.655 213.787 765.125 212.676C764.997 212.697 764.868 212.74 764.74 212.761C757.304 216.307 749.484 218.871 741.471 220.772C725.681 228.59 712.775 240.702 704.463 257.129C705.488 271.89 708.095 286.438 712.155 300.6C722.903 325.85 740.552 349.07 759.441 370.752C759.548 370.837 759.655 370.944 759.783 371.029C751.749 358.469 742.71 345.609 732.604 332.429C670.638 227.757 880.039 234.166 803.116 364.471C794.569 383.697 800.979 385.833 809.526 379.425C815.573 374.81 821.385 370.218 827.005 365.646C833.842 354.431 839.847 342.832 844.056 330.507C845.701 325.7 847.09 320.872 848.03 315.874C848.159 315.148 848.265 314.421 848.394 313.695C848.436 313.31 848.479 312.798 848.565 312.093C848.65 309.807 848.885 307.521 848.971 305.214C849.141 299.703 848.714 294.299 848.415 288.809L848.394 288.83Z" fill="#633311"/>
<path d="M607.903 578.237C606.301 580.8 604.613 583.321 602.775 585.777C604.313 586.141 605.766 586.696 607.112 587.358C607.241 584.346 607.583 581.292 607.903 578.237Z" fill="#633311"/>
<path d="M316.046 348.151C331.646 348.151 344.293 335.068 344.293 318.928C344.293 302.789 331.646 289.706 316.046 289.706C300.445 289.706 287.798 302.789 287.798 318.928C287.798 335.068 300.445 348.151 316.046 348.151Z" stroke="#3E655D" stroke-width="1.82" stroke-miterlimit="10"/>
<path d="M313.909 346.015C329.51 346.015 342.157 332.931 342.157 316.792C342.157 300.653 329.51 287.57 313.909 287.57C298.308 287.57 285.661 300.653 285.661 316.792C285.661 332.931 298.308 346.015 313.909 346.015Z" stroke="#65847D" stroke-width="1.82" stroke-miterlimit="10"/>
<path d="M442.007 259.8C442.007 259.8 324.486 214.94 288.161 336.701C277.477 345.246 286.024 392.241 347.99 402.922C409.955 413.603 243.29 467.007 228.332 490.505C213.375 514.002 337.306 518.275 337.306 518.275C337.306 518.275 341.58 588.768 320.212 610.13C315.939 657.125 407.819 706.257 407.819 706.257C407.819 706.257 380.041 674.214 294.571 721.21C256.11 759.661 452.69 721.21 501.835 712.665C557.391 701.984 734.74 541.773 489.015 387.969C489.015 387.969 452.69 360.199 482.605 285.434C512.519 210.668 450.554 223.485 442.007 259.8Z" fill="#F7802B"/>
<path d="M390.96 716.574C406.43 713.242 422.071 708.179 434.742 699.763C430.639 698.097 426.601 696.302 422.733 694.38C401.9 686.07 382.584 674.642 367.263 658.941C361.75 655.16 356.644 650.46 352.669 645.034C349.507 641.745 346.686 638.199 344.315 634.332C340.062 627.454 338.204 617.991 339.229 609.382C339.293 607.481 339.635 605.665 340.298 603.956C343.075 594.108 350.319 586.632 362.904 587.657C360.725 576.186 359.934 564.373 359.122 552.816C358.075 537.927 357.434 524.406 350.362 511.781C348.909 509.175 347.904 506.419 347.306 503.621C331.729 504.603 316.238 507.38 300.49 505.906C289.785 504.902 279.251 502.852 268.781 500.352C262.905 498.942 257.029 497.212 250.939 497.874C248.546 498.131 237.392 500.844 238.161 504.368C266.11 515.797 337.285 518.253 337.285 518.253C337.285 518.253 341.558 588.747 320.191 610.108C316.922 646.06 369.934 683.272 395.019 698.759C379.549 693.354 348.588 691.474 294.55 721.188C280.426 735.308 298.011 739.047 328.332 737.722C342.498 721.594 370.703 720.932 390.96 716.574Z" fill="#C66622"/>
<path d="M553.523 677.461C541.985 687.8 525.404 701.109 508.16 707.944C505.874 709.653 503.523 711.255 501.152 712.772C501.365 712.729 501.622 712.686 501.835 712.644C524.25 708.329 566.493 679.662 592.754 636.874C580.446 651.122 567.562 664.858 553.523 677.44V677.461Z" fill="#C66622"/>
<path d="M461.088 238.865C460.703 239.036 460.318 239.164 459.934 239.378C452.37 243.308 445.489 253.477 443.844 262.94C444.955 263.324 446.088 263.73 447.177 264.115C447.562 264.264 447.925 264.435 448.31 264.606C455.66 263.837 459.207 256.168 461.194 249.375C461.109 245.872 461.045 242.347 461.109 238.865H461.088Z" fill="#FAB380"/>
<path d="M314.016 382.671C311.858 384.103 309.742 385.534 307.691 386.986C311.558 389.785 316.003 392.391 321.003 394.719C318.396 390.874 316.067 386.858 314.037 382.671H314.016Z" fill="#FAB380"/>
<path d="M477.883 402.922C479.464 409.395 488.139 415.184 493.096 418.986C502.412 426.163 512.626 432.059 521.899 439.28C542.69 455.429 559.677 479.76 573.395 502.018C587.861 525.495 594.698 549.527 598.032 576.741C598.544 580.928 598.95 585.115 599.207 589.302C601.985 567.492 601.108 545.425 596.621 524.128C590.211 502.275 581.301 480.892 566.066 463.717C565.211 462.756 564.656 461.752 564.314 460.727C552.946 447.44 540.852 434.815 527.583 423.216C520.34 416.893 512.669 410.762 504.528 405.315C503.459 405.229 502.348 404.887 501.237 404.268C494.699 400.658 488.118 396.279 480.788 394.377C478.31 395.851 477.241 400.295 477.883 402.922Z" fill="#FAB380"/>
<path d="M335.169 336.701C341.07 336.701 345.853 331.919 345.853 326.02C345.853 320.122 341.07 315.34 335.169 315.34C329.269 315.34 324.486 320.122 324.486 326.02C324.486 331.919 329.269 336.701 335.169 336.701Z" fill="#190D04"/>
<path d="M329.828 323.884C331.598 323.884 333.033 322.45 333.033 320.68C333.033 318.91 331.598 317.476 329.828 317.476C328.057 317.476 326.622 318.91 326.622 320.68C326.622 322.45 328.057 323.884 329.828 323.884Z" fill="#FEF2EA"/>
<path d="M286.024 355.927C286.024 355.927 267.606 341.337 288.161 336.701C296.665 339.777 286.024 355.927 286.024 355.927Z" fill="#633311"/>
<path d="M318.076 392.241C318.076 392.241 333.033 405.058 337.306 373.016C337.306 343.11 311.665 381.56 305.255 379.424C298.845 377.288 307.392 387.969 318.076 392.241Z" fill="#7C4016"/>
<path d="M339.892 353.791C358.714 353.791 373.973 338.01 373.973 318.544C373.973 299.078 358.714 283.297 339.892 283.297C321.069 283.297 305.811 299.078 305.811 318.544C305.811 338.01 321.069 353.791 339.892 353.791Z" stroke="#3E655D" stroke-width="2.2" stroke-miterlimit="10"/>
<path d="M337.755 351.654C356.577 351.654 371.836 335.874 371.836 316.408C371.836 296.942 356.577 281.161 337.755 281.161C318.932 281.161 303.674 296.942 303.674 316.408C303.674 335.874 318.932 351.654 337.755 351.654Z" stroke="#65847D" stroke-width="2.2" stroke-miterlimit="10"/>
<path d="M288.161 326.02C288.161 326.02 294.571 321.748 303.118 326.02" stroke="#65847D" stroke-width="1.66" stroke-miterlimit="10" stroke-linecap="round"/>
<path d="M38.1622 405.058C38.1622 405.058 42.4357 473.415 68.0766 552.453C68.0766 552.453 46.7092 426.42 53.1194 413.603C53.1194 409.331 38.1622 405.058 38.1622 405.058Z" fill="#B77B53"/>
</g>
<defs>
<clipPath id="clip0_1355_3695">
<rect width="951" height="738" fill="white"/>
</clipPath>
</defs>
</svg>
