<?xml version="1.0" encoding="UTF-8"?>
<svg id="Layer_1" data-name="Layer 1" xmlns="http://www.w3.org/2000/svg" viewBox="0 0 512.9 173.14">
  <defs>
    <style>
      .cls-1 {
        fill: #633311;
      }

      .cls-1, .cls-2, .cls-3 {
        stroke-width: 0px;
      }

      .cls-4 {
        fill: none;
        stroke: #ea0303;
        stroke-miterlimit: 10;
        stroke-width: 4px;
      }

      .cls-2 {
        fill: #fab380;
      }

      .cls-3 {
        fill: #944d1a;
      }
    </style>
  </defs>
  <g>
    <path class="cls-3" d="M76.61,134.55c44.24-5.3,72.93-33.7,17.34-61.9-19.73-12.7,23.76-20.6,16.59,1.7-.45,3.2,1.05,3.2,2.24,1.9C189.6.25-30.54,4.85,73.33,88.45c0,0,21.97,18.7,6.73,31.7-15.24,13-17.78,12.5-3.59,14.4h.15Z"/>
    <path class="cls-1" d="M117.27,113.05c-4.93,6.2-13.3,11.9-24.21,11.8h-1.05c-1.94.3-3.89.5-5.98.2-3.74-.5-5.68-2.3-6.28-4.6-14.95,12.8-17.49,12.3-3.29,14.2,29.89-3.6,52.76-17.7,47.23-35.3,0,0-.15-.2-.3-.3-.45,4.9-2.84,9.8-6.13,14h0Z"/>
    <path class="cls-2" d="M92.01,25.35c-6.28-.6-12.55-.3-18.38,1.2-8.22,2.2-14.05,6.8-17.49,12.3,0,.2.3.3.3.5,5.83-8,18.68-11.5,31.09-11.6,6.58,0,13.6.6,20.18,2.3-3.44-3.2-10.61-4.2-15.84-4.6h0l.15-.1Z"/>
    <path class="cls-1" d="M114.87,61.45c0-.1,0-.2-.15-.3,0-.1-.15-.2-.3-.4-.3-.3-.45-.7-.75-1-.6-.7-1.35-1.5-2.09-2.2-.15-.2-.45-.3-.6-.5-.45-.3-.75-.6-1.2-.9-.9-.6-1.79-1.2-2.69-1.7l-.15-.1h-.15c-.6-.2-1.2-.5-1.79-.7-.45-.2-.9-.3-1.35-.5-.3,0-.6-.1-.9-.2-.45,0-2.09-.2-2.24-.2h-1.49c-.3,0-5.01.62-6.28,1.1h0c-1.35.8-2.69,1.5-4.18,2.1-2.69,1.8-4.63,4.1-5.23,6.9,1.2,2.1,2.69,4.1,4.48,6,3.89,3.2,9.12,5.9,14.35,8.3h0c-2.54-1.5-5.23-3-8.22-4.5-19.73-12.7,23.76-20.6,16.59,1.7-.45,3.2,1.05,3.2,2.24,1.9.9-.9,1.79-1.8,2.69-2.7.6-1.9,1.05-3.9,1.2-5.9,0-.8,0-1.5-.15-2.3v-.5c0-.3-.3-.7-.45-1-.3-.8-.75-1.6-1.2-2.4h0Z"/>
    <path class="cls-1" d="M79.45,122.65c-.3.3-.6.6-.9.9.3,0,.45.1.75.2v-1.1h.15Z"/>
    <path class="cls-1" d="M51.81,85.85s-19.28-5.1-24.96,9.1c-1.79,1-.3,6.5,9.86,7.6,10.16,1.2-17.04,7.6-19.43,10.3s17.78,3.1,17.78,3.1c0,0,.9,8.2-2.69,10.7-.6,5.5,14.5,11.1,14.5,11.1,0,0-4.63-3.7-18.38,1.9-6.28,4.5,25.86-.2,33.78-1.2,9.12-1.3,37.66-20.1-2.69-37.7,0,0-5.98-3.2-1.2-11.9,4.78-8.7-5.38-7.2-6.73-2.9l.15-.1Z"/>
    <path class="cls-1" d="M44.33,138.95c2.54-.4,5.08-1,7.17-2-.75-.2-1.35-.4-1.94-.6-3.44-.9-6.58-2.2-9.12-4-.9-.4-1.79-1-2.39-1.6-.45-.4-1.05-.8-1.35-1.2-.75-.8-1.05-1.9-.9-2.9,0-.2,0-.4.15-.6.45-1.1,1.64-2,3.59-1.9-.45-1.3-.6-2.7-.75-4-.15-1.7-.3-3.3-1.49-4.8-.3-.3-.45-.6-.45-.9-2.54.1-5.08.5-7.62.3-1.79-.1-3.44-.3-5.23-.6-.9-.2-1.94-.4-2.99-.3-.45,0-2.24.4-2.09.8,4.63,1.3,16.14,1.5,16.14,1.5,0,0,.9,8.2-2.69,10.7-.45,4.2,8.22,8.4,12.4,10.2-2.54-.6-7.62-.8-16.29,2.7-2.24,1.7.6,2.1,5.53,1.9,2.24-1.9,6.87-2,10.16-2.5l.15-.2Z"/>
    <path class="cls-1" d="M70.79,134.25c-1.79,1.2-4.48,2.8-7.32,3.6-.3.2-.75.4-1.2.6h0c3.59-.5,10.46-3.9,14.65-8.9-1.94,1.7-4.04,3.3-6.28,4.8h0l.15-.1Z"/>
    <path class="cls-1" d="M54.94,83.35h-.15c-1.2.5-2.39,1.7-2.54,2.8.15,0,.3,0,.6.1h.15c1.2,0,1.79-1,2.09-1.8v-1.2h0l-.15.1Z"/>
    <path class="cls-1" d="M57.93,102.45c.3.8,1.64,1.4,2.54,1.8,1.49.8,3.14,1.5,4.78,2.3,3.44,1.9,6.28,4.7,8.52,7.2,2.39,2.7,3.59,5.5,4.18,8.6,0,.5.15,1,.15,1.5.45-2.5.3-5.1-.6-7.6-1.05-2.5-2.54-5-5.08-7,0-.1-.3-.2-.3-.3-1.94-1.5-3.89-3-6.13-4.3-1.2-.7-2.39-1.4-3.74-2.1-.15,0-.3,0-.6-.1-1.05-.4-2.09-.9-3.29-1.1-.45.2-.6.7-.45,1v.1Z"/>
    <path class="cls-1" d="M33.57,93.45c.3,0,.45-.2.45-.4s-.3-.4-.6-.4-.45.2-.45.4.3.4.6.4Z"/>
    <path class="cls-2" d="M76.47,119.65c-.3.3-.6.6-.9.9.3,0,.45.1.75.2v-1.1h.15Z"/>
    <path class="cls-2" d="M48.82,82.85s-19.28-5.1-24.96,9.1c-1.79,1-.3,6.5,9.86,7.6,10.16,1.2-17.04,7.6-19.43,10.3s17.78,3.1,17.78,3.1c0,0,.9,8.2-2.69,10.7-.6,5.5,14.5,11.1,14.5,11.1,0,0-4.63-3.7-18.38,1.9-6.28,4.5,25.86-.2,33.78-1.2,9.12-1.3,37.66-20.1-2.69-37.7,0,0-5.98-3.2-1.2-11.9,4.78-8.7-5.38-7.2-6.73-2.9l.15-.1Z"/>
    <path class="cls-2" d="M41.34,135.95c2.54-.4,5.08-1,7.17-2-.75-.2-1.35-.4-1.94-.6-3.44-.9-6.58-2.2-9.12-4-.9-.4-1.79-1-2.39-1.6-.45-.4-1.05-.8-1.35-1.2-.75-.8-1.05-1.9-.9-2.9,0-.2,0-.4.15-.6.45-1.1,1.64-2,3.59-1.9-.45-1.3-.6-2.7-.75-4-.15-1.7-.3-3.3-1.49-4.8-.3-.3-.45-.6-.45-.9-2.54.1-5.08.5-7.62.3-1.79-.1-3.44-.3-5.23-.6-.9-.2-1.94-.4-2.99-.3-.45,0-2.24.4-2.09.8,4.63,1.3,16.14,1.5,16.14,1.5,0,0,.9,8.2-2.69,10.7-.45,4.2,8.22,8.4,12.4,10.2-2.54-.6-7.62-.8-16.29,2.7-2.24,1.7.6,2.1,5.53,1.9,2.24-1.9,6.87-2,10.16-2.5l.15-.2Z"/>
    <path class="cls-2" d="M67.8,131.25c-1.79,1.2-4.48,2.8-7.32,3.6-.3.2-.75.4-1.2.6h0c3.59-.5,10.46-3.9,14.65-8.9-1.94,1.7-4.04,3.3-6.28,4.8h0l.15-.1Z"/>
    <path class="cls-2" d="M51.96,80.35h-.15c-1.2.5-2.39,1.7-2.54,2.8.15,0,.3,0,.6.1h.15c1.2,0,1.79-1,2.09-1.8v-1.2h0l-.15.1Z"/>
    <path class="cls-2" d="M54.94,99.45c.3.8,1.64,1.4,2.54,1.8,1.49.8,3.14,1.5,4.78,2.3,3.44,1.9,6.28,4.7,8.52,7.2,2.39,2.7,3.59,5.5,4.18,8.6,0,.5.15,1,.15,1.5.45-2.5.3-5.1-.6-7.6-1.05-2.5-2.54-5-5.08-7,0-.1-.3-.2-.3-.3-1.94-1.5-3.89-3-6.13-4.3-1.2-.7-2.39-1.4-3.74-2.1-.15,0-.3,0-.6-.1-1.05-.4-2.09-.9-3.29-1.1-.45.2-.6.7-.45,1v.1Z"/>
    <path class="cls-3" d="M77.96,120.65c-.3.3-.6.6-.9.9.3,0,.45.1.75.2v-1.1h.15Z"/>
    <path class="cls-3" d="M50.31,83.85s-19.28-5.1-24.96,9.1c-1.79,1-.3,6.5,9.86,7.6,10.16,1.2-17.04,7.6-19.43,10.3s17.78,3.1,17.78,3.1c0,0,.9,8.2-2.69,10.7-.6,5.5,14.5,11.1,14.5,11.1,0,0-4.63-3.7-18.38,1.9-6.28,4.5,25.86-.2,33.78-1.2,9.12-1.3,37.66-20.1-2.69-37.7,0,0-5.98-3.2-1.2-11.9,4.78-8.7-5.38-7.2-6.73-2.9l.15-.1Z"/>
    <path class="cls-3" d="M42.84,136.95c2.54-.4,5.08-1,7.17-2-.75-.2-1.35-.4-1.94-.6-3.44-.9-6.58-2.2-9.12-4-.9-.4-1.79-1-2.39-1.6-.45-.4-1.05-.8-1.35-1.2-.75-.8-1.05-1.9-.9-2.9,0-.2,0-.4.15-.6.45-1.1,1.64-2,3.59-1.9-.45-1.3-.6-2.7-.75-4-.15-1.7-.3-3.3-1.49-4.8-.3-.3-.45-.6-.45-.9-2.54.1-5.08.5-7.62.3-1.79-.1-3.44-.3-5.23-.6-.9-.2-1.94-.4-2.99-.3-.45,0-2.24.4-2.09.8,4.63,1.3,16.14,1.5,16.14,1.5,0,0,.9,8.2-2.69,10.7-.45,4.2,8.22,8.4,12.4,10.2-2.54-.6-7.62-.8-16.29,2.7-2.24,1.7.6,2.1,5.53,1.9,2.24-1.9,6.87-2,10.16-2.5l.15-.2Z"/>
    <path class="cls-3" d="M69.29,132.25c-1.79,1.2-4.48,2.8-7.32,3.6-.3.2-.75.4-1.2.6h0c3.59-.5,10.46-3.9,14.65-8.9-1.94,1.7-4.04,3.3-6.28,4.8h0l.15-.1Z"/>
    <path class="cls-3" d="M53.45,81.35h-.15c-1.2.5-2.39,1.7-2.54,2.8.15,0,.3,0,.6.1h.15c1.2,0,1.79-1,2.09-1.8v-1.2h0l-.15.1Z"/>
    <path class="cls-3" d="M56.44,100.45c.3.8,1.64,1.4,2.54,1.8,1.49.8,3.14,1.5,4.78,2.3,3.44,1.9,6.28,4.7,8.52,7.2,2.39,2.7,3.59,5.5,4.18,8.6,0,.5.15,1,.15,1.5.45-2.5.3-5.1-.6-7.6-1.05-2.5-2.54-5-5.08-7,0-.1-.3-.2-.3-.3-1.94-1.5-3.89-3-6.13-4.3-1.2-.7-2.39-1.4-3.74-2.1-.15,0-.3,0-.6-.1-1.05-.4-2.09-.9-3.29-1.1-.45.2-.6.7-.45,1v.1Z"/>
    <path class="cls-1" d="M200.81,121.05c1.05,1.4,1.49,2.8,1.05,3.9-.45,1.2-1.35,2.1-2.69,2.7-1.35.7-2.84,1.1-4.63,1.2-1.79.1-3.44,0-5.08-.7-1.64-.6-2.84-1.5-3.89-2.9l-4.93-7.1c-.9-1.2-1.94-2.1-3.29-2.6s-3.44-.7-6.28-.7l13.9-3.4c3.14,0,5.53.4,7.47,1.2,2.09.7,3.59,2,4.93,3.7l3.14,4.6.3.1ZM172.86,114.95c-6.87,0-13-.9-18.08-2.6-5.08-1.7-9.12-4.2-11.96-7.5s-4.33-7.3-4.33-11.9.9-8.1,2.84-11.7c1.94-3.5,4.63-6.6,8.07-9.2s7.62-4.5,12.55-5.9,10.31-2.1,16.29-2.1,13,.9,18.08,2.6c5.23,1.7,9.12,4.2,11.96,7.6,2.84,3.3,4.33,7.2,4.33,11.8s-.9,8.1-2.84,11.7c-1.94,3.5-4.63,6.6-8.07,9.2-3.44,2.6-7.62,4.6-12.55,5.9-4.78,1.4-10.31,2.1-16.29,2.1h0ZM173.16,104.95c4.33,0,8.22-.8,11.36-2.4s5.53-3.8,7.17-6.6c1.64-2.8,2.54-6.1,2.54-9.7s-1.49-7.2-4.33-9.2-6.87-3-11.81-3-8.22.8-11.36,2.4-5.53,3.8-7.17,6.6c-1.64,2.8-2.39,6-2.39,9.7s1.49,7.2,4.33,9.2c2.99,2,6.87,3,11.81,3h-.15ZM244.6,114.85c-2.39,0-4.18-.4-5.68-1.3-1.35-.9-2.24-2.2-2.84-4l-11.36-38.2c-.6-2.1-.15-3.8,1.2-5.1,1.49-1.3,3.74-2,6.73-2s4.18.5,5.68,1.4c1.35.9,2.24,2.2,2.69,4l8.52,32.1h-4.63l25.56-33.1c1.05-1.5,2.39-2.6,3.89-3.3,1.49-.7,3.29-1,5.38-1s3.89.4,5.08,1.3c1.2.9,2.09,2.3,2.69,4.1l8.52,32h-4.18l24.81-33.1c1.05-1.4,2.39-2.5,3.74-3.2s3.29-1.1,5.53-1.1c3.29,0,5.68.7,6.73,2.2,1.2,1.4,1.05,3.2-.6,5.4l-29.89,38.7c-1.05,1.5-2.54,2.6-4.04,3.3-1.64.7-3.59,1-6.13,1s-4.18-.4-5.53-1.3c-1.35-.9-2.24-2.2-2.84-4l-8.52-28.8h2.69l-23.17,29.8c-1.2,1.5-2.54,2.6-4.18,3.3-1.49.7-3.59,1.1-6.13,1.1l.3-.2ZM344.58,114.25c-3.29,0-5.68-.6-7.17-1.7-1.49-1.2-1.94-2.8-1.49-5l8.67-37c.45-1.9,1.64-3.3,3.29-4.2,1.64-1,3.89-1.5,6.87-1.5h35.42c2.39,0,4.18.3,5.38,1,1.2.7,1.94,1.6,1.94,2.8s-.75,3-2.24,4-3.44,1.5-5.83,1.5h-28.4l-2.54,10.4h24.81c2.24,0,4.04.3,5.38,1,1.2.7,1.94,1.6,1.94,2.8s-.75,3-2.24,4-3.44,1.5-5.83,1.5h-26l-2.69,11.2h27.05c2.39,0,4.18.3,5.38,1,1.2.7,1.94,1.6,1.94,2.8s-.75,3-2.24,4-3.44,1.5-5.83,1.5h-35.12l-.45-.1ZM408.1,114.25c-3.14,0-5.38-.6-6.87-1.7-1.49-1.2-1.94-2.8-1.49-4.8l8.97-37.9c.45-1.9,1.49-3.2,3.14-4.1s3.74-1.4,6.58-1.4,5.08.6,6.43,1.8c1.35,1.1,1.79,2.7,1.35,4.8l-7.77,33.5h25.26c2.54,0,4.48.3,5.83,1,1.35.7,2.09,1.6,2.09,2.9,0,1.9-.75,3.3-2.39,4.4-1.49,1-3.74,1.5-6.43,1.5h-34.67,0ZM468.78,114.25c-3.14,0-5.38-.6-6.87-1.7-1.49-1.2-1.94-2.8-1.49-4.8l8.97-37.9c.45-1.9,1.49-3.2,3.14-4.1s3.74-1.4,6.58-1.4,5.08.6,6.43,1.8c1.35,1.1,1.79,2.7,1.35,4.8l-7.77,33.5h25.26c2.54,0,4.48.3,5.83,1,1.35.7,2.09,1.6,2.09,2.9,0,1.9-.75,3.3-2.39,4.4-1.49,1-3.74,1.5-6.43,1.5h-34.67,0Z"/>
    <path class="cls-2" d="M197.82,117.05c1.05,1.4,1.49,2.8,1.05,3.9-.45,1.2-1.35,2.1-2.69,2.7-1.35.7-2.84,1.1-4.63,1.2-1.79.1-3.44,0-5.08-.7-1.64-.6-2.84-1.5-3.89-2.9l-4.93-7.1c-.9-1.2-1.94-2.1-3.29-2.6s-3.44-.7-6.28-.7l13.9-3.4c3.14,0,5.53.4,7.47,1.2,2.09.7,3.59,2,4.93,3.7l3.14,4.6.3.1ZM169.87,110.95c-6.87,0-13-.9-18.08-2.6-5.08-1.7-9.12-4.2-11.96-7.5s-4.33-7.3-4.33-11.9.9-8.1,2.84-11.7c1.94-3.5,4.63-6.6,8.07-9.2s7.62-4.5,12.55-5.9,10.31-2.1,16.29-2.1,13,.9,18.08,2.6c5.23,1.7,9.12,4.2,11.96,7.6,2.84,3.3,4.33,7.2,4.33,11.8s-.9,8.1-2.84,11.7c-1.94,3.5-4.63,6.6-8.07,9.2-3.44,2.6-7.62,4.6-12.55,5.9-4.78,1.4-10.31,2.1-16.29,2.1h0ZM170.17,100.95c4.33,0,8.22-.8,11.36-2.4s5.53-3.8,7.17-6.6c1.64-2.8,2.54-6.1,2.54-9.7s-1.49-7.2-4.33-9.2-6.87-3-11.81-3-8.22.8-11.36,2.4-5.53,3.8-7.17,6.6c-1.64,2.8-2.39,6-2.39,9.7s1.49,7.2,4.33,9.2c2.99,2,6.87,3,11.81,3h-.15ZM241.61,110.85c-2.39,0-4.18-.4-5.68-1.3-1.35-.9-2.24-2.2-2.84-4l-11.36-38.2c-.6-2.1-.15-3.8,1.2-5.1,1.49-1.3,3.74-2,6.73-2s4.18.5,5.68,1.4c1.35.9,2.24,2.2,2.69,4l8.52,32.1h-4.63l25.56-33.1c1.05-1.5,2.39-2.6,3.89-3.3,1.49-.7,3.29-1,5.38-1s3.89.4,5.08,1.3c1.2.9,2.09,2.3,2.69,4.1l8.52,32h-4.18l24.81-33.1c1.05-1.4,2.39-2.5,3.74-3.2s3.29-1.1,5.53-1.1c3.29,0,5.68.7,6.73,2.2,1.2,1.4,1.05,3.2-.6,5.4l-29.89,38.7c-1.05,1.5-2.54,2.6-4.04,3.3-1.64.7-3.59,1-6.13,1s-4.18-.4-5.53-1.3c-1.35-.9-2.24-2.2-2.84-4l-8.52-28.8h2.69l-23.17,29.8c-1.2,1.5-2.54,2.6-4.18,3.3-1.49.7-3.59,1.1-6.13,1.1l.3-.2ZM341.59,110.25c-3.29,0-5.68-.6-7.17-1.7-1.49-1.2-1.94-2.8-1.49-5l8.67-37c.45-1.9,1.64-3.3,3.29-4.2,1.64-1,3.89-1.5,6.87-1.5h35.42c2.39,0,4.18.3,5.38,1,1.2.7,1.94,1.6,1.94,2.8s-.75,3-2.24,4-3.44,1.5-5.83,1.5h-28.4l-2.54,10.4h24.81c2.24,0,4.04.3,5.38,1,1.2.7,1.94,1.6,1.94,2.8s-.75,3-2.24,4-3.44,1.5-5.83,1.5h-26l-2.69,11.2h27.05c2.39,0,4.18.3,5.38,1,1.2.7,1.94,1.6,1.94,2.8s-.75,3-2.24,4-3.44,1.5-5.83,1.5h-35.12l-.45-.1ZM405.11,110.25c-3.14,0-5.38-.6-6.87-1.7-1.49-1.2-1.94-2.8-1.49-4.8l8.97-37.9c.45-1.9,1.49-3.2,3.14-4.1s3.74-1.4,6.58-1.4,5.08.6,6.43,1.8c1.35,1.1,1.79,2.7,1.35,4.8l-7.77,33.5h25.26c2.54,0,4.48.3,5.83,1s2.09,1.6,2.09,2.9c0,1.9-.75,3.3-2.39,4.4-1.49,1-3.74,1.5-6.43,1.5h-34.67,0ZM465.79,110.25c-3.14,0-5.38-.6-6.87-1.7-1.49-1.2-1.94-2.8-1.49-4.8l8.97-37.9c.45-1.9,1.49-3.2,3.14-4.1s3.74-1.4,6.58-1.4,5.08.6,6.43,1.8c1.35,1.1,1.79,2.7,1.35,4.8l-7.77,33.5h25.26c2.54,0,4.48.3,5.83,1s2.09,1.6,2.09,2.9c0,1.9-.75,3.3-2.39,4.4-1.49,1-3.74,1.5-6.43,1.5h-34.67,0Z"/>
    <path class="cls-3" d="M193.34,115.05c1.05,1.4,1.49,2.8,1.05,3.9-.45,1.2-1.35,2.1-2.69,2.7-1.35.7-2.84,1.1-4.63,1.2-1.79.1-3.44,0-5.08-.7-1.64-.6-2.84-1.5-3.89-2.9l-4.93-7.1c-.9-1.2-1.94-2.1-3.29-2.6s-3.44-.7-6.28-.7l13.9-3.4c3.14,0,5.53.4,7.47,1.2,2.09.7,3.59,2,4.93,3.7l3.14,4.6.3.1ZM165.39,108.95c-6.87,0-13-.9-18.08-2.6-5.08-1.7-9.12-4.2-11.96-7.5s-4.33-7.3-4.33-11.9.9-8.1,2.84-11.7c1.94-3.5,4.63-6.6,8.07-9.2s7.62-4.5,12.55-5.9,10.31-2.1,16.29-2.1,13,.9,18.08,2.6c5.23,1.7,9.12,4.2,11.96,7.6,2.84,3.3,4.33,7.2,4.33,11.8s-.9,8.1-2.84,11.7c-1.94,3.5-4.63,6.6-8.07,9.2-3.44,2.6-7.62,4.6-12.55,5.9-4.78,1.4-10.31,2.1-16.29,2.1h0ZM165.84,98.95c4.33,0,8.22-.8,11.36-2.4s5.53-3.8,7.17-6.6c1.64-2.8,2.54-6.1,2.54-9.7s-1.49-7.2-4.33-9.2-6.87-3-11.81-3-8.22.8-11.36,2.4-5.53,3.8-7.17,6.6c-1.64,2.8-2.39,6-2.39,9.7s1.49,7.2,4.33,9.2c2.99,2,6.87,3,11.81,3h-.15ZM237.13,108.85c-2.39,0-4.18-.4-5.68-1.3-1.35-.9-2.24-2.2-2.84-4l-11.36-38.2c-.6-2.1-.15-3.8,1.2-5.1,1.49-1.3,3.74-2,6.73-2s4.18.5,5.68,1.4c1.35.9,2.24,2.2,2.69,4l8.52,32.1h-4.63l25.56-33.1c1.05-1.5,2.39-2.6,3.89-3.3,1.49-.7,3.29-1,5.38-1s3.89.4,5.08,1.3c1.2.9,2.09,2.3,2.69,4.1l8.52,32h-4.18l24.81-33.1c1.05-1.4,2.39-2.5,3.74-3.2s3.29-1.1,5.53-1.1c3.29,0,5.68.7,6.73,2.2,1.2,1.4,1.05,3.2-.6,5.4l-29.89,38.7c-1.05,1.5-2.54,2.6-4.04,3.3-1.64.7-3.59,1-6.13,1s-4.18-.4-5.53-1.3c-1.35-.9-2.24-2.2-2.84-4l-8.52-28.8h2.69l-23.17,29.7c-1.2,1.5-2.54,2.6-4.18,3.3-1.49.7-3.59,1.1-6.13,1.1l.3-.1ZM337.11,108.25c-3.29,0-5.68-.6-7.17-1.7-1.49-1.2-1.94-2.8-1.49-5l8.67-37c.45-1.9,1.64-3.3,3.29-4.2,1.64-1,3.89-1.5,6.87-1.5h35.42c2.39,0,4.18.3,5.38,1,1.2.7,1.94,1.6,1.94,2.8s-.75,3-2.24,4-3.44,1.5-5.83,1.5h-28.4l-2.54,10.4h24.81c2.24,0,4.04.3,5.38,1,1.2.7,1.94,1.6,1.94,2.8s-.75,3-2.24,4-3.44,1.5-5.83,1.5h-26l-2.69,11.2h27.05c2.39,0,4.18.3,5.38,1,1.2.7,1.94,1.6,1.94,2.8s-.75,3-2.24,4-3.44,1.5-5.83,1.5h-35.12l-.45-.1ZM400.63,108.25c-3.14,0-5.38-.6-6.87-1.7-1.49-1.2-1.94-2.8-1.49-4.8l8.97-37.9c.45-1.9,1.49-3.2,3.14-4.1s3.74-1.4,6.58-1.4,5.08.6,6.43,1.8c1.35,1.1,1.79,2.7,1.35,4.8l-7.77,33.5h25.26c2.54,0,4.48.3,5.83,1s2.09,1.6,2.09,2.9c0,1.9-.75,3.3-2.39,4.4-1.49,1-3.74,1.5-6.43,1.5h-34.67,0ZM461.31,108.25c-3.14,0-5.38-.6-6.87-1.7-1.49-1.2-1.94-2.8-1.49-4.8l8.97-37.9c.45-1.9,1.49-3.2,3.14-4.1s3.74-1.4,6.58-1.4,5.08.6,6.43,1.8c1.35,1.1,1.79,2.7,1.35,4.8l-7.77,33.5h25.26c2.54,0,4.48.3,5.83,1s2.09,1.6,2.09,2.9c0,1.9-.75,3.3-2.39,4.4-1.49,1-3.74,1.5-6.43,1.5h-34.67,0Z"/>
    <path class="cls-3" d="M25.51,94.55s-2.99-1.7.3-2.2c1.35.3-.3,2.2-.3,2.2Z"/>
  </g>
  <line class="cls-4" x1=".63" y1="171.24" x2="512.27" y2="1.9"/>
</svg>