<?xml version="1.0" encoding="UTF-8"?>
<svg id="Layer_1" data-name="Layer 1" xmlns="http://www.w3.org/2000/svg" version="1.1" viewBox="0 0 226.2 216.8">
  <defs>
    <style>
      .cls-1 {
        fill: #7c4016;
      }

      .cls-1, .cls-2, .cls-3, .cls-4, .cls-5, .cls-6, .cls-7, .cls-8, .cls-9 {
        stroke-width: 0px;
      }

      .cls-1, .cls-2, .cls-3, .cls-6 {
        isolation: isolate;
        opacity: .9;
      }

      .cls-10 {
        stroke-width: 2.2px;
      }

      .cls-10, .cls-11, .cls-12 {
        fill: none;
        stroke: #633311;
        stroke-miterlimit: 10;
      }

      .cls-2, .cls-7 {
        fill: #b77b53;
      }

      .cls-3, .cls-5 {
        fill: #f9a66b;
      }

      .cls-4 {
        fill: #633311;
      }

      .cls-11 {
        stroke-width: 1.9px;
      }

      .cls-6 {
        fill: #ad5a1e;
      }

      .cls-12 {
        stroke-linecap: round;
        stroke-width: 1.7px;
      }

      .cls-8 {
        fill: #fab380;
      }

      .cls-9 {
        fill: #944d1a;
      }
    </style>
  </defs>
  <path class="cls-4" d="M38.2,184.6c-1.1,0-2.2,0-3.3-.2-1.1-.1-2.2-.4-3.3-.7-1.1-.3-2.1-.7-3-1.2-.7-.4-1.2-.8-1.4-1.4-.2-.6-.3-1.2-.2-1.8.1-.6.3-1.1.7-1.6.4-.5.9-.8,1.5-.9.6-.1,1.3,0,2,.3,1.2.6,2.5,1.1,3.9,1.4s2.6.4,3.8.4,2.9-.3,3.8-.9c.9-.6,1.4-1.3,1.4-2.2s-.3-1.3-.8-1.8c-.5-.5-1.4-.8-2.6-1.1l-4.7-1.1c-2-.5-3.7-1.3-4.9-2.6-1.2-1.3-1.8-2.9-1.8-4.9s.3-2.9.9-4.1c.7-1.2,1.5-2.2,2.7-3,1.1-.8,2.4-1.4,3.9-1.9,1.5-.4,3-.7,4.6-.7s2.8.2,4.3.5c1.6.3,3.1.9,4.4,1.7.6.3,1,.8,1.3,1.3.3.6.4,1.1.3,1.7,0,.6-.3,1.1-.7,1.5-.4.4-.9.7-1.5.8-.6.1-1.4,0-2.3-.4-.9-.4-1.8-.8-2.9-1-1-.2-2-.4-3-.4s-2,.1-2.8.4c-.8.3-1.4.6-1.8,1.1s-.6,1-.6,1.6.2,1.3.7,1.8c.5.4,1.3.8,2.3,1l4.7,1.1c2.3.6,4,1.5,5.3,2.8,1.2,1.3,1.8,2.9,1.8,4.7s-.3,3-1,4.2c-.7,1.2-1.6,2.2-2.8,3-1.2.8-2.5,1.4-4.1,1.8-1.5.4-3.1.6-4.8.6h0ZM79.4,188.2c.4.9.6,1.6.4,2.3-.2.7-.5,1.2-1,1.6-.5.4-1.1.6-1.8.7-.7,0-1.3,0-2-.4-.6-.3-1.1-.9-1.5-1.7l-1.9-4.1c-.3-.7-.8-1.2-1.3-1.5-.5-.3-1.3-.4-2.5-.4l5.5-2c1.2,0,2.2.2,3,.7.8.4,1.4,1.2,1.9,2.2l1.2,2.7h0ZM68.4,184.6c-2.7,0-5.1-.5-7.1-1.5-2-1-3.6-2.5-4.7-4.4-1.1-1.9-1.7-4.3-1.7-7s.4-4.8,1.1-6.9,1.8-3.9,3.2-5.4c1.4-1.5,3-2.7,4.9-3.5s4.1-1.2,6.4-1.2,5.1.5,7.1,1.5c2,1,3.6,2.5,4.7,4.4,1.1,1.9,1.7,4.2,1.7,6.9s-.4,4.8-1.1,6.9-1.8,3.9-3.2,5.4c-1.4,1.5-3,2.7-4.9,3.5-1.9.8-4,1.2-6.4,1.2h0ZM68.5,178.7c1.7,0,3.2-.5,4.4-1.4,1.2-.9,2.2-2.2,2.8-3.9.7-1.7,1-3.6,1-5.7s-.6-4.2-1.7-5.4c-1.1-1.2-2.7-1.8-4.6-1.8s-3.2.5-4.4,1.4-2.2,2.2-2.8,3.9c-.6,1.6-.9,3.6-.9,5.7s.6,4.2,1.7,5.4c1.1,1.2,2.7,1.8,4.6,1.8h0ZM96.5,184.5c-.9,0-1.7-.3-2.2-.8-.5-.5-.9-1.3-1.1-2.3l-4.4-22.4c-.2-1.2,0-2.2.5-3,.6-.8,1.5-1.1,2.7-1.1s1.7.3,2.2.8c.6.5.9,1.3,1.1,2.3l3.3,18.8h-1.8l10-19.4c.4-.9.9-1.5,1.5-1.9.6-.4,1.3-.6,2.1-.6s1.5.3,2,.8c.5.5.8,1.3,1,2.4l3.4,18.8h-1.6l9.7-19.4c.4-.9.9-1.5,1.5-1.9.6-.4,1.3-.7,2.2-.7,1.3,0,2.2.4,2.7,1.3.5.9.4,1.9-.2,3.2l-11.7,22.7c-.4.9-1,1.5-1.6,1.9-.6.4-1.4.6-2.4.6s-1.7-.3-2.2-.8-.9-1.3-1.1-2.3l-3.3-16.9h1l-9.1,17.4c-.5.9-1,1.5-1.6,1.9-.6.4-1.4.6-2.4.6h0ZM136.1,184.1c-1.3,0-2.2-.3-2.8-1-.6-.7-.8-1.7-.6-2.9l3.4-21.7c.2-1.1.6-1.9,1.3-2.5.7-.6,1.6-.9,2.7-.9h13.9c.9,0,1.6.2,2.1.6s.7.9.7,1.6-.3,1.8-.9,2.3c-.6.6-1.3.9-2.3.9h-11.1l-1,6.1h9.7c.9,0,1.6.2,2.1.6.5.4.7.9.7,1.6s-.3,1.8-.9,2.3c-.6.6-1.3.9-2.3.9h-10.2l-1,6.6h10.6c.9,0,1.6.2,2.1.6.5.4.7.9.7,1.6s-.3,1.8-.9,2.3-1.3.9-2.3.9h-13.8,0ZM160.9,184.1c-1.2,0-2.1-.3-2.7-1-.6-.7-.8-1.6-.6-2.8l3.5-22.3c.2-1.1.6-1.9,1.2-2.4.6-.6,1.5-.8,2.6-.8s2,.3,2.6,1c.6.7.7,1.6.5,2.8l-3.1,19.7h9.9c1,0,1.8.2,2.3.6.6.4.8,1,.8,1.7,0,1.1-.3,2-.9,2.6-.6.6-1.4.9-2.6.9h-13.6ZM185,184.1c-1.2,0-2.1-.3-2.7-1-.6-.7-.8-1.6-.6-2.8l3.5-22.3c.2-1.1.6-1.9,1.2-2.4.6-.6,1.5-.8,2.6-.8s2,.3,2.6,1c.6.7.7,1.6.5,2.8l-3.1,19.7h9.9c1,0,1.8.2,2.3.6.6.4.8,1,.8,1.7,0,1.1-.3,2-.9,2.6-.6.6-1.4.9-2.6.9h-13.6Z"/>
  <path class="cls-8" d="M36.4,182.2c-1.1,0-2.2,0-3.3-.2-1.1-.1-2.2-.4-3.3-.7-1.1-.3-2.1-.7-3-1.2-.7-.4-1.2-.8-1.4-1.4-.2-.6-.3-1.2-.2-1.8.1-.6.3-1.1.7-1.6.4-.5.9-.8,1.5-.9.6-.1,1.3,0,2,.3,1.2.6,2.5,1.1,3.9,1.4,1.4.3,2.6.4,3.8.4s2.9-.3,3.8-.9c.9-.6,1.3-1.3,1.3-2.2s-.3-1.3-.8-1.8-1.4-.8-2.6-1.1l-4.7-1.1c-2-.5-3.7-1.3-4.9-2.6-1.2-1.3-1.8-2.9-1.8-4.9s.3-2.9.9-4.1c.7-1.2,1.5-2.2,2.7-3s2.4-1.4,3.9-1.9c1.5-.4,3-.7,4.6-.7s2.8.2,4.3.5c1.6.3,3.1.9,4.4,1.7.6.3,1,.8,1.3,1.3.3.6.4,1.1.3,1.7,0,.6-.3,1.1-.7,1.5-.4.4-.9.7-1.5.8-.6.1-1.4,0-2.3-.4-.9-.4-1.8-.8-2.9-1-1-.2-2-.4-3-.4s-2,.1-2.8.4c-.8.3-1.3.6-1.8,1.1-.4.5-.6,1-.6,1.6s.2,1.3.7,1.8c.5.4,1.3.8,2.3,1l4.7,1.1c2.3.6,4,1.5,5.3,2.8,1.2,1.3,1.8,2.9,1.8,4.7s-.3,3-1,4.2c-.7,1.2-1.6,2.2-2.8,3-1.2.8-2.5,1.4-4.1,1.8-1.5.4-3.1.6-4.8.6h0ZM77.6,185.8c.4.9.6,1.6.4,2.3-.2.7-.5,1.2-1,1.6-.5.4-1.1.6-1.8.7-.7,0-1.3,0-2-.4-.6-.3-1.1-.9-1.5-1.7l-1.9-4.1c-.3-.7-.8-1.2-1.3-1.5-.5-.3-1.3-.4-2.5-.4l5.5-2c1.2,0,2.2.2,3,.7.8.4,1.4,1.2,1.9,2.2l1.2,2.7h0ZM66.7,182.2c-2.7,0-5.1-.5-7.1-1.5-2-1-3.6-2.5-4.7-4.4-1.1-1.9-1.7-4.3-1.7-7s.4-4.8,1.1-6.9,1.8-3.9,3.2-5.4c1.4-1.5,3-2.7,4.9-3.5s4-1.2,6.4-1.2,5.1.5,7.1,1.5c2,1,3.6,2.5,4.7,4.4,1.1,1.9,1.7,4.2,1.7,6.9s-.4,4.8-1.1,6.9-1.8,3.9-3.2,5.4c-1.4,1.5-3,2.7-4.9,3.5-1.9.8-4,1.2-6.4,1.2ZM66.8,176.4c1.7,0,3.2-.5,4.4-1.4s2.2-2.2,2.8-3.9c.7-1.7,1-3.6,1-5.7s-.6-4.2-1.7-5.4c-1.1-1.2-2.7-1.8-4.6-1.8s-3.2.5-4.4,1.4c-1.2.9-2.2,2.2-2.8,3.9-.6,1.6-.9,3.5-.9,5.7s.6,4.2,1.7,5.4c1.2,1.2,2.7,1.8,4.6,1.8h0ZM94.8,182.2c-.9,0-1.7-.3-2.2-.8-.5-.5-.9-1.3-1.1-2.3l-4.4-22.4c-.2-1.2,0-2.2.5-3,.6-.8,1.5-1.1,2.7-1.1s1.7.3,2.2.8c.6.5.9,1.3,1.1,2.3l3.3,18.8h-1.8l10-19.4c.4-.9.9-1.5,1.5-1.9.6-.4,1.3-.6,2.1-.6s1.5.3,2,.8c.5.5.8,1.3,1,2.4l3.4,18.8h-1.6l9.7-19.4c.4-.9.9-1.5,1.5-1.9.6-.4,1.3-.7,2.2-.7,1.3,0,2.2.4,2.7,1.3.5.9.4,1.9-.2,3.2l-11.7,22.7c-.4.9-1,1.5-1.6,1.9-.6.4-1.4.6-2.4.6s-1.7-.3-2.2-.8-.9-1.3-1.1-2.3l-3.3-16.9h1l-9.1,17.4c-.5.9-1,1.5-1.6,1.9-.6.4-1.4.6-2.4.6h0ZM134.4,181.8c-1.3,0-2.2-.3-2.8-1-.6-.7-.8-1.7-.6-2.9l3.4-21.7c.2-1.1.6-1.9,1.3-2.5.7-.6,1.6-.9,2.7-.9h13.9c.9,0,1.6.2,2.1.6.5.4.7.9.7,1.6s-.3,1.8-.9,2.3c-.6.6-1.3.9-2.3.9h-11.1l-1,6.1h9.7c.9,0,1.6.2,2.1.6s.7.9.7,1.6-.3,1.8-.9,2.3c-.6.6-1.3.9-2.3.9h-10.2l-1,6.6h10.6c.9,0,1.6.2,2.1.6.5.4.7.9.7,1.6s-.3,1.8-.9,2.3c-.6.6-1.3.9-2.3.9h-13.8ZM159.5,181.8c-1.2,0-2.1-.3-2.7-1-.6-.7-.8-1.6-.6-2.8l3.5-22.3c.2-1.1.6-1.9,1.2-2.4.6-.6,1.5-.8,2.6-.8s2,.3,2.6,1c.6.7.7,1.6.5,2.8l-3.1,19.7h9.9c1,0,1.8.2,2.3.6.6.4.8,1,.8,1.7,0,1.1-.3,2-.9,2.6-.6.6-1.4.9-2.6.9h-13.6ZM183.1,181.8c-1.2,0-2.1-.3-2.7-1-.6-.7-.8-1.6-.6-2.8l3.5-22.3c.2-1.1.6-1.9,1.2-2.4.6-.6,1.5-.8,2.6-.8s2,.3,2.6,1c.6.7.7,1.6.5,2.8l-3.1,19.7h9.9c1,0,1.8.2,2.3.6.6.4.8,1,.8,1.7,0,1.1-.3,2-.9,2.6s-1.4.9-2.6.9h-13.6Z"/>
  <path class="cls-9" d="M34.1,181.1c-1.1,0-2.2,0-3.3-.2-1.1-.1-2.2-.4-3.3-.7-1.1-.3-2.1-.7-3-1.2-.7-.4-1.2-.8-1.4-1.4-.2-.6-.3-1.2-.2-1.8.1-.6.3-1.1.7-1.6.4-.5.9-.8,1.5-.9.6-.1,1.3,0,2,.3,1.2.6,2.5,1.1,3.9,1.4,1.4.3,2.6.4,3.8.4s2.9-.3,3.8-.9c.9-.6,1.4-1.3,1.4-2.2s-.3-1.3-.8-1.8c-.5-.5-1.4-.8-2.6-1.1l-4.7-1.1c-2-.5-3.7-1.3-4.9-2.6-1.2-1.3-1.8-2.9-1.8-4.9s.3-2.9.9-4.1c.7-1.2,1.5-2.2,2.7-3s2.4-1.4,3.9-1.9c1.5-.4,3-.7,4.6-.7s2.8.2,4.3.5c1.6.3,3.1.9,4.4,1.7.6.3,1,.8,1.3,1.3.3.6.4,1.1.3,1.7,0,.6-.3,1.1-.7,1.5-.4.4-.9.7-1.5.8-.6.1-1.4,0-2.3-.4-.9-.4-1.8-.8-2.9-1-1-.2-2-.4-3-.4s-2,.1-2.8.4c-.8.3-1.3.6-1.8,1.1-.4.5-.6,1-.6,1.6s.3,1.3.7,1.8c.5.4,1.3.8,2.3,1l4.7,1.1c2.3.6,4,1.5,5.3,2.8,1.2,1.3,1.8,2.9,1.8,4.7s-.3,3-1,4.2c-.7,1.2-1.6,2.2-2.8,3-1.2.8-2.5,1.4-4.1,1.8-1.5.4-3.1.6-4.8.6h0ZM75.3,184.6c.4.9.6,1.6.4,2.3-.2.7-.5,1.2-1,1.6-.5.4-1.1.6-1.8.7-.7,0-1.3,0-2-.4-.6-.3-1.1-.9-1.5-1.7l-1.9-4.1c-.3-.7-.8-1.2-1.3-1.5-.5-.3-1.3-.4-2.5-.4l5.5-2c1.2,0,2.2.2,3,.7.8.4,1.4,1.2,1.9,2.2l1.2,2.7h0ZM64.3,181.1c-2.7,0-5.1-.5-7.1-1.5-2-1-3.6-2.5-4.7-4.4-1.1-1.9-1.7-4.3-1.7-7s.4-4.8,1.1-6.9,1.8-3.9,3.2-5.4c1.4-1.5,3-2.7,4.9-3.5s4-1.2,6.4-1.2,5.1.5,7.1,1.5c2,1,3.6,2.5,4.7,4.4,1.1,1.9,1.7,4.2,1.7,6.9s-.4,4.8-1.1,6.9-1.8,3.9-3.2,5.4c-1.4,1.5-3,2.7-4.9,3.5-1.9.8-4,1.2-6.4,1.2ZM64.4,175.2c1.7,0,3.2-.5,4.4-1.4s2.2-2.2,2.8-3.9c.7-1.7,1-3.6,1-5.7s-.6-4.2-1.7-5.4c-1.1-1.2-2.7-1.8-4.6-1.8s-3.2.5-4.4,1.4c-1.2.9-2.2,2.2-2.8,3.9-.6,1.6-.9,3.5-.9,5.7s.6,4.2,1.7,5.4c1.2,1.2,2.7,1.8,4.6,1.8h0ZM92.4,181c-.9,0-1.7-.3-2.2-.8-.5-.5-.9-1.3-1.1-2.3l-4.4-22.4c-.2-1.2,0-2.2.5-3,.6-.8,1.5-1.1,2.7-1.1s1.7.3,2.2.8c.6.5.9,1.3,1.1,2.3l3.3,18.8h-1.8l10-19.4c.4-.9.9-1.5,1.5-1.9.6-.4,1.3-.6,2.1-.6s1.5.3,2,.8c.5.5.8,1.3,1,2.4l3.4,18.8h-1.6l9.7-19.4c.4-.9.9-1.5,1.5-1.9.6-.4,1.3-.7,2.2-.7,1.3,0,2.2.4,2.7,1.3.5.9.4,1.9-.2,3.2l-11.7,22.7c-.4.9-1,1.5-1.6,1.9-.6.4-1.4.6-2.4.6s-1.7-.3-2.2-.8-.9-1.3-1.1-2.3l-3.3-16.9h1l-9.1,17.4c-.5.9-1,1.5-1.6,1.9-.6.4-1.4.6-2.4.6h0ZM132.8,180.6c-1.3,0-2.2-.3-2.8-1-.6-.7-.8-1.7-.6-2.9l3.4-21.7c.2-1.1.6-1.9,1.3-2.5.7-.6,1.6-.9,2.7-.9h13.9c.9,0,1.6.2,2.1.6.5.4.7.9.7,1.6s-.3,1.8-.9,2.3c-.6.6-1.3.9-2.3.9h-11.1l-1,6.1h9.7c.9,0,1.6.2,2.1.6.5.4.7.9.7,1.6s-.3,1.8-.9,2.3c-.6.6-1.3.9-2.3.9h-10.2l-1,6.6h10.6c.9,0,1.6.2,2.1.6.5.4.7.9.7,1.6s-.3,1.8-.9,2.3c-.6.6-1.3.9-2.3.9h-13.8ZM157.6,180.6c-1.2,0-2.1-.3-2.7-1-.6-.7-.8-1.6-.6-2.8l3.5-22.3c.2-1.1.6-1.9,1.2-2.4.6-.6,1.5-.8,2.6-.8s2,.3,2.5,1c.6.7.7,1.6.5,2.8l-3.1,19.7h9.9c1,0,1.8.2,2.3.6.6.4.8,1,.8,1.7,0,1.1-.3,2-.9,2.6-.6.6-1.4.9-2.6.9h-13.6,0ZM181.2,180.6c-1.2,0-2.1-.3-2.7-1-.6-.7-.8-1.6-.6-2.8l3.5-22.3c.2-1.1.6-1.9,1.2-2.4.6-.6,1.5-.8,2.6-.8s2,.3,2.6,1c.6.7.7,1.6.5,2.8l-3.1,19.7h9.9c1,0,1.8.2,2.3.6.6.4.8,1,.8,1.7,0,1.1-.3,2-.9,2.6s-1.4.9-2.5.9h-13.6Z"/>
  <path class="cls-9" d="M123.3,139.2c30.2-5.4,49.9-34.4,11.9-63.3-13.5-13,16.2-21,11.4,1.8-.3,3.2.7,3.3,1.6,2C200.5,1.9,50,6.7,121.1,92.1c0,0,15,19.1,4.6,32.4-10.4,13.3-12.2,12.8-2.4,14.7h0Z"/>
  <path class="cls-4" d="M151.1,117.2c-3.4,6.4-9.1,12.2-16.5,12.1-.2,0-3.4.4-4.8.1-2.6-.6-3.9-2.4-4.3-4.7-10.2,13.1-12,12.6-2.2,14.5,20.4-3.6,36-18.1,32.2-36,0,0-.1-.2-.2-.3-.3,5.1-1.9,10-4.2,14.3h0Z"/>
  <path class="cls-8" d="M133.9,27.5c-4.3-.6-8.6-.3-12.5,1.3-5.6,2.3-9.6,7-11.9,12.6,0,.2.2.3.2.5,4-8.2,12.7-11.7,21.3-11.9,4.5,0,9.3.7,13.8,2.3-2.3-3.3-7.3-4.2-10.8-4.7h0Z"/>
  <path class="cls-4" d="M130.9,72c2.7,3.3,6.2,6,9.8,8.4,0,0,0,0,0,0-1.7-1.5-3.6-3.1-5.6-4.6-13.5-13,16.2-21,11.4,1.8-.3,3.2.7,3.3,1.6,2,.6-.9,1.2-1.9,1.8-2.8,14.6-36.3-37.1-32.2-19.1-4.8h0Z"/>
  <path class="cls-4" d="M125.3,126.9c-.2.3-.4.6-.6.9.2,0,.3,0,.5.2,0-.4,0-.7,0-1.1h0Z"/>
  <path class="cls-11" d="M92.4,100c1.7,0,3.1-1.6,3.1-3.5s-1.4-3.4-3.2-3.4c-1.7,0-3.1,1.6-3.1,3.5s1.4,3.4,3.2,3.4Z"/>
  <path class="cls-11" d="M92.2,99.7c1.7,0,3.1-1.6,3.1-3.5s-1.4-3.4-3.2-3.4c-1.7,0-3.1,1.6-3.1,3.5s1.4,3.4,3.2,3.4Z"/>
  <path class="cls-4" d="M106.3,89.4s-13.2-5.2-17.1,9.3c-1.2,1-.2,6.6,6.8,7.8s-11.6,7.7-13.2,10.5c-1.6,2.8,12.2,3.2,12.2,3.2,0,0,.6,8.4-1.8,10.9-.4,5.6,9.9,11.3,9.9,11.3,0,0-3.1-3.8-12.6,1.9-4.2,4.6,17.6-.2,23.1-1.3,6.2-1.3,25.8-20.6-1.8-38.5,0,0-4.1-3.2-.8-12.2s-3.7-7.3-4.6-3h0Z"/>
  <path class="cls-4" d="M101.2,143.6c1.7-.4,3.5-1,4.9-2.1-.5-.2-.9-.4-1.3-.6-2.3-1-4.5-2.3-6.2-4.1-.6-.4-1.2-1-1.7-1.6-.4-.4-.7-.8-.9-1.3-.5-.8-.7-1.9-.6-2.9,0-.2,0-.4.1-.6.3-1.2,1.1-2.1,2.5-2-.3-1.4-.4-2.8-.5-4.1-.1-1.8-.2-3.4-1-4.9-.2-.3-.3-.6-.3-1-1.7.1-3.5.5-5.2.3-1.2-.1-2.4-.3-3.5-.6-.7-.2-1.3-.4-2-.3-.3,0-1.5.4-1.4.8,3.1,1.3,11.1,1.5,11.1,1.5,0,0,.6,8.4-1.8,10.9-.3,4.3,5.6,8.6,8.5,10.4-1.7-.6-5.2-.8-11.2,2.8-1.6,1.7.4,2.1,3.8,1.9,1.6-1.9,4.7-2,7-2.6h0Z"/>
  <path class="cls-4" d="M119.3,138.8c-1.3,1.2-3.1,2.8-5,3.7-.2.2-.5.4-.8.6,0,0,0,0,0,0,2.5-.5,7.2-4,10.1-9.1-1.4,1.7-2.8,3.4-4.3,4.9h0Z"/>
  <path class="cls-4" d="M108.5,86.8s0,0-.1,0c-.8.5-1.6,1.7-1.8,2.8.1,0,.2,0,.4.1,0,0,0,0,.1,0,.8,0,1.2-1,1.4-1.8,0-.4,0-.8,0-1.2h0Z"/>
  <path class="cls-4" d="M92.2,104.1c-.2.2-.5.3-.7.5.4.3.9.6,1.5.9-.3-.4-.6-.9-.8-1.4h0Z"/>
  <path class="cls-4" d="M110.5,106.3c.2.8,1.2,1.4,1.7,1.9,1.1.8,2.2,1.5,3.2,2.4,2.3,1.9,4.3,4.8,5.8,7.4,1.6,2.8,2.4,5.6,2.8,8.8,0,.5.1,1,.2,1.5.3-2.6.2-5.2-.4-7.7-.7-2.6-1.8-5.1-3.5-7.1,0-.1-.2-.2-.2-.3-1.3-1.6-2.7-3.1-4.2-4.4-.8-.7-1.7-1.5-2.6-2.1-.1,0-.2,0-.4-.1-.7-.4-1.5-.9-2.3-1.2-.3.2-.4.7-.3,1h0Z"/>
  <path class="cls-4" d="M94.5,98.6c.7,0,1.2-.6,1.2-1.3,0-.7-.6-1.3-1.2-1.2-.7,0-1.2.6-1.2,1.3,0,.7.6,1.3,1.2,1.2Z"/>
  <path class="cls-4" d="M93.9,97.1c.2,0,.4-.2.3-.4,0-.2-.2-.4-.4-.4s-.4.2-.3.4c0,.2.2.4.4.4Z"/>
  <path class="cls-4" d="M89.1,100.9s-2.1-1.7.2-2.3c.9.3-.2,2.3-.2,2.3Z"/>
  <path class="cls-10" d="M95.1,100.6c2.1,0,3.8-1.9,3.8-4.2s-1.8-4.2-3.8-4.1-3.8,1.9-3.8,4.2c0,2.3,1.8,4.2,3.8,4.1Z"/>
  <path class="cls-10" d="M94.8,100.4c2.1,0,3.8-1.9,3.8-4.2s-1.8-4.2-3.8-4.1-3.8,1.9-3.8,4.2,1.8,4.2,3.8,4.1Z"/>
  <path class="cls-12" d="M89.3,97.4s.7-.5,1.7,0"/>
  <path class="cls-8" d="M123.2,123.9c-.2.3-.4.6-.6.9.2,0,.3.1.5.2,0-.4,0-.7,0-1.1h0Z"/>
  <path class="cls-8" d="M104.3,86.3s-13.2-5.2-17.1,9.3c-1.2,1-.2,6.6,6.8,7.8s-11.6,7.7-13.2,10.5c-1.6,2.8,12.2,3.2,12.2,3.2,0,0,.6,8.4-1.8,10.9-.4,5.6,9.9,11.3,9.9,11.3,0,0-3.1-3.8-12.6,1.9-4.2,4.6,17.6-.2,23.1-1.3,6.2-1.3,25.8-20.6-1.8-38.5,0,0-4.1-3.2-.8-12.2,3.2-8.9-3.7-7.3-4.6-3h0Z"/>
  <path class="cls-8" d="M99.2,140.5c1.7-.4,3.5-1,4.9-2.1-.5-.2-.9-.4-1.3-.6-2.3-1-4.5-2.3-6.2-4.1-.6-.4-1.2-1-1.7-1.6-.4-.4-.7-.8-.9-1.3-.5-.8-.7-1.9-.6-2.9,0-.2,0-.4.1-.7.3-1.2,1.1-2.1,2.5-2-.3-1.4-.4-2.8-.5-4.1-.1-1.8-.2-3.4-1-4.9-.2-.3-.3-.6-.3-1-1.7.1-3.5.5-5.2.3-1.2-.1-2.4-.3-3.5-.6-.7-.2-1.3-.4-2-.3-.3,0-1.5.4-1.4.8,3.1,1.3,11.1,1.5,11.1,1.5,0,0,.6,8.4-1.8,10.9-.3,4.3,5.6,8.6,8.5,10.4-1.7-.6-5.2-.8-11.2,2.8-1.6,1.7.4,2.1,3.8,1.9,1.6-1.9,4.7-2,7-2.6h0Z"/>
  <path class="cls-8" d="M117.3,135.7c-1.3,1.2-3.1,2.8-5,3.7-.2.2-.5.4-.8.6,0,0,0,0,0,0,2.5-.5,7.2-4,10.1-9.1-1.3,1.7-2.8,3.4-4.3,4.9h0Z"/>
  <path class="cls-8" d="M106.4,83.8s0,0-.1,0c-.8.5-1.6,1.7-1.8,2.8.1,0,.2,0,.4.1,0,0,0,0,.1,0,.8,0,1.2-1,1.4-1.8,0-.4,0-.8,0-1.2h0Z"/>
  <path class="cls-8" d="M90.2,101c-.2.2-.5.3-.7.5.4.3.9.6,1.5.9-.3-.4-.6-.9-.8-1.4h0Z"/>
  <path class="cls-8" d="M108.5,103.2c.2.8,1.2,1.4,1.7,1.9,1.1.8,2.2,1.5,3.2,2.4,2.3,1.9,4.3,4.8,5.8,7.4,1.6,2.8,2.4,5.6,2.8,8.8,0,.5.1,1,.2,1.5.3-2.6.2-5.2-.4-7.7-.7-2.6-1.8-5.1-3.5-7.1,0-.1-.2-.2-.2-.3-1.3-1.6-2.7-3-4.2-4.4-.8-.7-1.7-1.5-2.6-2.1-.1,0-.2,0-.4-.1-.7-.4-1.5-.9-2.3-1.2-.3.2-.4.7-.3,1Z"/>
  <path class="cls-8" d="M91.9,94c.2,0,.4-.2.3-.4,0-.2-.2-.4-.4-.4s-.4.2-.3.4c0,.2.2.4.4.4Z"/>
  <path class="cls-9" d="M124.2,124.9c-.2.3-.4.6-.6.9.2,0,.3.1.5.2,0-.4,0-.7,0-1.1h0Z"/>
  <path class="cls-9" d="M100.2,141.6c1.7-.4,3.5-1,4.9-2.1-.5-.2-.9-.4-1.3-.6-2.3-1-4.5-2.3-6.2-4.1-.6-.4-1.2-1-1.7-1.6-.4-.4-.7-.8-.9-1.3-.5-.8-.7-1.9-.6-2.9,0-.2,0-.4.1-.6.3-1.2,1.1-2.1,2.5-2-.3-1.4-.4-2.8-.5-4.1-.1-1.8-.2-3.4-1-4.9-.2-.3-.3-.6-.3-1-1.7.1-3.5.5-5.2.3-1.2-.1-2.4-.3-3.5-.6-.7-.2-1.3-.4-2-.3-.3,0-1.5.4-1.4.8,3.1,1.3,11.1,1.5,11.1,1.5,0,0,.6,8.4-1.8,10.9-.3,4.3,5.6,8.6,8.5,10.4-1.7-.6-5.2-.8-11.2,2.8-1.6,1.7.4,2.1,3.8,1.9,1.6-1.9,4.7-2,7-2.6h0Z"/>
  <path class="cls-9" d="M118.3,136.7c-1.3,1.2-3.1,2.8-5,3.7-.2.2-.5.4-.8.6,0,0,0,0,0,0,2.5-.5,7.2-4,10.1-9.1-1.3,1.7-2.8,3.4-4.3,4.9h0Z"/>
  <path class="cls-9" d="M107.4,84.8s0,0-.1,0c-.8.5-1.6,1.7-1.8,2.8.1,0,.2,0,.4.1,0,0,0,0,.1,0,.8,0,1.2-1,1.4-1.8,0-.4,0-.8,0-1.2h0Z"/>
  <path class="cls-9" d="M109.5,104.2c.2.8,1.2,1.4,1.7,1.9,1.1.8,2.2,1.5,3.2,2.4,2.3,1.9,4.3,4.8,5.8,7.4,1.6,2.8,2.4,5.6,2.8,8.8,0,.5.1,1,.2,1.5.3-2.6.2-5.2-.4-7.7-.7-2.6-1.8-5.1-3.5-7.1,0-.1-.2-.2-.2-.3-1.3-1.6-2.7-3-4.2-4.4-.8-.7-1.7-1.5-2.6-2.1-.1,0-.2,0-.4-.1-.7-.4-1.5-.9-2.3-1.2-.3.2-.4.7-.3,1Z"/>
  <path class="cls-5" d="M72.9,116.9s-.9,19.5,12.2,17.8c13.1-1.7,6.9-20.3,6.9-20.3,0,0-9.8-6.4-19.1,2.5Z"/>
  <path class="cls-7" d="M92,114.4s-9.8-6.4-19.1,2.5c0,0,0,.4,0,1.2.3-.1.6-.2.9-.2,0,0,.7,0,.7,0,.3,0,.6,0,.9-.2.6-.1,1.2-.3,1.9-.4,1.2-.3,2.4-.7,3.6-1,2.3-.6,4.7-.8,7.1-.9.5-.5,1.3-.7,2.1-.6,1.1.2,1.9,1.6,1.5,2.7h0s0,0,.1,0c.7.4,1.1,1.5.6,2.2-.4.5-.6,1.1-.5,1.7.1.8.6,1.4,1,2.1.5.7.1,1.8-.6,2.2-.5.3-1.5-.5-1.8,1,0,.1,0,.2,0,.4,0,2.4-.4,4.7-1.6,6.6,8.4-4.3,3.4-19.2,3.4-19.2h0Z"/>
  <path class="cls-4" d="M72.8,118.3s-4.1-2.4-1-6.2c3.1-3.7,15.3-6.2,20.6-2.4s-.3,6.3-.3,6.3c0,0-19.3,2.9-19.3,2.2Z"/>
  <path class="cls-9" d="M93.9,111.1c-1.2,1-2.7,1.8-4.2,2.3-1,1-2.3,1.7-3.6,2.1,0,0-.2.1-.3.2-1.2.6-2.6,1.1-3.9,1.5-1.8.5-3.8.8-5.7.7-1.6-.1-4-.4-4.7-2.1,0,0,0,0,0-.1-.2-.1-.4-.2-.6-.4.2,1.9,2.1,3,2.1,3,0,.7,19.3-2.2,19.3-2.2,0,0,4.3-2,1.8-5h0Z"/>
  <path class="cls-9" d="M80.2,109.1s-.2-4.4-2-5.7c-1.8-1.3,1.2-3.1,2.5,0,1.2,3.1,1,5.5.8,6.1s-1.2-.4-1.2-.4h0Z"/>
  <path class="cls-4" d="M80.6,105.7c0-.5-.1-1-.5-1.5-.5-.6-1.1-1.1-1.5-1.8-.1-.2-.1-.4,0-.7-1,0-1.6,1-.5,1.7,1.9,1.3,2.2,5.7,2.2,5.7,0,0,.9.8,1.3.5-.3-1.3-.6-2.7-.8-4h0Z"/>
  <path class="cls-3" d="M2.2,97.7s-.9,19.5,12.2,17.8c13.1-1.7,6.9-20.3,6.9-20.3,0,0-9.8-6.4-19.1,2.5Z"/>
  <path class="cls-2" d="M21.3,95.2s-9.8-6.4-19.1,2.5c0,0,0,.4,0,1.2.3-.1.6-.2.9-.2,0,0,.7,0,.7,0,.3,0,.6,0,.9-.2.6-.1,1.2-.3,1.9-.4,1.2-.3,2.4-.7,3.6-1,2.3-.6,4.7-.8,7.1-.9.5-.5,1.3-.7,2.1-.6,1.1.2,1.9,1.6,1.5,2.7h0s0,0,.1,0c.7.4,1,1.5.6,2.2-.4.5-.6,1.1-.5,1.7.1.8.5,1.4,1,2.1.5.7.1,1.8-.6,2.2-.5.3-1,.3-1.5,0-.1.3-.2.7-.4,1,0,.1,0,.2,0,.4,0,2.4-.4,4.7-1.6,6.6,8.4-4.3,3.4-19.2,3.4-19.2h0Z"/>
  <path class="cls-6" d="M2.1,99.1s-4.1-2.4-1-6.2c3.1-3.7,15.3-6.2,20.6-2.4s-.3,6.3-.3,6.3c0,0-19.3,2.9-19.3,2.2Z"/>
  <path class="cls-6" d="M9.5,89.8s-.2-4.4-2-5.7c-1.8-1.3,1.2-3.1,2.5,0,1.2,3.1,1,5.5.8,6.1-.2.6-1.2-.4-1.2-.4h0Z"/>
  <path class="cls-1" d="M10.2,86.3c0-.5-.1-1-.5-1.5-.5-.6-1.1-1.1-1.5-1.8-.1-.2-.1-.4-.1-.7-1,0-1.6,1-.5,1.7,1.9,1.3,2.2,5.7,2.2,5.7,0,0,.9.8,1.3.5-.3-1.3-.6-2.7-.8-4h0Z"/>
  <path class="cls-3" d="M204.5,97.7s-.9,19.5,12.2,17.8c13.1-1.7,6.9-20.3,6.9-20.3,0,0-9.8-6.4-19.1,2.5h0Z"/>
  <path class="cls-2" d="M223.6,95.2s-9.8-6.4-19.1,2.5c0,0,0,.4,0,1.2.3-.1.6-.2.9-.2,0,0,.7,0,.7,0,.3,0,.6,0,.9-.2.6-.1,1.2-.3,1.9-.4,1.2-.3,2.4-.7,3.6-1,2.3-.6,4.7-.8,7.1-.9.5-.5,1.3-.7,2.1-.6,1.1.2,1.9,1.6,1.5,2.7h0s0,0,.1,0c.7.4,1.1,1.5.6,2.2-.4.5-.6,1.1-.5,1.7.1.8.6,1.4,1,2.1.5.7.1,1.8-.6,2.2-.5.3-1,.3-1.5,0-.1.3-.2.7-.4,1,0,.1,0,.2,0,.4,0,2.4-.4,4.7-1.6,6.6,8.4-4.3,3.4-19.2,3.4-19.2h0Z"/>
  <path class="cls-6" d="M204.4,99.1s-4.1-2.4-1-6.2c3.1-3.7,15.3-6.2,20.6-2.4s-.3,6.3-.3,6.3c0,0-19.3,2.9-19.3,2.2Z"/>
  <path class="cls-6" d="M211.8,89.8s-.2-4.4-2-5.7c-1.8-1.3,1.2-3.1,2.5,0,1.2,3.1,1,5.5.8,6.1-.2.6-1.2-.4-1.2-.4h0Z"/>
  <path class="cls-1" d="M212.4,86.3c0-.5-.1-1-.5-1.5-.5-.6-1.1-1.1-1.5-1.8-.1-.2-.1-.4-.1-.7-1,0-1.6,1-.5,1.7,1.9,1.3,2.2,5.7,2.2,5.7,0,0,.9.8,1.3.5-.3-1.3-.6-2.7-.8-4h0Z"/>
  <path class="cls-3" d="M111.2,21.8s19.5.9,17.8-12.2c-1.7-13.1-20.3-6.9-20.3-6.9,0,0-6.4,9.8,2.5,19.1Z"/>
  <path class="cls-2" d="M108.7,2.7s-6.4,9.8,2.5,19.1c0,0,.4,0,1.2,0-.1-.3-.2-.6-.2-.9,0,0,0-.7,0-.7,0-.3,0-.6-.2-.9-.1-.6-.3-1.2-.4-1.9-.3-1.2-.7-2.4-1-3.6-.6-2.3-.8-4.7-.9-7.1-.5-.5-.7-1.3-.6-2.1.2-1.1,1.6-1.9,2.7-1.5h0s0,0,0-.1c.4-.7,1.5-1,2.2-.6.5.4,1.1.6,1.7.5.8-.1,1.4-.5,2.1-1,.7-.5,1.8-.1,2.2.6.3.5.3,1,0,1.5.3,0,.7.2,1,.3.1,0,.2,0,.4,0,2.4,0,4.7.4,6.6,1.6-4.3-8.4-19.2-3.4-19.2-3.4h0Z"/>
  <path class="cls-6" d="M112.6,21.9s-2.4,4.1-6.2,1c-3.7-3.1-6.2-15.3-2.4-20.6,3.8-5.3,6.3.3,6.3.3,0,0,2.9,19.3,2.2,19.3Z"/>
  <path class="cls-6" d="M103.3,14.5s-4.4.2-5.7,2c-1.3,1.8-3.1-1.2,0-2.5,3.1-1.2,5.5-1,6.1-.8.6.2-.4,1.2-.4,1.2h0Z"/>
  <path class="cls-1" d="M99.8,13.8c-.5,0-1,.1-1.5.5-.6.5-1.1,1.1-1.8,1.5-.2.1-.4.1-.7.1,0,1,1,1.6,1.7.5,1.3-1.9,5.7-2.2,5.7-2.2,0,0,.8-.9.5-1.3-1.3.3-2.7.6-4,.8h0Z"/>
  <path class="cls-3" d="M111,214.6s19.5.9,17.8-12.2c-1.7-13.1-20.3-6.9-20.3-6.9,0,0-6.4,9.8,2.5,19.1h0Z"/>
  <path class="cls-2" d="M108.4,195.5s-6.4,9.8,2.5,19.1c0,0,.4,0,1.2,0-.1-.3-.2-.6-.2-.9,0,0,0-.7,0-.7,0-.3,0-.6-.2-.9-.1-.6-.3-1.2-.4-1.9-.3-1.2-.7-2.4-1-3.6-.6-2.3-.8-4.7-.9-7.1-.5-.5-.7-1.3-.6-2.1.2-1.1,1.6-1.9,2.7-1.5h0c.4-.8,1.5-1.2,2.2-.7.5.4,1.1.6,1.7.5.8-.1,1.4-.6,2.1-1,.7-.5,1.8-.1,2.2.6.3.5.3,1,0,1.5.3.1.7.2,1,.4.1,0,.2,0,.4,0,2.4,0,4.7.4,6.6,1.6-4.3-8.4-19.2-3.4-19.2-3.4h0Z"/>
  <path class="cls-6" d="M112.4,214.7s-2.4,4.1-6.2,1c-3.7-3.1-6.2-15.3-2.4-20.6s6.3.3,6.3.3c0,0,2.9,19.3,2.2,19.3Z"/>
  <path class="cls-6" d="M103.1,207.2s-4.4.2-5.7,2c-1.3,1.8-3.1-1.2,0-2.5,3.1-1.2,5.5-1,6.1-.8s-.4,1.2-.4,1.2h0Z"/>
  <path class="cls-1" d="M99.6,206.6c-.5,0-1,.1-1.5.5-.6.5-1.1,1.1-1.8,1.5-.2.1-.4.1-.7.1,0,1,1,1.6,1.7.5,1.3-1.9,5.7-2.2,5.7-2.2,0,0,.8-.9.5-1.3-1.3.3-2.7.6-4,.8h0Z"/>
  <path class="cls-9" d="M105.3,87.3s-13.2-5.2-17.1,9.3c-1.2,1-.2,6.6,6.8,7.8,6.9,1.2-11.6,7.7-13.2,10.5-1.6,2.8,12.2,3.2,12.2,3.2,0,0,.6,8.4-1.8,10.9-.4,5.6,9.9,11.3,9.9,11.3,0,0-3.1-3.8-12.6,1.9-4.2,4.6,17.6-.2,23.1-1.3,6.2-1.3,25.8-20.6-1.8-38.5,0,0-4.1-3.2-.8-12.2,3.2-8.9-3.7-7.3-4.6-3h0Z"/>
</svg>