<?xml version="1.0" encoding="UTF-8"?>
<svg id="Layer_1" data-name="Layer 1" xmlns="http://www.w3.org/2000/svg" version="1.1" viewBox="0 0 179.5 168.4">
  <defs>
    <style>
      .cls-1 {
        stroke-width: 2.2px;
      }

      .cls-1, .cls-2, .cls-3 {
        fill: none;
        stroke: #633311;
        stroke-miterlimit: 10;
      }

      .cls-4 {
        fill: #633311;
      }

      .cls-4, .cls-5, .cls-6, .cls-7, .cls-8 {
        stroke-width: 0px;
      }

      .cls-2 {
        stroke-width: 1.9px;
      }

      .cls-5 {
        fill: #f9a66b;
      }

      .cls-3 {
        stroke-linecap: round;
        stroke-width: 1.7px;
      }

      .cls-6 {
        fill: #b77b53;
      }

      .cls-7 {
        fill: #fab380;
      }

      .cls-8 {
        fill: #944d1a;
      }
    </style>
  </defs>
  <path class="cls-4" d="M15.4,160.2c-1.1,0-2.2,0-3.3-.2-1.1-.1-2.2-.4-3.3-.7-1.1-.3-2.1-.7-3-1.2-.7-.4-1.2-.8-1.4-1.4-.2-.6-.3-1.2-.2-1.8.1-.6.3-1.1.7-1.6.4-.5.9-.8,1.5-.9.6-.1,1.3,0,2.1.3,1.2.6,2.5,1.1,3.9,1.4s2.6.4,3.8.4,2.9-.3,3.8-.9c.9-.6,1.4-1.3,1.4-2.2s-.3-1.3-.8-1.8-1.4-.8-2.6-1.1l-4.7-1.1c-2.1-.5-3.7-1.3-4.9-2.6-1.2-1.3-1.8-2.9-1.8-4.9s.3-2.9.9-4.1c.7-1.2,1.5-2.2,2.7-3s2.4-1.4,3.9-1.9c1.4-.4,3-.7,4.6-.7s2.8.2,4.4.5c1.6.3,3.1.9,4.4,1.7.6.3,1,.8,1.3,1.3.3.6.4,1.1.3,1.7,0,.6-.3,1.1-.7,1.5-.4.4-.9.7-1.5.8-.6.1-1.4,0-2.3-.4-.9-.4-1.9-.8-2.9-1-1-.2-2-.4-3-.4s-2,.1-2.8.4c-.8.3-1.4.6-1.8,1.1s-.6,1-.6,1.6.2,1.3.7,1.8,1.3.8,2.3,1l4.7,1.1c2.3.6,4,1.5,5.3,2.8,1.2,1.3,1.9,2.9,1.9,4.7s-.3,3-1,4.2c-.7,1.2-1.6,2.2-2.8,3-1.2.8-2.5,1.4-4.1,1.8-1.5.4-3.1.6-4.8.6h0ZM56.7,163.8c.4.9.6,1.6.4,2.3-.2.7-.5,1.2-1,1.6-.5.4-1.1.6-1.8.7-.7,0-1.3,0-2-.4-.6-.3-1.1-.9-1.5-1.7l-1.9-4.1c-.3-.7-.8-1.2-1.3-1.5-.5-.3-1.3-.4-2.5-.4l5.5-2c1.2,0,2.2.2,3,.7.8.4,1.4,1.2,1.9,2.2l1.2,2.7h0ZM45.7,160.2c-2.7,0-5.1-.5-7.1-1.5-2-1-3.6-2.5-4.7-4.4-1.1-1.9-1.7-4.3-1.7-7s.4-4.8,1.1-6.9,1.8-3.9,3.2-5.4c1.4-1.5,3-2.7,4.9-3.5,1.9-.8,4.1-1.2,6.4-1.2s5.1.5,7.1,1.5c2,1,3.6,2.5,4.7,4.4,1.1,1.9,1.7,4.2,1.7,6.9s-.4,4.8-1.1,6.9-1.8,3.9-3.2,5.4c-1.4,1.5-3,2.7-4.9,3.5-1.9.8-4,1.2-6.4,1.2ZM45.8,154.4c1.7,0,3.2-.5,4.4-1.4s2.2-2.2,2.8-3.9c.7-1.7,1-3.6,1-5.7s-.6-4.2-1.7-5.4c-1.1-1.2-2.7-1.8-4.6-1.8s-3.2.5-4.4,1.4-2.2,2.2-2.8,3.9c-.6,1.6-1,3.6-1,5.7s.6,4.2,1.7,5.4c1.2,1.2,2.7,1.8,4.6,1.8h0ZM73.8,160.2c-.9,0-1.7-.3-2.2-.8-.5-.5-.9-1.3-1.1-2.3l-4.4-22.4c-.2-1.2,0-2.2.5-3,.6-.8,1.5-1.1,2.7-1.1s1.7.3,2.2.8c.6.5.9,1.3,1.1,2.3l3.3,18.8h-1.8l10-19.4c.4-.9.9-1.5,1.5-1.9.6-.4,1.3-.6,2.1-.6s1.5.3,2,.8c.5.5.8,1.3,1,2.4l3.4,18.8h-1.6l9.7-19.4c.4-.9.9-1.5,1.5-1.9.6-.4,1.3-.7,2.2-.7,1.3,0,2.2.4,2.7,1.3.5.9.4,1.9-.2,3.2l-11.8,22.7c-.4.9-1,1.5-1.6,1.9-.6.4-1.4.6-2.4.6s-1.7-.3-2.2-.8-.9-1.3-1.1-2.3l-3.3-16.9h1l-9.1,17.5c-.5.9-1,1.5-1.6,1.9-.6.4-1.4.6-2.4.6h0ZM113.4,159.8c-1.3,0-2.2-.3-2.8-1-.6-.7-.8-1.7-.6-2.9l3.4-21.7c.2-1.1.6-1.9,1.3-2.5.7-.6,1.6-.9,2.7-.9h13.9c.9,0,1.6.2,2.1.6.5.4.7.9.7,1.6s-.3,1.8-.9,2.3c-.6.6-1.3.9-2.3.9h-11.1l-1,6.1h9.7c.9,0,1.6.2,2.1.6.5.4.7.9.7,1.6s-.3,1.8-.9,2.3c-.6.6-1.3.9-2.3.9h-10.2l-1,6.6h10.6c.9,0,1.6.2,2.1.6.5.4.7.9.7,1.6s-.3,1.8-.9,2.3-1.3.9-2.3.9h-13.8ZM138.3,159.8c-1.2,0-2.1-.3-2.7-1-.6-.7-.8-1.6-.6-2.8l3.5-22.3c.2-1.1.6-1.9,1.2-2.4.6-.6,1.5-.8,2.6-.8s2,.3,2.6,1c.6.7.7,1.6.5,2.8l-3.1,19.7h9.9c1,0,1.8.2,2.3.6.6.4.8,1,.8,1.7,0,1.1-.3,2-.9,2.6-.6.6-1.4.9-2.6.9h-13.6,0ZM162.4,159.8c-1.2,0-2.1-.3-2.7-1-.6-.7-.8-1.6-.6-2.8l3.5-22.3c.2-1.1.6-1.9,1.2-2.4.6-.6,1.5-.8,2.6-.8s2,.3,2.6,1c.6.7.7,1.6.5,2.8l-3.1,19.7h9.9c1,0,1.8.2,2.3.6.6.4.8,1,.8,1.7,0,1.1-.3,2-.9,2.6-.6.6-1.4.9-2.6.9h-13.6,0Z"/>
  <path class="cls-7" d="M13.6,157.9c-1.1,0-2.2,0-3.3-.2-1.1-.1-2.2-.4-3.3-.7-1.1-.3-2.1-.7-3-1.2-.7-.4-1.2-.8-1.4-1.4-.2-.6-.3-1.2-.2-1.8.1-.6.3-1.1.7-1.6.4-.5.9-.8,1.5-.9.6-.1,1.3,0,2.1.3,1.2.6,2.5,1.1,3.9,1.4s2.6.4,3.8.4,2.9-.3,3.8-.9c.9-.6,1.4-1.3,1.4-2.2s-.3-1.3-.8-1.8-1.4-.8-2.6-1.1l-4.7-1.1c-2.1-.5-3.7-1.3-4.9-2.6-1.2-1.3-1.8-2.9-1.8-4.9s.3-2.9.9-4.1c.7-1.2,1.6-2.2,2.7-3s2.4-1.4,3.9-1.9c1.4-.4,3-.7,4.6-.7s2.8.2,4.4.5c1.6.3,3.1.9,4.4,1.7.6.3,1,.8,1.3,1.3.3.6.4,1.1.3,1.7,0,.6-.3,1.1-.7,1.5-.4.4-.9.7-1.5.8-.6.1-1.4,0-2.3-.4-.9-.4-1.9-.8-2.9-1-1-.2-2-.4-3-.4s-2,.1-2.8.4c-.8.3-1.4.6-1.8,1.1s-.6,1-.6,1.6.2,1.3.7,1.8,1.3.8,2.3,1l4.7,1.1c2.3.6,4,1.5,5.3,2.8,1.2,1.3,1.9,2.9,1.9,4.7s-.3,3-1,4.2c-.7,1.2-1.6,2.2-2.8,3-1.2.8-2.5,1.4-4.1,1.8-1.5.4-3.1.6-4.8.6h0ZM54.9,161.5c.4.9.6,1.6.4,2.3-.2.7-.5,1.2-1,1.6-.5.4-1.1.6-1.8.7-.7,0-1.3,0-2-.4-.6-.3-1.1-.9-1.5-1.7l-1.9-4.1c-.3-.7-.8-1.2-1.3-1.5-.5-.3-1.3-.4-2.5-.4l5.5-2c1.2,0,2.2.2,3,.7.8.4,1.4,1.2,1.9,2.2l1.2,2.7h0ZM43.9,157.9c-2.7,0-5.1-.5-7.1-1.5-2-1-3.6-2.5-4.7-4.4-1.1-1.9-1.7-4.3-1.7-7s.4-4.8,1.1-6.9,1.8-3.9,3.2-5.4c1.4-1.5,3-2.7,4.9-3.5,1.9-.8,4.1-1.2,6.4-1.2s5.1.5,7.1,1.5c2,1,3.6,2.5,4.7,4.4,1.1,1.9,1.7,4.2,1.7,6.9s-.4,4.8-1.1,6.9-1.8,3.9-3.2,5.4c-1.4,1.5-3,2.7-4.9,3.5-1.9.8-4,1.2-6.4,1.2ZM44,152c1.7,0,3.2-.5,4.4-1.4s2.2-2.2,2.8-3.9c.7-1.7,1-3.6,1-5.7s-.6-4.2-1.7-5.4c-1.1-1.2-2.7-1.8-4.6-1.8s-3.2.5-4.4,1.4-2.2,2.2-2.8,3.9c-.6,1.6-1,3.6-1,5.7s.6,4.2,1.7,5.4c1.2,1.2,2.7,1.8,4.6,1.8h0ZM72.1,157.8c-.9,0-1.7-.3-2.2-.8-.5-.5-.9-1.3-1.1-2.3l-4.4-22.4c-.2-1.2,0-2.2.5-3,.6-.8,1.5-1.1,2.7-1.1s1.7.3,2.2.8c.6.5.9,1.3,1.1,2.3l3.3,18.8h-1.8l10-19.4c.4-.9.9-1.5,1.5-1.9.6-.4,1.3-.6,2.1-.6s1.5.3,2,.8c.5.5.8,1.3,1,2.4l3.4,18.8h-1.6l9.7-19.4c.4-.9.9-1.5,1.5-1.9.6-.4,1.3-.7,2.2-.7,1.3,0,2.2.4,2.7,1.3.5.9.4,1.9-.2,3.2l-11.8,22.7c-.4.9-1,1.5-1.6,1.9-.6.4-1.4.6-2.4.6s-1.7-.3-2.2-.8-.9-1.3-1.1-2.3l-3.3-16.9h1l-9.1,17.5c-.5.9-1,1.5-1.6,1.9-.6.4-1.4.6-2.4.6h0ZM111.8,157.4c-1.3,0-2.2-.3-2.8-1-.6-.7-.8-1.7-.6-2.9l3.4-21.7c.2-1.1.6-1.9,1.3-2.5.7-.6,1.6-.9,2.7-.9h13.9c.9,0,1.6.2,2.1.6.5.4.7.9.7,1.6s-.3,1.8-.9,2.3c-.6.6-1.3.9-2.3.9h-11.1l-1,6.1h9.7c.9,0,1.6.2,2.1.6s.7.9.7,1.6-.3,1.8-.9,2.3c-.6.6-1.3.9-2.3.9h-10.2l-1,6.6h10.6c.9,0,1.6.2,2.1.6.5.4.7.9.7,1.6s-.3,1.8-.9,2.3c-.6.6-1.3.9-2.3.9h-13.8ZM136.9,157.4c-1.2,0-2.1-.3-2.7-1-.6-.7-.8-1.6-.6-2.8l3.5-22.3c.2-1.1.6-1.9,1.2-2.4.6-.6,1.5-.8,2.6-.8s2,.3,2.6,1c.6.7.7,1.6.5,2.8l-3.1,19.7h9.9c1,0,1.8.2,2.3.6.6.4.8,1,.8,1.7,0,1.1-.3,2-.9,2.6s-1.4.9-2.6.9h-13.6,0ZM160.4,157.4c-1.2,0-2.1-.3-2.7-1-.6-.7-.8-1.6-.6-2.8l3.5-22.3c.2-1.1.6-1.9,1.2-2.4.6-.6,1.5-.8,2.6-.8s2,.3,2.6,1c.6.7.7,1.6.5,2.8l-3.1,19.7h9.9c1,0,1.8.2,2.3.6.6.4.8,1,.8,1.7,0,1.1-.3,2-.9,2.6s-1.4.9-2.6.9h-13.6,0Z"/>
  <path class="cls-8" d="M11.3,156.7c-1.1,0-2.2,0-3.3-.2-1.1-.1-2.2-.4-3.3-.7-1.1-.3-2.1-.7-3-1.2-.7-.4-1.2-.8-1.4-1.4-.2-.6-.3-1.2-.2-1.8.1-.6.3-1.1.7-1.6.4-.5.9-.8,1.5-.9.6-.1,1.3,0,2.1.3,1.2.6,2.5,1.1,3.9,1.4,1.4.3,2.6.4,3.8.4s2.9-.3,3.8-.9c.9-.6,1.4-1.3,1.4-2.2s-.3-1.3-.8-1.8c-.6-.5-1.4-.8-2.6-1.1l-4.7-1.1c-2.1-.5-3.7-1.3-4.9-2.6-1.2-1.3-1.8-2.9-1.8-4.9s.3-2.9,1-4.1c.7-1.2,1.5-2.2,2.7-3s2.4-1.4,3.9-1.8c1.4-.4,3-.7,4.6-.7s2.8.2,4.4.5c1.6.3,3.1.9,4.4,1.7.6.3,1,.8,1.3,1.3.3.6.4,1.1.3,1.7,0,.6-.3,1.1-.7,1.5-.4.4-.9.7-1.5.8-.6.1-1.4,0-2.3-.4-.9-.4-1.9-.8-2.9-1-1-.2-2-.4-3-.4s-2,.1-2.8.4c-.8.3-1.4.6-1.8,1.1s-.6,1-.6,1.6.2,1.3.7,1.8,1.3.8,2.3,1l4.7,1.1c2.3.6,4,1.5,5.3,2.8,1.2,1.3,1.9,2.9,1.9,4.7s-.3,3-1,4.2c-.7,1.2-1.6,2.2-2.8,3-1.2.8-2.5,1.4-4.1,1.8-1.5.4-3.1.6-4.8.6h0ZM52.5,160.3c.4.9.6,1.6.4,2.3-.2.7-.5,1.2-1,1.6-.5.4-1.1.6-1.8.7-.7,0-1.3,0-2-.4-.6-.3-1.1-.9-1.5-1.7l-1.9-4.1c-.3-.7-.8-1.2-1.3-1.5-.5-.3-1.3-.4-2.5-.4l5.5-2c1.2,0,2.2.2,3,.7.8.4,1.4,1.2,1.9,2.2l1.2,2.7h0ZM41.6,156.7c-2.7,0-5.1-.5-7.1-1.5-2-1-3.6-2.5-4.7-4.4-1.1-1.9-1.7-4.3-1.7-7s.4-4.8,1.1-6.9,1.8-3.9,3.2-5.4c1.4-1.5,3-2.7,4.9-3.5s4.1-1.2,6.4-1.2,5.1.5,7.1,1.5c2,1,3.6,2.5,4.7,4.4,1.1,1.9,1.7,4.2,1.7,6.9s-.4,4.8-1.1,6.9-1.8,3.9-3.2,5.4c-1.4,1.5-3,2.7-4.9,3.5-1.9.8-4,1.2-6.4,1.2h0ZM41.7,150.9c1.7,0,3.2-.5,4.4-1.4s2.2-2.2,2.8-3.9c.7-1.7,1-3.6,1-5.7s-.6-4.2-1.7-5.4c-1.1-1.2-2.7-1.8-4.6-1.8s-3.2.5-4.4,1.4-2.2,2.2-2.8,3.9c-.6,1.6-1,3.6-1,5.7s.6,4.2,1.7,5.4c1.2,1.2,2.7,1.8,4.6,1.8h0ZM69.7,156.6c-.9,0-1.7-.3-2.2-.8-.5-.5-.9-1.3-1.1-2.3l-4.4-22.4c-.2-1.2,0-2.2.5-3,.6-.8,1.5-1.2,2.7-1.2s1.7.3,2.2.8c.6.5.9,1.3,1.1,2.3l3.3,18.8h-1.8l10-19.4c.4-.9.9-1.5,1.5-1.9.6-.4,1.3-.6,2.1-.6s1.5.3,2,.8c.5.5.8,1.3,1,2.4l3.4,18.8h-1.6l9.7-19.4c.4-.9.9-1.5,1.5-1.9.6-.4,1.3-.7,2.2-.7,1.3,0,2.2.4,2.7,1.3.5.9.4,1.9-.2,3.2l-11.8,22.7c-.4.9-1,1.5-1.6,1.9-.6.4-1.4.6-2.4.6s-1.7-.3-2.2-.8-.9-1.3-1.1-2.3l-3.3-16.9h1l-9.1,17.5c-.5.9-1,1.5-1.6,1.9-.6.4-1.4.6-2.4.6h0ZM110.2,156.3c-1.3,0-2.2-.3-2.8-1-.6-.7-.8-1.7-.6-2.9l3.4-21.7c.2-1.1.6-1.9,1.3-2.5.7-.6,1.6-.9,2.7-.9h13.9c.9,0,1.6.2,2.1.6.5.4.7.9.7,1.6s-.3,1.8-.9,2.3c-.6.6-1.3.9-2.3.9h-11.1l-1,6.1h9.7c.9,0,1.6.2,2.1.6.5.4.7.9.7,1.6s-.3,1.8-.9,2.3c-.6.6-1.3.9-2.3.9h-10.2l-1,6.6h10.6c.9,0,1.6.2,2.1.6.5.4.7.9.7,1.6s-.3,1.8-.9,2.3c-.6.6-1.3.9-2.3.9h-13.8ZM135,156.3c-1.2,0-2.1-.3-2.7-1-.6-.7-.8-1.6-.6-2.8l3.5-22.3c.2-1.1.6-1.9,1.2-2.4.6-.6,1.5-.8,2.6-.8s2,.3,2.6,1c.6.7.7,1.6.5,2.8l-3.1,19.7h9.9c1,0,1.8.2,2.3.6.6.4.8,1,.8,1.7,0,1.1-.3,2-.9,2.6-.6.6-1.4.9-2.6.9h-13.6,0ZM158.5,156.3c-1.2,0-2.1-.3-2.7-1-.6-.7-.8-1.6-.6-2.8l3.5-22.3c.2-1.1.6-1.9,1.2-2.4.6-.6,1.5-.8,2.6-.8s2,.3,2.6,1c.6.7.7,1.6.5,2.8l-3.1,19.7h9.9c1,0,1.8.2,2.3.6.6.4.8,1,.8,1.7,0,1.1-.3,2-.9,2.6s-1.4.9-2.6.9h-13.6,0Z"/>
  <path class="cls-8" d="M100.6,114.8c30.2-5.4,49.9-34.4,11.9-63.3-13.5-13,16.2-21,11.4,1.8-.3,3.2.7,3.3,1.6,2,52.5-77.8-98.2-73.1-27.1,12.5,0,0,15,19.2,4.6,32.5s-12.2,12.8-2.4,14.7h0Z"/>
  <path class="cls-4" d="M128.5,92.8c-3.4,6.4-9.1,12.2-16.5,12.1-.2,0-3.4.4-4.8.1-2.6-.6-3.9-2.4-4.3-4.7-10.2,13.1-12,12.6-2.2,14.5,20.4-3.6,36.1-18.1,32.3-36.1,0,0-.1-.2-.2-.3-.3,5.1-1.9,10-4.2,14.3h0Z"/>
  <path class="cls-7" d="M111.2,3c-4.3-.6-8.6-.3-12.6,1.3-5.6,2.3-9.6,7-11.9,12.6,0,.2.2.3.2.5,4-8.2,12.8-11.7,21.3-11.9,4.5,0,9.3.7,13.8,2.3-2.3-3.3-7.3-4.3-10.8-4.8h0Z"/>
  <path class="cls-4" d="M108.2,47.6c2.7,3.3,6.2,6,9.8,8.5,0,0,0,0,0,0-1.7-1.5-3.6-3.1-5.6-4.6-13.5-13,16.3-21,11.4,1.8-.3,3.2.7,3.3,1.6,2,.6-1,1.2-1.9,1.8-2.8,14.6-36.4-37.2-32.2-19.1-4.8Z"/>
  <path class="cls-4" d="M102.6,102.5c-.2.3-.4.6-.6.9.2,0,.3.1.5.2,0-.4,0-.7,0-1.1h0Z"/>
  <path class="cls-2" d="M69.7,75.6c1.7,0,3.1-1.6,3.1-3.5,0-1.9-1.4-3.4-3.2-3.4-1.7,0-3.1,1.6-3.1,3.5,0,1.9,1.4,3.4,3.2,3.4Z"/>
  <path class="cls-2" d="M69.5,75.3c1.7,0,3.1-1.6,3.1-3.5,0-1.9-1.4-3.4-3.2-3.4-1.7,0-3.1,1.6-3.1,3.5,0,1.9,1.4,3.4,3.2,3.4Z"/>
  <path class="cls-4" d="M83.7,64.9s-13.2-5.2-17.1,9.3c-1.2,1-.2,6.6,6.8,7.8,6.9,1.2-11.6,7.7-13.2,10.5-1.6,2.8,12.2,3.2,12.2,3.2,0,0,.6,8.4-1.8,10.9-.4,5.6,9.9,11.3,9.9,11.3,0,0-3.1-3.8-12.6,1.9-4.2,4.6,17.7-.2,23.1-1.3,6.2-1.3,25.8-20.6-1.8-38.5,0,0-4.1-3.2-.8-12.2,3.2-8.9-3.7-7.3-4.6-3h0Z"/>
  <path class="cls-4" d="M78.5,119.2c1.7-.4,3.5-1,4.9-2.1-.5-.2-.9-.4-1.3-.6-2.3-1-4.5-2.3-6.2-4.1-.6-.4-1.2-1-1.7-1.6-.4-.4-.7-.8-.9-1.3-.5-.8-.7-1.9-.6-3,0-.2,0-.4.1-.7.3-1.2,1.1-2.1,2.5-2-.3-1.4-.4-2.8-.5-4.1-.1-1.8-.2-3.4-1-4.9-.2-.3-.3-.6-.3-1-1.7.1-3.5.5-5.2.3-1.2-.1-2.4-.3-3.6-.6-.7-.2-1.3-.4-2-.3-.3,0-1.5.4-1.4.8,3.1,1.3,11.1,1.5,11.1,1.5,0,0,.6,8.4-1.8,10.9-.3,4.3,5.7,8.6,8.5,10.4-1.7-.6-5.2-.8-11.2,2.8-1.6,1.7.4,2.1,3.8,1.9,1.6-1.9,4.7-2,7-2.6h0Z"/>
  <path class="cls-4" d="M96.7,114.4c-1.3,1.2-3.1,2.8-5,3.7-.2.2-.5.4-.8.6,0,0,0,0,0,0,2.5-.5,7.2-4,10.1-9.1-1.4,1.7-2.8,3.3-4.3,4.9h0Z"/>
  <path class="cls-4" d="M85.8,62.4s0,0-.1,0c-.8.5-1.6,1.7-1.8,2.8.1,0,.2,0,.4.1,0,0,0,0,.1,0,.8,0,1.2-1,1.4-1.8,0-.4,0-.8,0-1.2h0Z"/>
  <path class="cls-4" d="M69.5,79.7c-.2.2-.5.3-.7.5.4.3.9.6,1.5.9-.3-.4-.6-.9-.8-1.4h0Z"/>
  <path class="cls-4" d="M87.8,81.9c.2.8,1.2,1.4,1.7,1.9,1.1.8,2.2,1.5,3.2,2.4,2.3,1.9,4.3,4.8,5.8,7.4,1.7,2.8,2.4,5.6,2.8,8.8,0,.5.1,1,.2,1.5.3-2.6.2-5.2-.4-7.7-.7-2.6-1.8-5.1-3.5-7.1,0-.1-.2-.2-.2-.3-1.3-1.6-2.7-3.1-4.2-4.4-.8-.7-1.7-1.5-2.6-2.1-.1,0-.2,0-.4-.1-.7-.4-1.5-.9-2.3-1.2-.3.2-.4.7-.3,1h0Z"/>
  <path class="cls-4" d="M71.8,74.2c.7,0,1.2-.6,1.2-1.3,0-.7-.6-1.3-1.2-1.3s-1.2.6-1.2,1.3c0,.7.6,1.3,1.2,1.3Z"/>
  <path class="cls-4" d="M71.2,72.7c.2,0,.4-.2.3-.4,0-.2-.2-.4-.4-.4s-.4.2-.3.4c0,.2.2.4.4.4Z"/>
  <path class="cls-4" d="M66.4,76.5s-2.1-1.7.2-2.3c.9.3-.2,2.3-.2,2.3Z"/>
  <path class="cls-1" d="M72.4,76.2c2.1,0,3.8-1.9,3.8-4.2,0-2.3-1.8-4.2-3.8-4.1-2.1,0-3.8,1.9-3.8,4.2,0,2.3,1.8,4.2,3.8,4.1Z"/>
  <path class="cls-1" d="M72.1,76c2.1,0,3.8-1.9,3.8-4.2,0-2.3-1.8-4.2-3.8-4.1-2.1,0-3.8,1.9-3.8,4.2,0,2.3,1.8,4.2,3.8,4.1Z"/>
  <path class="cls-3" d="M66.6,73s.7-.5,1.7,0"/>
  <path class="cls-7" d="M100.6,99.5c-.2.3-.4.6-.6.9.2,0,.3.1.5.2,0-.4,0-.7,0-1.1h0Z"/>
  <path class="cls-7" d="M81.6,61.9s-13.2-5.2-17.1,9.3c-1.2,1-.2,6.6,6.8,7.8,6.9,1.2-11.6,7.7-13.2,10.5-1.6,2.8,12.2,3.2,12.2,3.2,0,0,.6,8.4-1.8,10.9-.4,5.6,9.9,11.3,9.9,11.3,0,0-3.1-3.8-12.6,1.9-4.2,4.6,17.7-.2,23.1-1.3,6.2-1.3,25.8-20.6-1.8-38.5,0,0-4.1-3.2-.8-12.2,3.2-8.9-3.7-7.3-4.6-3h0Z"/>
  <path class="cls-7" d="M76.5,116.2c1.7-.4,3.5-1,4.9-2.1-.5-.2-.9-.4-1.3-.6-2.3-1-4.5-2.3-6.2-4.1-.6-.4-1.2-1-1.7-1.6-.4-.4-.7-.8-.9-1.3-.5-.8-.7-1.9-.6-3,0-.2,0-.4.1-.7.3-1.2,1.1-2.1,2.5-2-.3-1.4-.4-2.8-.5-4.1-.1-1.8-.2-3.4-1-4.9-.2-.3-.3-.6-.3-1-1.7.1-3.5.5-5.2.3-1.2-.1-2.4-.3-3.5-.6-.7-.2-1.3-.4-2-.3-.3,0-1.5.4-1.4.8,3.1,1.3,11.1,1.5,11.1,1.5,0,0,.6,8.4-1.8,10.9-.3,4.3,5.7,8.6,8.5,10.4-1.7-.6-5.2-.8-11.2,2.8-1.6,1.7.4,2.1,3.8,1.9,1.6-1.9,4.7-2.1,7-2.6h0Z"/>
  <path class="cls-7" d="M94.6,111.3c-1.3,1.2-3.1,2.8-5,3.7-.2.2-.5.4-.8.6,0,0,0,0,0,0,2.5-.5,7.2-4,10.1-9.1-1.4,1.7-2.8,3.3-4.3,4.9h0Z"/>
  <path class="cls-7" d="M83.7,59.3s0,0-.1,0c-.8.5-1.6,1.7-1.8,2.8.1,0,.2,0,.4.1,0,0,0,0,.1,0,.8,0,1.2-1,1.4-1.8,0-.4,0-.8,0-1.2h0Z"/>
  <path class="cls-7" d="M67.5,76.6c-.2.2-.5.3-.7.5.4.3.9.6,1.5.9-.3-.4-.6-.9-.8-1.4h0Z"/>
  <path class="cls-7" d="M85.8,78.8c.2.8,1.2,1.4,1.7,1.9,1.1.8,2.2,1.5,3.2,2.4,2.3,1.9,4.3,4.8,5.8,7.4,1.7,2.8,2.4,5.6,2.8,8.8,0,.5.1,1,.2,1.5.3-2.6.2-5.2-.4-7.7-.7-2.6-1.8-5.1-3.5-7.1,0-.1-.2-.2-.2-.3-1.3-1.6-2.7-3.1-4.2-4.4-.8-.7-1.7-1.5-2.6-2.1-.1,0-.2,0-.4-.1-.7-.4-1.5-.9-2.3-1.2-.3.2-.4.7-.3,1h0Z"/>
  <path class="cls-7" d="M69.2,69.6c.2,0,.4-.2.3-.4,0-.2-.2-.4-.4-.4s-.4.2-.3.4c0,.2.2.4.4.4Z"/>
  <path class="cls-8" d="M101.6,100.5c-.2.3-.4.6-.6.9.2,0,.3.1.5.2,0-.4,0-.7,0-1.1h0Z"/>
  <path class="cls-8" d="M77.5,117.2c1.7-.4,3.5-1,4.9-2.1-.5-.2-.9-.4-1.3-.6-2.3-1-4.5-2.3-6.2-4.1-.6-.4-1.2-1-1.7-1.6-.4-.4-.7-.8-.9-1.3-.5-.8-.7-1.9-.6-3,0-.2,0-.4.1-.7.3-1.2,1.1-2.1,2.5-2-.3-1.4-.4-2.8-.5-4.1-.1-1.8-.2-3.4-1-4.9-.2-.3-.3-.6-.3-1-1.7.1-3.5.5-5.2.3-1.2-.1-2.4-.3-3.5-.6-.7-.2-1.3-.4-2-.3-.3,0-1.5.4-1.4.8,3.1,1.3,11.1,1.5,11.1,1.5,0,0,.6,8.4-1.8,10.9-.3,4.3,5.7,8.6,8.5,10.4-1.7-.6-5.2-.8-11.2,2.8-1.6,1.7.4,2.1,3.8,1.9,1.6-1.9,4.7-2,7-2.6h0Z"/>
  <path class="cls-8" d="M95.6,112.3c-1.3,1.2-3.1,2.8-5,3.7-.2.2-.5.4-.8.6,0,0,0,0,0,0,2.5-.5,7.2-4,10.1-9.1-1.4,1.7-2.8,3.3-4.3,4.9h0Z"/>
  <path class="cls-8" d="M84.7,60.4s0,0-.1,0c-.8.5-1.6,1.7-1.8,2.8.1,0,.2,0,.4.1,0,0,0,0,.1,0,.8,0,1.2-1,1.4-1.8,0-.4,0-.8,0-1.2h0Z"/>
  <path class="cls-8" d="M86.8,79.8c.2.8,1.2,1.4,1.7,1.9,1.1.8,2.2,1.5,3.2,2.4,2.3,1.9,4.3,4.8,5.8,7.4,1.7,2.8,2.4,5.6,2.8,8.8,0,.5.1,1,.2,1.5.3-2.6.2-5.2-.4-7.7-.7-2.6-1.8-5.1-3.5-7.1,0-.1-.2-.2-.2-.3-1.3-1.6-2.7-3.1-4.2-4.4-.8-.7-1.7-1.5-2.6-2.1-.1,0-.2,0-.4-.1-.7-.4-1.5-.9-2.3-1.2-.3.2-.4.7-.3,1h0Z"/>
  <path class="cls-5" d="M50.2,92.5s-.9,19.5,12.2,17.8c13.1-1.7,6.9-20.3,6.9-20.3,0,0-9.8-6.4-19.1,2.5h0Z"/>
  <path class="cls-6" d="M69.3,90s-9.8-6.4-19.1,2.5c0,0,0,.4,0,1.2.3-.1.6-.2.9-.2,0,0,.7,0,.7,0,.3,0,.6,0,.9-.2.6-.1,1.2-.3,1.9-.4,1.2-.3,2.4-.7,3.6-1,2.3-.6,4.7-.8,7.1-.9.5-.5,1.3-.7,2.1-.6,1.1.2,1.9,1.6,1.5,2.7h0s0,0,.1,0c.7.4,1.1,1.5.6,2.2-.4.5-.6,1.1-.5,1.7.1.8.6,1.4,1,2.1.5.7.1,1.8-.6,2.2-.5.3-1.4,0-1.8,1,0,.2,0,.2,0,.4,0,2.4-.4,4.7-1.6,6.6,8.4-4.3,3.4-19.3,3.4-19.3h0Z"/>
  <path class="cls-4" d="M50.1,93.9s-4.1-2.4-1-6.2,15.3-6.2,20.6-2.4-.3,6.3-.3,6.3c0,0-19.3,2.9-19.3,2.2Z"/>
  <path class="cls-8" d="M71.2,86.7c-1.2,1-2.7,1.8-4.3,2.3-1,1-2.3,1.7-3.6,2.1,0,0-.2.1-.3.2-1.2.6-2.6,1.1-3.9,1.5-1.8.5-3.8.8-5.7.7-1.6-.1-4-.4-4.7-2.1,0,0,0,0,0-.1-.2-.1-.4-.2-.5-.4.2,1.9,2.1,3,2.1,3,0,.7,19.3-2.2,19.3-2.2,0,0,4.3-2,1.8-5h0Z"/>
  <path class="cls-8" d="M57.5,84.7s-.2-4.4-2-5.7,1.2-3.1,2.5,0c1.2,3.1,1,5.6.8,6.1-.2.6-1.2-.4-1.2-.4Z"/>
  <path class="cls-4" d="M57.9,81.2c0-.5-.1-1-.5-1.5-.5-.6-1.1-1.1-1.5-1.8-.1-.2-.1-.4,0-.7-1,0-1.6,1-.5,1.7,1.9,1.3,2.2,5.7,2.2,5.7,0,0,.9.8,1.3.5-.3-1.3-.6-2.7-.8-4Z"/>
  <path class="cls-8" d="M82.6,62.9s-13.2-5.2-17.1,9.3c-1.2,1-.2,6.6,6.8,7.8,6.9,1.2-11.6,7.7-13.2,10.5-1.6,2.8,12.2,3.2,12.2,3.2,0,0,.6,8.4-1.8,10.9-.4,5.6,9.9,11.3,9.9,11.3,0,0-3.1-3.8-12.6,1.9-4.2,4.6,17.7-.2,23.1-1.3,6.2-1.3,25.8-20.6-1.8-38.5,0,0-4.1-3.2-.8-12.2,3.2-8.9-3.7-7.3-4.6-3Z"/>
</svg>